M48
; DRILL file {KiCad (5.1.2-1)-1} date 2019 August 25, Sunday 00:30:00
; FORMAT={-:-/ absolute / metric / decimal}
; #@! TF.CreationDate,2019-08-25T00:30:00+09:00
; #@! TF.GenerationSoftware,Kicad,Pcbnew,(5.1.2-1)-1
; #@! TF.FileFunction,NonPlated,1,2,NPTH
FMAT,2
METRIC
T1C0.500
T2C1.200
T3C1.300
T4C1.500
T5C1.700
T6C1.750
T7C1.800
T8C2.200
T9C3.048
T10C3.988
%
G90
G05
T2
X54.24Y-22.78
X34.74Y-22.78
X73.74Y-42.28
X73.74Y-22.78
T3
X34.46Y-13.08
X45.46Y-24.08
X73.46Y-32.58
X84.46Y-43.58
X73.46Y-13.08
X84.46Y-24.08
X53.96Y-13.08
X64.96Y-24.08
T5
X53.96Y-18.58
X64.96Y-18.58
X34.46Y-18.58
X45.46Y-18.58
X73.46Y-38.08
X84.46Y-38.08
X73.46Y-18.58
X84.46Y-18.58
T6
X54.38Y-18.58
X64.54Y-18.58
X34.88Y-18.58
X45.04Y-18.58
X73.88Y-38.08
X84.04Y-38.08
X73.88Y-18.58
X84.04Y-18.58
T7
X44.67Y-38.1
X54.83Y-38.1
T8
X87.5Y-3.5
X87.5Y-51.5
X3.5Y-51.5
X3.5Y-3.5
T9
X37.812Y-31.115
X61.688Y-31.115
T10
X78.96Y-38.08
X78.96Y-18.58
X59.46Y-18.58
X39.96Y-18.58
X37.812Y-46.355
X49.75Y-38.1
X61.688Y-46.355
T1
G00X37.66Y-17.68
M15
G01X37.66Y-21.28
M16
G05
G00X38.06Y-17.68
M15
G01X38.06Y-21.28
M16
G05
G00X37.66Y-17.68
M15
G01X42.26Y-17.68
M16
G05
G00X37.66Y-21.28
M15
G01X42.26Y-21.28
M16
G05
G00X41.865Y-17.679
M15
G01X41.865Y-21.279
M16
G05
G00X42.26Y-17.68
M15
G01X42.26Y-21.28
M16
G05
G00X76.66Y-37.18
M15
G01X76.66Y-40.78
M16
G05
G00X77.06Y-37.18
M15
G01X77.06Y-40.78
M16
G05
G00X76.66Y-37.18
M15
G01X81.26Y-37.18
M16
G05
G00X76.66Y-40.78
M15
G01X81.26Y-40.78
M16
G05
G00X80.865Y-37.179
M15
G01X80.865Y-40.779
M16
G05
G00X81.26Y-37.18
M15
G01X81.26Y-40.78
M16
G05
G00X76.66Y-17.68
M15
G01X76.66Y-21.28
M16
G05
G00X77.06Y-17.68
M15
G01X77.06Y-21.28
M16
G05
G00X76.66Y-17.68
M15
G01X81.26Y-17.68
M16
G05
G00X76.66Y-21.28
M15
G01X81.26Y-21.28
M16
G05
G00X80.865Y-17.679
M15
G01X80.865Y-21.279
M16
G05
G00X81.26Y-17.68
M15
G01X81.26Y-21.28
M16
G05
G00X57.16Y-17.68
M15
G01X57.16Y-21.28
M16
G05
G00X57.56Y-17.68
M15
G01X57.56Y-21.28
M16
G05
G00X57.16Y-17.68
M15
G01X61.76Y-17.68
M16
G05
G00X57.16Y-21.28
M15
G01X61.76Y-21.28
M16
G05
G00X61.365Y-17.679
M15
G01X61.365Y-21.279
M16
G05
G00X61.76Y-17.68
M15
G01X61.76Y-21.28
M16
G05
T4
G00X38.16Y-20.38
M15
G01X41.76Y-20.38
M16
G05
G00X77.16Y-39.88
M15
G01X80.76Y-39.88
M16
G05
G00X77.16Y-20.38
M15
G01X80.76Y-20.38
M16
G05
G00X57.66Y-20.38
M15
G01X61.26Y-20.38
M16
G05
T0
M30
