G04 #@! TF.GenerationSoftware,KiCad,Pcbnew,(5.1.2-1)-1*
G04 #@! TF.CreationDate,2019-08-25T00:29:00+09:00*
G04 #@! TF.ProjectId,teishi,74656973-6869-42e6-9b69-6361645f7063,rev?*
G04 #@! TF.SameCoordinates,Original*
G04 #@! TF.FileFunction,Legend,Top*
G04 #@! TF.FilePolarity,Positive*
%FSLAX46Y46*%
G04 Gerber Fmt 4.6, Leading zero omitted, Abs format (unit mm)*
G04 Created by KiCad (PCBNEW (5.1.2-1)-1) date 2019-08-25 00:29:00*
%MOMM*%
%LPD*%
G04 APERTURE LIST*
%ADD10C,0.150000*%
%ADD11C,0.381000*%
G04 APERTURE END LIST*
D10*
X27083333Y-24702380D02*
X26750000Y-24226190D01*
X26511904Y-24702380D02*
X26511904Y-23702380D01*
X26892857Y-23702380D01*
X26988095Y-23750000D01*
X27035714Y-23797619D01*
X27083333Y-23892857D01*
X27083333Y-24035714D01*
X27035714Y-24130952D01*
X26988095Y-24178571D01*
X26892857Y-24226190D01*
X26511904Y-24226190D01*
X27464285Y-23797619D02*
X27511904Y-23750000D01*
X27607142Y-23702380D01*
X27845238Y-23702380D01*
X27940476Y-23750000D01*
X27988095Y-23797619D01*
X28035714Y-23892857D01*
X28035714Y-23988095D01*
X27988095Y-24130952D01*
X27416666Y-24702380D01*
X28035714Y-24702380D01*
X27083333Y-22202380D02*
X26750000Y-21726190D01*
X26511904Y-22202380D02*
X26511904Y-21202380D01*
X26892857Y-21202380D01*
X26988095Y-21250000D01*
X27035714Y-21297619D01*
X27083333Y-21392857D01*
X27083333Y-21535714D01*
X27035714Y-21630952D01*
X26988095Y-21678571D01*
X26892857Y-21726190D01*
X26511904Y-21726190D01*
X28035714Y-22202380D02*
X27464285Y-22202380D01*
X27750000Y-22202380D02*
X27750000Y-21202380D01*
X27654761Y-21345238D01*
X27559523Y-21440476D01*
X27464285Y-21488095D01*
X27083333Y-19607142D02*
X27035714Y-19654761D01*
X26892857Y-19702380D01*
X26797619Y-19702380D01*
X26654761Y-19654761D01*
X26559523Y-19559523D01*
X26511904Y-19464285D01*
X26464285Y-19273809D01*
X26464285Y-19130952D01*
X26511904Y-18940476D01*
X26559523Y-18845238D01*
X26654761Y-18750000D01*
X26797619Y-18702380D01*
X26892857Y-18702380D01*
X27035714Y-18750000D01*
X27083333Y-18797619D01*
X28035714Y-19702380D02*
X27464285Y-19702380D01*
X27750000Y-19702380D02*
X27750000Y-18702380D01*
X27654761Y-18845238D01*
X27559523Y-18940476D01*
X27464285Y-18988095D01*
X27083333Y-17107142D02*
X27035714Y-17154761D01*
X26892857Y-17202380D01*
X26797619Y-17202380D01*
X26654761Y-17154761D01*
X26559523Y-17059523D01*
X26511904Y-16964285D01*
X26464285Y-16773809D01*
X26464285Y-16630952D01*
X26511904Y-16440476D01*
X26559523Y-16345238D01*
X26654761Y-16250000D01*
X26797619Y-16202380D01*
X26892857Y-16202380D01*
X27035714Y-16250000D01*
X27083333Y-16297619D01*
X27702380Y-16202380D02*
X27797619Y-16202380D01*
X27892857Y-16250000D01*
X27940476Y-16297619D01*
X27988095Y-16392857D01*
X28035714Y-16583333D01*
X28035714Y-16821428D01*
X27988095Y-17011904D01*
X27940476Y-17107142D01*
X27892857Y-17154761D01*
X27797619Y-17202380D01*
X27702380Y-17202380D01*
X27607142Y-17154761D01*
X27559523Y-17107142D01*
X27511904Y-17011904D01*
X27464285Y-16821428D01*
X27464285Y-16583333D01*
X27511904Y-16392857D01*
X27559523Y-16297619D01*
X27607142Y-16250000D01*
X27702380Y-16202380D01*
X27083333Y-14702380D02*
X26750000Y-14226190D01*
X26511904Y-14702380D02*
X26511904Y-13702380D01*
X26892857Y-13702380D01*
X26988095Y-13750000D01*
X27035714Y-13797619D01*
X27083333Y-13892857D01*
X27083333Y-14035714D01*
X27035714Y-14130952D01*
X26988095Y-14178571D01*
X26892857Y-14226190D01*
X26511904Y-14226190D01*
X27702380Y-13702380D02*
X27797619Y-13702380D01*
X27892857Y-13750000D01*
X27940476Y-13797619D01*
X27988095Y-13892857D01*
X28035714Y-14083333D01*
X28035714Y-14321428D01*
X27988095Y-14511904D01*
X27940476Y-14607142D01*
X27892857Y-14654761D01*
X27797619Y-14702380D01*
X27702380Y-14702380D01*
X27607142Y-14654761D01*
X27559523Y-14607142D01*
X27511904Y-14511904D01*
X27464285Y-14321428D01*
X27464285Y-14083333D01*
X27511904Y-13892857D01*
X27559523Y-13797619D01*
X27607142Y-13750000D01*
X27702380Y-13702380D01*
X54071428Y-52952380D02*
X54642857Y-52952380D01*
X54357142Y-53952380D02*
X54357142Y-52952380D01*
X54833333Y-53047619D02*
X55023809Y-52904761D01*
X55214285Y-53047619D01*
X55452380Y-52952380D02*
X56071428Y-52952380D01*
X55738095Y-53333333D01*
X55880952Y-53333333D01*
X55976190Y-53380952D01*
X56023809Y-53428571D01*
X56071428Y-53523809D01*
X56071428Y-53761904D01*
X56023809Y-53857142D01*
X55976190Y-53904761D01*
X55880952Y-53952380D01*
X55595238Y-53952380D01*
X55499999Y-53904761D01*
X55452380Y-53857142D01*
X57261904Y-53571428D02*
X58023809Y-53571428D01*
X59119047Y-52952380D02*
X59690476Y-52952380D01*
X59404761Y-53952380D02*
X59404761Y-52952380D01*
X60023809Y-53952380D02*
X60023809Y-52952380D01*
X60452380Y-53952380D02*
X60452380Y-53428571D01*
X60404761Y-53333333D01*
X60309523Y-53285714D01*
X60166666Y-53285714D01*
X60071428Y-53333333D01*
X60023809Y-53380952D01*
X61309523Y-53904761D02*
X61214285Y-53952380D01*
X61023809Y-53952380D01*
X60928571Y-53904761D01*
X60880952Y-53809523D01*
X60880952Y-53428571D01*
X60928571Y-53333333D01*
X61023809Y-53285714D01*
X61214285Y-53285714D01*
X61309523Y-53333333D01*
X61357142Y-53428571D01*
X61357142Y-53523809D01*
X60880952Y-53619047D01*
X62404761Y-52952380D02*
X62976190Y-52952380D01*
X62690476Y-53952380D02*
X62690476Y-52952380D01*
X63690476Y-53904761D02*
X63595238Y-53952380D01*
X63404761Y-53952380D01*
X63309523Y-53904761D01*
X63261904Y-53809523D01*
X63261904Y-53428571D01*
X63309523Y-53333333D01*
X63404761Y-53285714D01*
X63595238Y-53285714D01*
X63690476Y-53333333D01*
X63738095Y-53428571D01*
X63738095Y-53523809D01*
X63261904Y-53619047D01*
X64166666Y-53952380D02*
X64166666Y-53285714D01*
X64166666Y-52952380D02*
X64119047Y-53000000D01*
X64166666Y-53047619D01*
X64214285Y-53000000D01*
X64166666Y-52952380D01*
X64166666Y-53047619D01*
X64642857Y-53952380D02*
X64642857Y-52952380D01*
X65071428Y-53952380D02*
X65071428Y-53428571D01*
X65023809Y-53333333D01*
X64928571Y-53285714D01*
X64785714Y-53285714D01*
X64690476Y-53333333D01*
X64642857Y-53380952D01*
X65928571Y-53904761D02*
X65833333Y-53952380D01*
X65642857Y-53952380D01*
X65547619Y-53904761D01*
X65499999Y-53809523D01*
X65499999Y-53428571D01*
X65547619Y-53333333D01*
X65642857Y-53285714D01*
X65833333Y-53285714D01*
X65928571Y-53333333D01*
X65976190Y-53428571D01*
X65976190Y-53523809D01*
X65499999Y-53619047D01*
X66404761Y-53285714D02*
X66404761Y-53952380D01*
X66404761Y-53380952D02*
X66452380Y-53333333D01*
X66547619Y-53285714D01*
X66690476Y-53285714D01*
X66785714Y-53333333D01*
X66833333Y-53428571D01*
X66833333Y-53952380D01*
X67928571Y-52952380D02*
X68499999Y-52952380D01*
X68214285Y-53952380D02*
X68214285Y-52952380D01*
X69261904Y-53952380D02*
X69261904Y-53428571D01*
X69214285Y-53333333D01*
X69119047Y-53285714D01*
X68928571Y-53285714D01*
X68833333Y-53333333D01*
X69261904Y-53904761D02*
X69166666Y-53952380D01*
X68928571Y-53952380D01*
X68833333Y-53904761D01*
X68785714Y-53809523D01*
X68785714Y-53714285D01*
X68833333Y-53619047D01*
X68928571Y-53571428D01*
X69166666Y-53571428D01*
X69261904Y-53523809D01*
X69690476Y-53904761D02*
X69785714Y-53952380D01*
X69976190Y-53952380D01*
X70071428Y-53904761D01*
X70119047Y-53809523D01*
X70119047Y-53761904D01*
X70071428Y-53666666D01*
X69976190Y-53619047D01*
X69833333Y-53619047D01*
X69738095Y-53571428D01*
X69690476Y-53476190D01*
X69690476Y-53428571D01*
X69738095Y-53333333D01*
X69833333Y-53285714D01*
X69976190Y-53285714D01*
X70071428Y-53333333D01*
X70404761Y-53285714D02*
X70785714Y-53285714D01*
X70547619Y-52952380D02*
X70547619Y-53809523D01*
X70595238Y-53904761D01*
X70690476Y-53952380D01*
X70785714Y-53952380D01*
X71547619Y-53952380D02*
X71547619Y-53428571D01*
X71500000Y-53333333D01*
X71404761Y-53285714D01*
X71214285Y-53285714D01*
X71119047Y-53333333D01*
X71547619Y-53904761D02*
X71452380Y-53952380D01*
X71214285Y-53952380D01*
X71119047Y-53904761D01*
X71071428Y-53809523D01*
X71071428Y-53714285D01*
X71119047Y-53619047D01*
X71214285Y-53571428D01*
X71452380Y-53571428D01*
X71547619Y-53523809D01*
X71880952Y-53285714D02*
X72261904Y-53285714D01*
X72023809Y-52952380D02*
X72023809Y-53809523D01*
X72071428Y-53904761D01*
X72166666Y-53952380D01*
X72261904Y-53952380D01*
X73023809Y-53285714D02*
X73023809Y-53952380D01*
X72595238Y-53285714D02*
X72595238Y-53809523D01*
X72642857Y-53904761D01*
X72738095Y-53952380D01*
X72880952Y-53952380D01*
X72976190Y-53904761D01*
X73023809Y-53857142D01*
X73499999Y-53952380D02*
X73499999Y-53285714D01*
X73499999Y-53476190D02*
X73547619Y-53380952D01*
X73595238Y-53333333D01*
X73690476Y-53285714D01*
X73785714Y-53285714D01*
X75595238Y-52904761D02*
X74738095Y-54190476D01*
X76547619Y-52952380D02*
X77119047Y-52952380D01*
X76833333Y-53952380D02*
X76833333Y-52952380D01*
X77452380Y-53428571D02*
X77785714Y-53428571D01*
X77928571Y-53952380D02*
X77452380Y-53952380D01*
X77452380Y-52952380D01*
X77928571Y-52952380D01*
X78357142Y-53952380D02*
X78357142Y-52952380D01*
X78785714Y-53904761D02*
X78928571Y-53952380D01*
X79166666Y-53952380D01*
X79261904Y-53904761D01*
X79309523Y-53857142D01*
X79357142Y-53761904D01*
X79357142Y-53666666D01*
X79309523Y-53571428D01*
X79261904Y-53523809D01*
X79166666Y-53476190D01*
X78976190Y-53428571D01*
X78880952Y-53380952D01*
X78833333Y-53333333D01*
X78785714Y-53238095D01*
X78785714Y-53142857D01*
X78833333Y-53047619D01*
X78880952Y-53000000D01*
X78976190Y-52952380D01*
X79214285Y-52952380D01*
X79357142Y-53000000D01*
X79785714Y-53952380D02*
X79785714Y-52952380D01*
X79785714Y-53428571D02*
X80357142Y-53428571D01*
X80357142Y-53952380D02*
X80357142Y-52952380D01*
X80833333Y-53952380D02*
X80833333Y-52952380D01*
X82071428Y-53952380D02*
X82071428Y-53285714D01*
X82071428Y-53476190D02*
X82119047Y-53380952D01*
X82166666Y-53333333D01*
X82261904Y-53285714D01*
X82357142Y-53285714D01*
X83071428Y-53904761D02*
X82976190Y-53952380D01*
X82785714Y-53952380D01*
X82690476Y-53904761D01*
X82642857Y-53809523D01*
X82642857Y-53428571D01*
X82690476Y-53333333D01*
X82785714Y-53285714D01*
X82976190Y-53285714D01*
X83071428Y-53333333D01*
X83119047Y-53428571D01*
X83119047Y-53523809D01*
X82642857Y-53619047D01*
X83452380Y-53285714D02*
X83690476Y-53952380D01*
X83928571Y-53285714D01*
X84499999Y-52952380D02*
X84595238Y-52952380D01*
X84690476Y-53000000D01*
X84738095Y-53047619D01*
X84785714Y-53142857D01*
X84833333Y-53333333D01*
X84833333Y-53571428D01*
X84785714Y-53761904D01*
X84738095Y-53857142D01*
X84690476Y-53904761D01*
X84595238Y-53952380D01*
X84499999Y-53952380D01*
X84404761Y-53904761D01*
X84357142Y-53857142D01*
X84309523Y-53761904D01*
X84261904Y-53571428D01*
X84261904Y-53333333D01*
X84309523Y-53142857D01*
X84357142Y-53047619D01*
X84404761Y-53000000D01*
X84499999Y-52952380D01*
D11*
X10650000Y-2760000D02*
X8110000Y-2760000D01*
X8110000Y-220000D02*
X8110000Y-2760000D01*
X25890000Y-220000D02*
X8110000Y-220000D01*
X25890000Y-2760000D02*
X25890000Y-220000D01*
D10*
G36*
X21931568Y-9239360D02*
G01*
X21931568Y-9439360D01*
X21831568Y-9439360D01*
X21831568Y-9239360D01*
X21931568Y-9239360D01*
G37*
X21931568Y-9239360D02*
X21931568Y-9439360D01*
X21831568Y-9439360D01*
X21831568Y-9239360D01*
X21931568Y-9239360D01*
G36*
X21531568Y-8639360D02*
G01*
X21531568Y-9439360D01*
X21431568Y-9439360D01*
X21431568Y-8639360D01*
X21531568Y-8639360D01*
G37*
X21531568Y-8639360D02*
X21531568Y-9439360D01*
X21431568Y-9439360D01*
X21431568Y-8639360D01*
X21531568Y-8639360D01*
G36*
X21931568Y-8639360D02*
G01*
X21931568Y-8739360D01*
X21431568Y-8739360D01*
X21431568Y-8639360D01*
X21931568Y-8639360D01*
G37*
X21931568Y-8639360D02*
X21931568Y-8739360D01*
X21431568Y-8739360D01*
X21431568Y-8639360D01*
X21931568Y-8639360D01*
G36*
X21731568Y-9039360D02*
G01*
X21731568Y-9139360D01*
X21631568Y-9139360D01*
X21631568Y-9039360D01*
X21731568Y-9039360D01*
G37*
X21731568Y-9039360D02*
X21731568Y-9139360D01*
X21631568Y-9139360D01*
X21631568Y-9039360D01*
X21731568Y-9039360D01*
G36*
X21931568Y-8639360D02*
G01*
X21931568Y-8939360D01*
X21831568Y-8939360D01*
X21831568Y-8639360D01*
X21931568Y-8639360D01*
G37*
X21931568Y-8639360D02*
X21931568Y-8939360D01*
X21831568Y-8939360D01*
X21831568Y-8639360D01*
X21931568Y-8639360D01*
D11*
X10650000Y-5300000D02*
X8110000Y-5300000D01*
X10650000Y-2760000D02*
X10650000Y-5300000D01*
X25890000Y-33240000D02*
X25890000Y-2760000D01*
X8110000Y-33240000D02*
X25890000Y-33240000D01*
X8110000Y-2760000D02*
X8110000Y-33240000D01*
D10*
X42700000Y-7750000D02*
X42700000Y-6250000D01*
X37300000Y-7750000D02*
X42700000Y-7750000D01*
X37300000Y-6250000D02*
X37300000Y-7750000D01*
X42700000Y-6250000D02*
X37300000Y-6250000D01*
X39500000Y-6500000D02*
X39500000Y-7500000D01*
X40500000Y-7500000D02*
X39600000Y-7000000D01*
X40500000Y-6500000D02*
X40500000Y-7500000D01*
X39600000Y-7000000D02*
X40500000Y-6500000D01*
X81700000Y-51750000D02*
X81700000Y-50250000D01*
X76300000Y-51750000D02*
X81700000Y-51750000D01*
X76300000Y-50250000D02*
X76300000Y-51750000D01*
X81700000Y-50250000D02*
X76300000Y-50250000D01*
X78500000Y-50500000D02*
X78500000Y-51500000D01*
X79500000Y-51500000D02*
X78600000Y-51000000D01*
X79500000Y-50500000D02*
X79500000Y-51500000D01*
X78600000Y-51000000D02*
X79500000Y-50500000D01*
X62200000Y-7750000D02*
X62200000Y-6250000D01*
X56800000Y-7750000D02*
X62200000Y-7750000D01*
X56800000Y-6250000D02*
X56800000Y-7750000D01*
X62200000Y-6250000D02*
X56800000Y-6250000D01*
X59000000Y-6500000D02*
X59000000Y-7500000D01*
X60000000Y-7500000D02*
X59100000Y-7000000D01*
X60000000Y-6500000D02*
X60000000Y-7500000D01*
X59100000Y-7000000D02*
X60000000Y-6500000D01*
X81700000Y-7750000D02*
X81700000Y-6250000D01*
X76300000Y-7750000D02*
X81700000Y-7750000D01*
X76300000Y-6250000D02*
X76300000Y-7750000D01*
X81700000Y-6250000D02*
X76300000Y-6250000D01*
X78500000Y-6500000D02*
X78500000Y-7500000D01*
X79500000Y-7500000D02*
X78600000Y-7000000D01*
X79500000Y-6500000D02*
X79500000Y-7500000D01*
X78600000Y-7000000D02*
X79500000Y-6500000D01*
X52700000Y-51750000D02*
X52700000Y-50250000D01*
X47300000Y-51750000D02*
X52700000Y-51750000D01*
X47300000Y-50250000D02*
X47300000Y-51750000D01*
X52700000Y-50250000D02*
X47300000Y-50250000D01*
X49500000Y-50500000D02*
X49500000Y-51500000D01*
X50500000Y-51500000D02*
X49600000Y-51000000D01*
X50500000Y-50500000D02*
X50500000Y-51500000D01*
X49600000Y-51000000D02*
X50500000Y-50500000D01*
X32560000Y-23580000D02*
X32560000Y-25580000D01*
X32560000Y-11580000D02*
X32560000Y-13580000D01*
X32960000Y-11580000D02*
X32960000Y-13580000D01*
X46960000Y-23580000D02*
X46960000Y-25580000D01*
X47360000Y-23580000D02*
X47360000Y-25580000D01*
X32960000Y-23580000D02*
X32960000Y-25580000D01*
X47360000Y-25580000D02*
X44960000Y-25580000D01*
X46960000Y-13580000D02*
X46960000Y-11580000D01*
X47360000Y-13580000D02*
X47360000Y-11580000D01*
X34960000Y-11580000D02*
X32560000Y-11580000D01*
X32560000Y-25580000D02*
X34960000Y-25580000D01*
X47360000Y-11580000D02*
X44960000Y-11580000D01*
X71560000Y-43080000D02*
X71560000Y-45080000D01*
X71560000Y-31080000D02*
X71560000Y-33080000D01*
X71960000Y-31080000D02*
X71960000Y-33080000D01*
X85960000Y-43080000D02*
X85960000Y-45080000D01*
X86360000Y-43080000D02*
X86360000Y-45080000D01*
X71960000Y-43080000D02*
X71960000Y-45080000D01*
X86360000Y-45080000D02*
X83960000Y-45080000D01*
X85960000Y-33080000D02*
X85960000Y-31080000D01*
X86360000Y-33080000D02*
X86360000Y-31080000D01*
X73960000Y-31080000D02*
X71560000Y-31080000D01*
X71560000Y-45080000D02*
X73960000Y-45080000D01*
X86360000Y-31080000D02*
X83960000Y-31080000D01*
X52060000Y-23580000D02*
X52060000Y-25580000D01*
X52060000Y-11580000D02*
X52060000Y-13580000D01*
X52460000Y-11580000D02*
X52460000Y-13580000D01*
X66460000Y-23580000D02*
X66460000Y-25580000D01*
X66860000Y-23580000D02*
X66860000Y-25580000D01*
X52460000Y-23580000D02*
X52460000Y-25580000D01*
X66860000Y-25580000D02*
X64460000Y-25580000D01*
X66460000Y-13580000D02*
X66460000Y-11580000D01*
X66860000Y-13580000D02*
X66860000Y-11580000D01*
X54460000Y-11580000D02*
X52060000Y-11580000D01*
X52060000Y-25580000D02*
X54460000Y-25580000D01*
X66860000Y-11580000D02*
X64460000Y-11580000D01*
X71560000Y-23580000D02*
X71560000Y-25580000D01*
X71560000Y-11580000D02*
X71560000Y-13580000D01*
X71960000Y-11580000D02*
X71960000Y-13580000D01*
X85960000Y-23580000D02*
X85960000Y-25580000D01*
X86360000Y-23580000D02*
X86360000Y-25580000D01*
X71960000Y-23580000D02*
X71960000Y-25580000D01*
X86360000Y-25580000D02*
X83960000Y-25580000D01*
X85960000Y-13580000D02*
X85960000Y-11580000D01*
X86360000Y-13580000D02*
X86360000Y-11580000D01*
X73960000Y-11580000D02*
X71560000Y-11580000D01*
X71560000Y-25580000D02*
X73960000Y-25580000D01*
X86360000Y-11580000D02*
X83960000Y-11580000D01*
D11*
X43400000Y-33528000D02*
X43400000Y-31750000D01*
X43400000Y-44450000D02*
X43400000Y-42672000D01*
X45178000Y-44450000D02*
X43400000Y-44450000D01*
X56100000Y-44450000D02*
X54322000Y-44450000D01*
X56100000Y-42672000D02*
X56100000Y-44450000D01*
X56100000Y-31750000D02*
X56100000Y-33528000D01*
X54322000Y-31750000D02*
X56100000Y-31750000D01*
X43400000Y-31750000D02*
X45178000Y-31750000D01*
D10*
X14000000Y-38250000D02*
X14000000Y-38500000D01*
X8000000Y-38250000D02*
X14000000Y-38250000D01*
X8000000Y-38250000D02*
X8000000Y-38500000D01*
X8000000Y-41750000D02*
X8000000Y-41500000D01*
X14000000Y-41750000D02*
X14000000Y-41500000D01*
X8000000Y-41750000D02*
X14000000Y-41750000D01*
X11237651Y-3591904D02*
X11694794Y-3591904D01*
X11466223Y-4391904D02*
X11466223Y-3591904D01*
X11885270Y-3591904D02*
X12418604Y-4391904D01*
X12418604Y-3591904D02*
X11885270Y-4391904D01*
X12875747Y-3591904D02*
X12951937Y-3591904D01*
X13028128Y-3630000D01*
X13066223Y-3668095D01*
X13104318Y-3744285D01*
X13142413Y-3896666D01*
X13142413Y-4087142D01*
X13104318Y-4239523D01*
X13066223Y-4315714D01*
X13028128Y-4353809D01*
X12951937Y-4391904D01*
X12875747Y-4391904D01*
X12799556Y-4353809D01*
X12761461Y-4315714D01*
X12723366Y-4239523D01*
X12685270Y-4087142D01*
X12685270Y-3896666D01*
X12723366Y-3744285D01*
X12761461Y-3668095D01*
X12799556Y-3630000D01*
X12875747Y-3591904D01*
X14056699Y-3553809D02*
X13370985Y-4582380D01*
X14323366Y-4391904D02*
X14323366Y-3591904D01*
X14513842Y-3591904D01*
X14628128Y-3630000D01*
X14704318Y-3706190D01*
X14742413Y-3782380D01*
X14780508Y-3934761D01*
X14780508Y-4049047D01*
X14742413Y-4201428D01*
X14704318Y-4277619D01*
X14628128Y-4353809D01*
X14513842Y-4391904D01*
X14323366Y-4391904D01*
X15047175Y-3591904D02*
X15542413Y-3591904D01*
X15275747Y-3896666D01*
X15390032Y-3896666D01*
X15466223Y-3934761D01*
X15504318Y-3972857D01*
X15542413Y-4049047D01*
X15542413Y-4239523D01*
X15504318Y-4315714D01*
X15466223Y-4353809D01*
X15390032Y-4391904D01*
X15161461Y-4391904D01*
X15085270Y-4353809D01*
X15047175Y-4315714D01*
X10948523Y-6931904D02*
X10948523Y-6131904D01*
X11139000Y-6131904D01*
X11253285Y-6170000D01*
X11329476Y-6246190D01*
X11367571Y-6322380D01*
X11405666Y-6474761D01*
X11405666Y-6589047D01*
X11367571Y-6741428D01*
X11329476Y-6817619D01*
X11253285Y-6893809D01*
X11139000Y-6931904D01*
X10948523Y-6931904D01*
X11710428Y-6208095D02*
X11748523Y-6170000D01*
X11824714Y-6131904D01*
X12015190Y-6131904D01*
X12091380Y-6170000D01*
X12129476Y-6208095D01*
X12167571Y-6284285D01*
X12167571Y-6360476D01*
X12129476Y-6474761D01*
X11672333Y-6931904D01*
X12167571Y-6931904D01*
X10948523Y-17091904D02*
X10948523Y-16291904D01*
X11139000Y-16291904D01*
X11253285Y-16330000D01*
X11329476Y-16406190D01*
X11367571Y-16482380D01*
X11405666Y-16634761D01*
X11405666Y-16749047D01*
X11367571Y-16901428D01*
X11329476Y-16977619D01*
X11253285Y-17053809D01*
X11139000Y-17091904D01*
X10948523Y-17091904D01*
X11900904Y-16291904D02*
X11977095Y-16291904D01*
X12053285Y-16330000D01*
X12091380Y-16368095D01*
X12129476Y-16444285D01*
X12167571Y-16596666D01*
X12167571Y-16787142D01*
X12129476Y-16939523D01*
X12091380Y-17015714D01*
X12053285Y-17053809D01*
X11977095Y-17091904D01*
X11900904Y-17091904D01*
X11824714Y-17053809D01*
X11786619Y-17015714D01*
X11748523Y-16939523D01*
X11710428Y-16787142D01*
X11710428Y-16596666D01*
X11748523Y-16444285D01*
X11786619Y-16368095D01*
X11824714Y-16330000D01*
X11900904Y-16291904D01*
X10948523Y-14551904D02*
X10948523Y-13751904D01*
X11139000Y-13751904D01*
X11253285Y-13790000D01*
X11329476Y-13866190D01*
X11367571Y-13942380D01*
X11405666Y-14094761D01*
X11405666Y-14209047D01*
X11367571Y-14361428D01*
X11329476Y-14437619D01*
X11253285Y-14513809D01*
X11139000Y-14551904D01*
X10948523Y-14551904D01*
X12167571Y-14551904D02*
X11710428Y-14551904D01*
X11939000Y-14551904D02*
X11939000Y-13751904D01*
X11862809Y-13866190D01*
X11786619Y-13942380D01*
X11710428Y-13980476D01*
X10929476Y-11250000D02*
X10853285Y-11211904D01*
X10739000Y-11211904D01*
X10624714Y-11250000D01*
X10548523Y-11326190D01*
X10510428Y-11402380D01*
X10472333Y-11554761D01*
X10472333Y-11669047D01*
X10510428Y-11821428D01*
X10548523Y-11897619D01*
X10624714Y-11973809D01*
X10739000Y-12011904D01*
X10815190Y-12011904D01*
X10929476Y-11973809D01*
X10967571Y-11935714D01*
X10967571Y-11669047D01*
X10815190Y-11669047D01*
X11310428Y-12011904D02*
X11310428Y-11211904D01*
X11767571Y-12011904D01*
X11767571Y-11211904D01*
X12148523Y-12011904D02*
X12148523Y-11211904D01*
X12339000Y-11211904D01*
X12453285Y-11250000D01*
X12529476Y-11326190D01*
X12567571Y-11402380D01*
X12605666Y-11554761D01*
X12605666Y-11669047D01*
X12567571Y-11821428D01*
X12529476Y-11897619D01*
X12453285Y-11973809D01*
X12339000Y-12011904D01*
X12148523Y-12011904D01*
X10929476Y-8710000D02*
X10853285Y-8671904D01*
X10739000Y-8671904D01*
X10624714Y-8710000D01*
X10548523Y-8786190D01*
X10510428Y-8862380D01*
X10472333Y-9014761D01*
X10472333Y-9129047D01*
X10510428Y-9281428D01*
X10548523Y-9357619D01*
X10624714Y-9433809D01*
X10739000Y-9471904D01*
X10815190Y-9471904D01*
X10929476Y-9433809D01*
X10967571Y-9395714D01*
X10967571Y-9129047D01*
X10815190Y-9129047D01*
X11310428Y-9471904D02*
X11310428Y-8671904D01*
X11767571Y-9471904D01*
X11767571Y-8671904D01*
X12148523Y-9471904D02*
X12148523Y-8671904D01*
X12339000Y-8671904D01*
X12453285Y-8710000D01*
X12529476Y-8786190D01*
X12567571Y-8862380D01*
X12605666Y-9014761D01*
X12605666Y-9129047D01*
X12567571Y-9281428D01*
X12529476Y-9357619D01*
X12453285Y-9433809D01*
X12339000Y-9471904D01*
X12148523Y-9471904D01*
X10948523Y-19631904D02*
X10948523Y-18831904D01*
X11139000Y-18831904D01*
X11253285Y-18870000D01*
X11329476Y-18946190D01*
X11367571Y-19022380D01*
X11405666Y-19174761D01*
X11405666Y-19289047D01*
X11367571Y-19441428D01*
X11329476Y-19517619D01*
X11253285Y-19593809D01*
X11139000Y-19631904D01*
X10948523Y-19631904D01*
X12091380Y-19098571D02*
X12091380Y-19631904D01*
X11900904Y-18793809D02*
X11710428Y-19365238D01*
X12205666Y-19365238D01*
X11405666Y-22095714D02*
X11367571Y-22133809D01*
X11253285Y-22171904D01*
X11177095Y-22171904D01*
X11062809Y-22133809D01*
X10986619Y-22057619D01*
X10948523Y-21981428D01*
X10910428Y-21829047D01*
X10910428Y-21714761D01*
X10948523Y-21562380D01*
X10986619Y-21486190D01*
X11062809Y-21410000D01*
X11177095Y-21371904D01*
X11253285Y-21371904D01*
X11367571Y-21410000D01*
X11405666Y-21448095D01*
X12091380Y-21371904D02*
X11939000Y-21371904D01*
X11862809Y-21410000D01*
X11824714Y-21448095D01*
X11748523Y-21562380D01*
X11710428Y-21714761D01*
X11710428Y-22019523D01*
X11748523Y-22095714D01*
X11786619Y-22133809D01*
X11862809Y-22171904D01*
X12015190Y-22171904D01*
X12091380Y-22133809D01*
X12129476Y-22095714D01*
X12167571Y-22019523D01*
X12167571Y-21829047D01*
X12129476Y-21752857D01*
X12091380Y-21714761D01*
X12015190Y-21676666D01*
X11862809Y-21676666D01*
X11786619Y-21714761D01*
X11748523Y-21752857D01*
X11710428Y-21829047D01*
X10948523Y-24711904D02*
X10948523Y-23911904D01*
X11139000Y-23911904D01*
X11253285Y-23950000D01*
X11329476Y-24026190D01*
X11367571Y-24102380D01*
X11405666Y-24254761D01*
X11405666Y-24369047D01*
X11367571Y-24521428D01*
X11329476Y-24597619D01*
X11253285Y-24673809D01*
X11139000Y-24711904D01*
X10948523Y-24711904D01*
X11672333Y-23911904D02*
X12205666Y-23911904D01*
X11862809Y-24711904D01*
X10986619Y-26832857D02*
X11253285Y-26832857D01*
X11367571Y-27251904D02*
X10986619Y-27251904D01*
X10986619Y-26451904D01*
X11367571Y-26451904D01*
X12053285Y-26451904D02*
X11900904Y-26451904D01*
X11824714Y-26490000D01*
X11786619Y-26528095D01*
X11710428Y-26642380D01*
X11672333Y-26794761D01*
X11672333Y-27099523D01*
X11710428Y-27175714D01*
X11748523Y-27213809D01*
X11824714Y-27251904D01*
X11977095Y-27251904D01*
X12053285Y-27213809D01*
X12091380Y-27175714D01*
X12129476Y-27099523D01*
X12129476Y-26909047D01*
X12091380Y-26832857D01*
X12053285Y-26794761D01*
X11977095Y-26756666D01*
X11824714Y-26756666D01*
X11748523Y-26794761D01*
X11710428Y-26832857D01*
X11672333Y-26909047D01*
X11215190Y-29372857D02*
X11329476Y-29410952D01*
X11367571Y-29449047D01*
X11405666Y-29525238D01*
X11405666Y-29639523D01*
X11367571Y-29715714D01*
X11329476Y-29753809D01*
X11253285Y-29791904D01*
X10948523Y-29791904D01*
X10948523Y-28991904D01*
X11215190Y-28991904D01*
X11291380Y-29030000D01*
X11329476Y-29068095D01*
X11367571Y-29144285D01*
X11367571Y-29220476D01*
X11329476Y-29296666D01*
X11291380Y-29334761D01*
X11215190Y-29372857D01*
X10948523Y-29372857D01*
X12091380Y-29258571D02*
X12091380Y-29791904D01*
X11900904Y-28953809D02*
X11710428Y-29525238D01*
X12205666Y-29525238D01*
X11215190Y-31912857D02*
X11329476Y-31950952D01*
X11367571Y-31989047D01*
X11405666Y-32065238D01*
X11405666Y-32179523D01*
X11367571Y-32255714D01*
X11329476Y-32293809D01*
X11253285Y-32331904D01*
X10948523Y-32331904D01*
X10948523Y-31531904D01*
X11215190Y-31531904D01*
X11291380Y-31570000D01*
X11329476Y-31608095D01*
X11367571Y-31684285D01*
X11367571Y-31760476D01*
X11329476Y-31836666D01*
X11291380Y-31874761D01*
X11215190Y-31912857D01*
X10948523Y-31912857D01*
X12129476Y-31531904D02*
X11748523Y-31531904D01*
X11710428Y-31912857D01*
X11748523Y-31874761D01*
X11824714Y-31836666D01*
X12015190Y-31836666D01*
X12091380Y-31874761D01*
X12129476Y-31912857D01*
X12167571Y-31989047D01*
X12167571Y-32179523D01*
X12129476Y-32255714D01*
X12091380Y-32293809D01*
X12015190Y-32331904D01*
X11824714Y-32331904D01*
X11748523Y-32293809D01*
X11710428Y-32255714D01*
X22137190Y-31912857D02*
X22251476Y-31950952D01*
X22289571Y-31989047D01*
X22327666Y-32065238D01*
X22327666Y-32179523D01*
X22289571Y-32255714D01*
X22251476Y-32293809D01*
X22175285Y-32331904D01*
X21870523Y-32331904D01*
X21870523Y-31531904D01*
X22137190Y-31531904D01*
X22213380Y-31570000D01*
X22251476Y-31608095D01*
X22289571Y-31684285D01*
X22289571Y-31760476D01*
X22251476Y-31836666D01*
X22213380Y-31874761D01*
X22137190Y-31912857D01*
X21870523Y-31912857D01*
X23013380Y-31531904D02*
X22861000Y-31531904D01*
X22784809Y-31570000D01*
X22746714Y-31608095D01*
X22670523Y-31722380D01*
X22632428Y-31874761D01*
X22632428Y-32179523D01*
X22670523Y-32255714D01*
X22708619Y-32293809D01*
X22784809Y-32331904D01*
X22937190Y-32331904D01*
X23013380Y-32293809D01*
X23051476Y-32255714D01*
X23089571Y-32179523D01*
X23089571Y-31989047D01*
X23051476Y-31912857D01*
X23013380Y-31874761D01*
X22937190Y-31836666D01*
X22784809Y-31836666D01*
X22708619Y-31874761D01*
X22670523Y-31912857D01*
X22632428Y-31989047D01*
X22137190Y-26832857D02*
X22251476Y-26870952D01*
X22289571Y-26909047D01*
X22327666Y-26985238D01*
X22327666Y-27099523D01*
X22289571Y-27175714D01*
X22251476Y-27213809D01*
X22175285Y-27251904D01*
X21870523Y-27251904D01*
X21870523Y-26451904D01*
X22137190Y-26451904D01*
X22213380Y-26490000D01*
X22251476Y-26528095D01*
X22289571Y-26604285D01*
X22289571Y-26680476D01*
X22251476Y-26756666D01*
X22213380Y-26794761D01*
X22137190Y-26832857D01*
X21870523Y-26832857D01*
X22594333Y-26451904D02*
X23089571Y-26451904D01*
X22822904Y-26756666D01*
X22937190Y-26756666D01*
X23013380Y-26794761D01*
X23051476Y-26832857D01*
X23089571Y-26909047D01*
X23089571Y-27099523D01*
X23051476Y-27175714D01*
X23013380Y-27213809D01*
X22937190Y-27251904D01*
X22708619Y-27251904D01*
X22632428Y-27213809D01*
X22594333Y-27175714D01*
X22137190Y-24292857D02*
X22251476Y-24330952D01*
X22289571Y-24369047D01*
X22327666Y-24445238D01*
X22327666Y-24559523D01*
X22289571Y-24635714D01*
X22251476Y-24673809D01*
X22175285Y-24711904D01*
X21870523Y-24711904D01*
X21870523Y-23911904D01*
X22137190Y-23911904D01*
X22213380Y-23950000D01*
X22251476Y-23988095D01*
X22289571Y-24064285D01*
X22289571Y-24140476D01*
X22251476Y-24216666D01*
X22213380Y-24254761D01*
X22137190Y-24292857D01*
X21870523Y-24292857D01*
X23089571Y-24711904D02*
X22632428Y-24711904D01*
X22861000Y-24711904D02*
X22861000Y-23911904D01*
X22784809Y-24026190D01*
X22708619Y-24102380D01*
X22632428Y-24140476D01*
X22194333Y-14132857D02*
X21927666Y-14132857D01*
X21927666Y-14551904D02*
X21927666Y-13751904D01*
X22308619Y-13751904D01*
X22956238Y-14018571D02*
X22956238Y-14551904D01*
X22765761Y-13713809D02*
X22575285Y-14285238D01*
X23070523Y-14285238D01*
X21394333Y-11211904D02*
X21661000Y-12011904D01*
X21927666Y-11211904D01*
X22651476Y-11935714D02*
X22613380Y-11973809D01*
X22499095Y-12011904D01*
X22422904Y-12011904D01*
X22308619Y-11973809D01*
X22232428Y-11897619D01*
X22194333Y-11821428D01*
X22156238Y-11669047D01*
X22156238Y-11554761D01*
X22194333Y-11402380D01*
X22232428Y-11326190D01*
X22308619Y-11250000D01*
X22422904Y-11211904D01*
X22499095Y-11211904D01*
X22613380Y-11250000D01*
X22651476Y-11288095D01*
X23451476Y-11935714D02*
X23413380Y-11973809D01*
X23299095Y-12011904D01*
X23222904Y-12011904D01*
X23108619Y-11973809D01*
X23032428Y-11897619D01*
X22994333Y-11821428D01*
X22956238Y-11669047D01*
X22956238Y-11554761D01*
X22994333Y-11402380D01*
X23032428Y-11326190D01*
X23108619Y-11250000D01*
X23222904Y-11211904D01*
X23299095Y-11211904D01*
X23413380Y-11250000D01*
X23451476Y-11288095D01*
X22199786Y-9403809D02*
X22314072Y-9441904D01*
X22504548Y-9441904D01*
X22580739Y-9403809D01*
X22618834Y-9365714D01*
X22656929Y-9289523D01*
X22656929Y-9213333D01*
X22618834Y-9137142D01*
X22580739Y-9099047D01*
X22504548Y-9060952D01*
X22352167Y-9022857D01*
X22275977Y-8984761D01*
X22237881Y-8946666D01*
X22199786Y-8870476D01*
X22199786Y-8794285D01*
X22237881Y-8718095D01*
X22275977Y-8680000D01*
X22352167Y-8641904D01*
X22542643Y-8641904D01*
X22656929Y-8680000D01*
X22885500Y-8641904D02*
X23342643Y-8641904D01*
X23114072Y-9441904D02*
X23114072Y-8641904D01*
X21851476Y-6170000D02*
X21775285Y-6131904D01*
X21661000Y-6131904D01*
X21546714Y-6170000D01*
X21470523Y-6246190D01*
X21432428Y-6322380D01*
X21394333Y-6474761D01*
X21394333Y-6589047D01*
X21432428Y-6741428D01*
X21470523Y-6817619D01*
X21546714Y-6893809D01*
X21661000Y-6931904D01*
X21737190Y-6931904D01*
X21851476Y-6893809D01*
X21889571Y-6855714D01*
X21889571Y-6589047D01*
X21737190Y-6589047D01*
X22232428Y-6931904D02*
X22232428Y-6131904D01*
X22689571Y-6931904D01*
X22689571Y-6131904D01*
X23070523Y-6931904D02*
X23070523Y-6131904D01*
X23261000Y-6131904D01*
X23375285Y-6170000D01*
X23451476Y-6246190D01*
X23489571Y-6322380D01*
X23527666Y-6474761D01*
X23527666Y-6589047D01*
X23489571Y-6741428D01*
X23451476Y-6817619D01*
X23375285Y-6893809D01*
X23261000Y-6931904D01*
X23070523Y-6931904D01*
X21908619Y-4391904D02*
X21641952Y-4010952D01*
X21451476Y-4391904D02*
X21451476Y-3591904D01*
X21756238Y-3591904D01*
X21832428Y-3630000D01*
X21870523Y-3668095D01*
X21908619Y-3744285D01*
X21908619Y-3858571D01*
X21870523Y-3934761D01*
X21832428Y-3972857D01*
X21756238Y-4010952D01*
X21451476Y-4010952D01*
X22213380Y-4163333D02*
X22594333Y-4163333D01*
X22137190Y-4391904D02*
X22403857Y-3591904D01*
X22670523Y-4391904D01*
X22861000Y-3591904D02*
X23051476Y-4391904D01*
X23203857Y-3820476D01*
X23356238Y-4391904D01*
X23546714Y-3591904D01*
X22194333Y-16672857D02*
X21927666Y-16672857D01*
X21927666Y-17091904D02*
X21927666Y-16291904D01*
X22308619Y-16291904D01*
X22994333Y-16291904D02*
X22613380Y-16291904D01*
X22575285Y-16672857D01*
X22613380Y-16634761D01*
X22689571Y-16596666D01*
X22880047Y-16596666D01*
X22956238Y-16634761D01*
X22994333Y-16672857D01*
X23032428Y-16749047D01*
X23032428Y-16939523D01*
X22994333Y-17015714D01*
X22956238Y-17053809D01*
X22880047Y-17091904D01*
X22689571Y-17091904D01*
X22613380Y-17053809D01*
X22575285Y-17015714D01*
X22194333Y-19212857D02*
X21927666Y-19212857D01*
X21927666Y-19631904D02*
X21927666Y-18831904D01*
X22308619Y-18831904D01*
X22956238Y-18831904D02*
X22803857Y-18831904D01*
X22727666Y-18870000D01*
X22689571Y-18908095D01*
X22613380Y-19022380D01*
X22575285Y-19174761D01*
X22575285Y-19479523D01*
X22613380Y-19555714D01*
X22651476Y-19593809D01*
X22727666Y-19631904D01*
X22880047Y-19631904D01*
X22956238Y-19593809D01*
X22994333Y-19555714D01*
X23032428Y-19479523D01*
X23032428Y-19289047D01*
X22994333Y-19212857D01*
X22956238Y-19174761D01*
X22880047Y-19136666D01*
X22727666Y-19136666D01*
X22651476Y-19174761D01*
X22613380Y-19212857D01*
X22575285Y-19289047D01*
X22194333Y-21752857D02*
X21927666Y-21752857D01*
X21927666Y-22171904D02*
X21927666Y-21371904D01*
X22308619Y-21371904D01*
X22537190Y-21371904D02*
X23070523Y-21371904D01*
X22727666Y-22171904D01*
X22137190Y-29372857D02*
X22251476Y-29410952D01*
X22289571Y-29449047D01*
X22327666Y-29525238D01*
X22327666Y-29639523D01*
X22289571Y-29715714D01*
X22251476Y-29753809D01*
X22175285Y-29791904D01*
X21870523Y-29791904D01*
X21870523Y-28991904D01*
X22137190Y-28991904D01*
X22213380Y-29030000D01*
X22251476Y-29068095D01*
X22289571Y-29144285D01*
X22289571Y-29220476D01*
X22251476Y-29296666D01*
X22213380Y-29334761D01*
X22137190Y-29372857D01*
X21870523Y-29372857D01*
X22632428Y-29068095D02*
X22670523Y-29030000D01*
X22746714Y-28991904D01*
X22937190Y-28991904D01*
X23013380Y-29030000D01*
X23051476Y-29068095D01*
X23089571Y-29144285D01*
X23089571Y-29220476D01*
X23051476Y-29334761D01*
X22594333Y-29791904D01*
X23089571Y-29791904D01*
X38666666Y-9904761D02*
X38809523Y-9952380D01*
X39047619Y-9952380D01*
X39142857Y-9904761D01*
X39190476Y-9857142D01*
X39238095Y-9761904D01*
X39238095Y-9666666D01*
X39190476Y-9571428D01*
X39142857Y-9523809D01*
X39047619Y-9476190D01*
X38857142Y-9428571D01*
X38761904Y-9380952D01*
X38714285Y-9333333D01*
X38666666Y-9238095D01*
X38666666Y-9142857D01*
X38714285Y-9047619D01*
X38761904Y-9000000D01*
X38857142Y-8952380D01*
X39095238Y-8952380D01*
X39238095Y-9000000D01*
X39571428Y-8952380D02*
X39809523Y-9952380D01*
X40000000Y-9238095D01*
X40190476Y-9952380D01*
X40428571Y-8952380D01*
X41000000Y-8952380D02*
X41095238Y-8952380D01*
X41190476Y-9000000D01*
X41238095Y-9047619D01*
X41285714Y-9142857D01*
X41333333Y-9333333D01*
X41333333Y-9571428D01*
X41285714Y-9761904D01*
X41238095Y-9857142D01*
X41190476Y-9904761D01*
X41095238Y-9952380D01*
X41000000Y-9952380D01*
X40904761Y-9904761D01*
X40857142Y-9857142D01*
X40809523Y-9761904D01*
X40761904Y-9571428D01*
X40761904Y-9333333D01*
X40809523Y-9142857D01*
X40857142Y-9047619D01*
X40904761Y-9000000D01*
X41000000Y-8952380D01*
X77666666Y-49154761D02*
X77809523Y-49202380D01*
X78047619Y-49202380D01*
X78142857Y-49154761D01*
X78190476Y-49107142D01*
X78238095Y-49011904D01*
X78238095Y-48916666D01*
X78190476Y-48821428D01*
X78142857Y-48773809D01*
X78047619Y-48726190D01*
X77857142Y-48678571D01*
X77761904Y-48630952D01*
X77714285Y-48583333D01*
X77666666Y-48488095D01*
X77666666Y-48392857D01*
X77714285Y-48297619D01*
X77761904Y-48250000D01*
X77857142Y-48202380D01*
X78095238Y-48202380D01*
X78238095Y-48250000D01*
X78571428Y-48202380D02*
X78809523Y-49202380D01*
X79000000Y-48488095D01*
X79190476Y-49202380D01*
X79428571Y-48202380D01*
X80333333Y-49202380D02*
X79761904Y-49202380D01*
X80047619Y-49202380D02*
X80047619Y-48202380D01*
X79952380Y-48345238D01*
X79857142Y-48440476D01*
X79761904Y-48488095D01*
X58166666Y-9904761D02*
X58309523Y-9952380D01*
X58547619Y-9952380D01*
X58642857Y-9904761D01*
X58690476Y-9857142D01*
X58738095Y-9761904D01*
X58738095Y-9666666D01*
X58690476Y-9571428D01*
X58642857Y-9523809D01*
X58547619Y-9476190D01*
X58357142Y-9428571D01*
X58261904Y-9380952D01*
X58214285Y-9333333D01*
X58166666Y-9238095D01*
X58166666Y-9142857D01*
X58214285Y-9047619D01*
X58261904Y-9000000D01*
X58357142Y-8952380D01*
X58595238Y-8952380D01*
X58738095Y-9000000D01*
X59071428Y-8952380D02*
X59309523Y-9952380D01*
X59500000Y-9238095D01*
X59690476Y-9952380D01*
X59928571Y-8952380D01*
X60261904Y-9047619D02*
X60309523Y-9000000D01*
X60404761Y-8952380D01*
X60642857Y-8952380D01*
X60738095Y-9000000D01*
X60785714Y-9047619D01*
X60833333Y-9142857D01*
X60833333Y-9238095D01*
X60785714Y-9380952D01*
X60214285Y-9952380D01*
X60833333Y-9952380D01*
X77626666Y-9904761D02*
X77769523Y-9952380D01*
X78007619Y-9952380D01*
X78102857Y-9904761D01*
X78150476Y-9857142D01*
X78198095Y-9761904D01*
X78198095Y-9666666D01*
X78150476Y-9571428D01*
X78102857Y-9523809D01*
X78007619Y-9476190D01*
X77817142Y-9428571D01*
X77721904Y-9380952D01*
X77674285Y-9333333D01*
X77626666Y-9238095D01*
X77626666Y-9142857D01*
X77674285Y-9047619D01*
X77721904Y-9000000D01*
X77817142Y-8952380D01*
X78055238Y-8952380D01*
X78198095Y-9000000D01*
X78531428Y-8952380D02*
X78769523Y-9952380D01*
X78960000Y-9238095D01*
X79150476Y-9952380D01*
X79388571Y-8952380D01*
X79674285Y-8952380D02*
X80293333Y-8952380D01*
X79960000Y-9333333D01*
X80102857Y-9333333D01*
X80198095Y-9380952D01*
X80245714Y-9428571D01*
X80293333Y-9523809D01*
X80293333Y-9761904D01*
X80245714Y-9857142D01*
X80198095Y-9904761D01*
X80102857Y-9952380D01*
X79817142Y-9952380D01*
X79721904Y-9904761D01*
X79674285Y-9857142D01*
X48666666Y-48904761D02*
X48809523Y-48952380D01*
X49047619Y-48952380D01*
X49142857Y-48904761D01*
X49190476Y-48857142D01*
X49238095Y-48761904D01*
X49238095Y-48666666D01*
X49190476Y-48571428D01*
X49142857Y-48523809D01*
X49047619Y-48476190D01*
X48857142Y-48428571D01*
X48761904Y-48380952D01*
X48714285Y-48333333D01*
X48666666Y-48238095D01*
X48666666Y-48142857D01*
X48714285Y-48047619D01*
X48761904Y-48000000D01*
X48857142Y-47952380D01*
X49095238Y-47952380D01*
X49238095Y-48000000D01*
X49571428Y-47952380D02*
X49809523Y-48952380D01*
X50000000Y-48238095D01*
X50190476Y-48952380D01*
X50428571Y-47952380D01*
X51238095Y-48285714D02*
X51238095Y-48952380D01*
X51000000Y-47904761D02*
X50761904Y-48619047D01*
X51380952Y-48619047D01*
X9547619Y-37452380D02*
X9214285Y-36976190D01*
X8976190Y-37452380D02*
X8976190Y-36452380D01*
X9357142Y-36452380D01*
X9452380Y-36500000D01*
X9500000Y-36547619D01*
X9547619Y-36642857D01*
X9547619Y-36785714D01*
X9500000Y-36880952D01*
X9452380Y-36928571D01*
X9357142Y-36976190D01*
X8976190Y-36976190D01*
X9976190Y-36928571D02*
X10309523Y-36928571D01*
X10452380Y-37452380D02*
X9976190Y-37452380D01*
X9976190Y-36452380D01*
X10452380Y-36452380D01*
X10833333Y-37404761D02*
X10976190Y-37452380D01*
X11214285Y-37452380D01*
X11309523Y-37404761D01*
X11357142Y-37357142D01*
X11404761Y-37261904D01*
X11404761Y-37166666D01*
X11357142Y-37071428D01*
X11309523Y-37023809D01*
X11214285Y-36976190D01*
X11023809Y-36928571D01*
X10928571Y-36880952D01*
X10880952Y-36833333D01*
X10833333Y-36738095D01*
X10833333Y-36642857D01*
X10880952Y-36547619D01*
X10928571Y-36500000D01*
X11023809Y-36452380D01*
X11261904Y-36452380D01*
X11404761Y-36500000D01*
X11833333Y-36928571D02*
X12166666Y-36928571D01*
X12309523Y-37452380D02*
X11833333Y-37452380D01*
X11833333Y-36452380D01*
X12309523Y-36452380D01*
X12595238Y-36452380D02*
X13166666Y-36452380D01*
X12880952Y-37452380D02*
X12880952Y-36452380D01*
M02*
