M48
; DRILL file {KiCad (5.1.2-1)-1} date 2019 August 25, Sunday 00:30:00
; FORMAT={-:-/ absolute / metric / decimal}
; #@! TF.CreationDate,2019-08-25T00:30:00+09:00
; #@! TF.GenerationSoftware,Kicad,Pcbnew,(5.1.2-1)-1
; #@! TF.FileFunction,Plated,1,2,PTH
FMAT,2
METRIC
T1C0.813
T2C1.000
T3C1.092
T4C1.100
T5C1.200
T6C1.300
T7C1.470
T8C1.500
%
G90
G05
T1
X46.19Y-51.0
X53.81Y-51.0
X75.19Y-51.0
X82.81Y-51.0
X75.19Y-7.0
X82.81Y-7.0
X36.19Y-7.0
X43.81Y-7.0
X55.69Y-7.0
X63.31Y-7.0
T2
X56.06Y-20.58
X36.56Y-20.58
X75.56Y-40.08
X75.56Y-20.58
T3
X9.151Y-4.03
X9.151Y-9.11
X9.151Y-14.19
X9.151Y-19.27
X9.151Y-24.35
X9.151Y-29.43
X9.609Y-6.57
X9.609Y-11.65
X9.609Y-16.73
X9.609Y-21.81
X9.609Y-26.89
X9.609Y-31.97
X24.391Y-6.57
X24.391Y-11.65
X24.391Y-16.73
X24.391Y-21.81
X24.391Y-26.89
X24.391Y-31.97
X24.849Y-4.03
X24.849Y-9.11
X24.849Y-14.19
X24.849Y-19.27
X24.849Y-24.35
X24.849Y-29.43
T4
X36.56Y-15.68
X75.56Y-15.68
X56.06Y-15.68
X75.56Y-35.18
T5
X39.96Y-12.68
X44.96Y-14.78
X78.96Y-32.18
X83.96Y-34.28
X78.96Y-12.68
X83.96Y-14.78
X59.46Y-12.68
X64.46Y-14.78
T6
X7.75Y-40.0
X14.25Y-40.0
T7
X55.65Y-16.04
X56.96Y-14.58
X36.15Y-16.04
X37.46Y-14.58
X75.15Y-35.54
X76.46Y-34.08
X75.15Y-16.04
X76.46Y-14.58
T7
G00X42.459Y-14.58
M15
G01X42.501Y-13.5
M16
G05
G00X81.459Y-34.08
M15
G01X81.501Y-33.0
M16
G05
G00X81.459Y-14.58
M15
G01X81.501Y-13.5
M16
G05
G00X61.959Y-14.58
M15
G01X62.001Y-13.5
M16
G05
T8
G00X46.75Y-34.1
M15
G01X45.94Y-35.56
M16
G05
G00X52.29Y-33.021
M15
G01X52.25Y-33.599
M16
G05
T0
M30
