G04 #@! TF.GenerationSoftware,KiCad,Pcbnew,(5.1.2-1)-1*
G04 #@! TF.CreationDate,2019-08-25T00:29:00+09:00*
G04 #@! TF.ProjectId,teishi,74656973-6869-42e6-9b69-6361645f7063,rev?*
G04 #@! TF.SameCoordinates,Original*
G04 #@! TF.FileFunction,Soldermask,Top*
G04 #@! TF.FilePolarity,Negative*
%FSLAX46Y46*%
G04 Gerber Fmt 4.6, Leading zero omitted, Abs format (unit mm)*
G04 Created by KiCad (PCBNEW (5.1.2-1)-1) date 2019-08-25 00:29:00*
%MOMM*%
%LPD*%
G04 APERTURE LIST*
%ADD10C,0.010000*%
%ADD11C,0.100000*%
G04 APERTURE END LIST*
D10*
G36*
X22465580Y-38333180D02*
G01*
X22648603Y-38438147D01*
X22817665Y-38646675D01*
X22876201Y-38740974D01*
X22981767Y-39003642D01*
X23026505Y-39305218D01*
X23014669Y-39608564D01*
X22950517Y-39876545D01*
X22838306Y-40072024D01*
X22714476Y-40151887D01*
X22463597Y-40187032D01*
X22209603Y-40175095D01*
X22091332Y-40145328D01*
X21968789Y-40066886D01*
X21836604Y-39950931D01*
X21760561Y-39856539D01*
X21714131Y-39735824D01*
X21690371Y-39552977D01*
X21682334Y-39272189D01*
X21681948Y-39153588D01*
X21693274Y-38787349D01*
X21737168Y-38542446D01*
X21828504Y-38395738D01*
X21982156Y-38324083D01*
X22212996Y-38304338D01*
X22227793Y-38304298D01*
X22465580Y-38333180D01*
X22465580Y-38333180D01*
G37*
X22465580Y-38333180D02*
X22648603Y-38438147D01*
X22817665Y-38646675D01*
X22876201Y-38740974D01*
X22981767Y-39003642D01*
X23026505Y-39305218D01*
X23014669Y-39608564D01*
X22950517Y-39876545D01*
X22838306Y-40072024D01*
X22714476Y-40151887D01*
X22463597Y-40187032D01*
X22209603Y-40175095D01*
X22091332Y-40145328D01*
X21968789Y-40066886D01*
X21836604Y-39950931D01*
X21760561Y-39856539D01*
X21714131Y-39735824D01*
X21690371Y-39552977D01*
X21682334Y-39272189D01*
X21681948Y-39153588D01*
X21693274Y-38787349D01*
X21737168Y-38542446D01*
X21828504Y-38395738D01*
X21982156Y-38324083D01*
X22212996Y-38304338D01*
X22227793Y-38304298D01*
X22465580Y-38333180D01*
G36*
X25227597Y-36371711D02*
G01*
X25875160Y-36464197D01*
X25939541Y-36477755D01*
X26761725Y-36717479D01*
X27475693Y-37054386D01*
X28081341Y-37488400D01*
X28578564Y-38019448D01*
X28967261Y-38647453D01*
X28988439Y-38690943D01*
X29321199Y-39389138D01*
X29594009Y-39975592D01*
X29812495Y-40468513D01*
X29982282Y-40886112D01*
X30108996Y-41246597D01*
X30198261Y-41568178D01*
X30255704Y-41869065D01*
X30286950Y-42167467D01*
X30297623Y-42481593D01*
X30293350Y-42829653D01*
X30291111Y-42907751D01*
X30282493Y-43175451D01*
X30271404Y-43404261D01*
X30253115Y-43612344D01*
X30222895Y-43817862D01*
X30176013Y-44038976D01*
X30107738Y-44293848D01*
X30013339Y-44600641D01*
X29888086Y-44977517D01*
X29727248Y-45442637D01*
X29526094Y-46014163D01*
X29358647Y-46487602D01*
X29199015Y-46969373D01*
X29094547Y-47366316D01*
X29034623Y-47723449D01*
X29015270Y-47943190D01*
X29015542Y-48437454D01*
X29068048Y-48966573D01*
X29164744Y-49496303D01*
X29297588Y-49992397D01*
X29458537Y-50420613D01*
X29639548Y-50746704D01*
X29688607Y-50810179D01*
X29821088Y-51005985D01*
X29906972Y-51200950D01*
X29909181Y-51209331D01*
X29958186Y-51404584D01*
X12019540Y-51404584D01*
X12054014Y-50876934D01*
X12081846Y-50611323D01*
X12815825Y-50611323D01*
X12822619Y-50635895D01*
X12899390Y-50641359D01*
X13112342Y-50646608D01*
X13452096Y-50651595D01*
X13909276Y-50656272D01*
X14474502Y-50660592D01*
X15138398Y-50664505D01*
X15891585Y-50667965D01*
X16724685Y-50670923D01*
X17628320Y-50673332D01*
X18593113Y-50675143D01*
X19609686Y-50676309D01*
X20668661Y-50676782D01*
X20828512Y-50676790D01*
X22120081Y-50676492D01*
X23272893Y-50675544D01*
X24293753Y-50673868D01*
X25189460Y-50671388D01*
X25966818Y-50668024D01*
X26632628Y-50663698D01*
X27193692Y-50658333D01*
X27656813Y-50651850D01*
X28028792Y-50644172D01*
X28316431Y-50635221D01*
X28526532Y-50624918D01*
X28665897Y-50613185D01*
X28741328Y-50599945D01*
X28759934Y-50585816D01*
X28720441Y-50467213D01*
X28656677Y-50264832D01*
X28615519Y-50130945D01*
X28526064Y-49837286D01*
X28433638Y-49533917D01*
X28404882Y-49439541D01*
X28363191Y-49221563D01*
X28331718Y-48900714D01*
X28311531Y-48519396D01*
X28303703Y-48120009D01*
X28309304Y-47744954D01*
X28329405Y-47436632D01*
X28350657Y-47292550D01*
X28407677Y-47076130D01*
X28508555Y-46750828D01*
X28644313Y-46343392D01*
X28805975Y-45880569D01*
X28984563Y-45389107D01*
X29034611Y-45254727D01*
X29227717Y-44729572D01*
X29371807Y-44308808D01*
X29473839Y-43962462D01*
X29540772Y-43660558D01*
X29579566Y-43373122D01*
X29597180Y-43070182D01*
X29600674Y-42816619D01*
X29598038Y-42488258D01*
X29589786Y-42207893D01*
X29577320Y-42011589D01*
X29566758Y-41943266D01*
X29528864Y-41819074D01*
X29465401Y-41604424D01*
X29399810Y-41379226D01*
X29268211Y-40924355D01*
X27484868Y-40924355D01*
X27478508Y-41597564D01*
X27471822Y-41916760D01*
X27459358Y-42197461D01*
X27443333Y-42395627D01*
X27435883Y-42444570D01*
X27258871Y-43083181D01*
X27016171Y-43639949D01*
X26904868Y-43829569D01*
X26763080Y-44062621D01*
X26580508Y-44379953D01*
X26382782Y-44736318D01*
X26228709Y-45023286D01*
X25813294Y-45810756D01*
X25308011Y-45132455D01*
X24947308Y-44640862D01*
X24666998Y-44240102D01*
X24454140Y-43909309D01*
X24295796Y-43627617D01*
X24179026Y-43374163D01*
X24119999Y-43216737D01*
X24009298Y-42842345D01*
X23905971Y-42400060D01*
X23820424Y-41944051D01*
X23763066Y-41528484D01*
X23744483Y-41262309D01*
X23742252Y-41151145D01*
X24483954Y-41151145D01*
X24530731Y-41942847D01*
X24676434Y-42647249D01*
X24929119Y-43290762D01*
X25296841Y-43899795D01*
X25341001Y-43960841D01*
X25497873Y-44176188D01*
X25608302Y-44304746D01*
X25697304Y-44340186D01*
X25789896Y-44276181D01*
X25911093Y-44106403D01*
X26085912Y-43824526D01*
X26124162Y-43762750D01*
X26362487Y-43360373D01*
X26526779Y-43028502D01*
X26633472Y-42723613D01*
X26699000Y-42402181D01*
X26727104Y-42165827D01*
X26756186Y-41482240D01*
X26709796Y-40854837D01*
X26591994Y-40303105D01*
X26406837Y-39846531D01*
X26176751Y-39523352D01*
X26045491Y-39407165D01*
X25902927Y-39346835D01*
X25695276Y-39325054D01*
X25554838Y-39323209D01*
X25300310Y-39331515D01*
X25135839Y-39369358D01*
X25006278Y-39456123D01*
X24914223Y-39548406D01*
X24694818Y-39885755D01*
X24552894Y-40345352D01*
X24488316Y-40927699D01*
X24483954Y-41151145D01*
X23742252Y-41151145D01*
X23737700Y-40924355D01*
X19124895Y-40924355D01*
X19000041Y-41452005D01*
X18909204Y-41777757D01*
X18781808Y-42162224D01*
X18642486Y-42532048D01*
X18615156Y-42598280D01*
X18408386Y-43224583D01*
X18308907Y-43848242D01*
X18320706Y-44435535D01*
X18367315Y-44695662D01*
X18492029Y-45050161D01*
X18696722Y-45455648D01*
X18952937Y-45866008D01*
X19232219Y-46235123D01*
X19473465Y-46488304D01*
X19991511Y-46886165D01*
X20559035Y-47203157D01*
X21142466Y-47424788D01*
X21708237Y-47536566D01*
X21926593Y-47547278D01*
X22197349Y-47559400D01*
X22353853Y-47612842D01*
X22426564Y-47733213D01*
X22445941Y-47946123D01*
X22446131Y-47984124D01*
X22416821Y-48143736D01*
X22299995Y-48218081D01*
X22245988Y-48230835D01*
X22013762Y-48243879D01*
X21694644Y-48219158D01*
X21340120Y-48164074D01*
X21001673Y-48086028D01*
X20808596Y-48024220D01*
X20647479Y-47963975D01*
X20429067Y-47882394D01*
X20371919Y-47861060D01*
X20017521Y-47691513D01*
X19617866Y-47440961D01*
X19218614Y-47142072D01*
X18865425Y-46827513D01*
X18732205Y-46687901D01*
X18501633Y-46401143D01*
X18265549Y-46059334D01*
X18047703Y-45701944D01*
X17871840Y-45368440D01*
X17761710Y-45098294D01*
X17749473Y-45054584D01*
X17682731Y-44909685D01*
X17601263Y-44854441D01*
X17521189Y-44911746D01*
X17386309Y-45065803D01*
X17218787Y-45289821D01*
X17114196Y-45443081D01*
X16904332Y-45741132D01*
X16637170Y-46084298D01*
X16304666Y-46481710D01*
X15898777Y-46942493D01*
X15411457Y-47475778D01*
X14834664Y-48090691D01*
X14160354Y-48796362D01*
X14146550Y-48810703D01*
X13702267Y-49279838D01*
X13360208Y-49658600D01*
X13114435Y-49954026D01*
X12959013Y-50173154D01*
X12898730Y-50290193D01*
X12836645Y-50481762D01*
X12815825Y-50611323D01*
X12081846Y-50611323D01*
X12088577Y-50547095D01*
X12154466Y-50254562D01*
X12264711Y-49977555D01*
X12432342Y-49694296D01*
X12670389Y-49383006D01*
X12991882Y-49021907D01*
X13409851Y-48589221D01*
X13442431Y-48556323D01*
X13764259Y-48227798D01*
X14065067Y-47913485D01*
X14323685Y-47636056D01*
X14518946Y-47418181D01*
X14622423Y-47292550D01*
X14757080Y-47125096D01*
X14964100Y-46884670D01*
X15215212Y-46603465D01*
X15480814Y-46315094D01*
X16287211Y-45359301D01*
X16985618Y-44326362D01*
X17581837Y-43205649D01*
X18081667Y-41986536D01*
X18412967Y-40944146D01*
X18485237Y-40706017D01*
X19181956Y-40706017D01*
X23745840Y-40706017D01*
X23831584Y-40287535D01*
X23954076Y-39844274D01*
X24124294Y-39442731D01*
X24324215Y-39119104D01*
X24507676Y-38929557D01*
X24902055Y-38714928D01*
X25345498Y-38610437D01*
X25801853Y-38615328D01*
X26234966Y-38728845D01*
X26608686Y-38950232D01*
X26636652Y-38974086D01*
X26830570Y-39168868D01*
X26985001Y-39390561D01*
X27119787Y-39675396D01*
X27254768Y-40059603D01*
X27286187Y-40160172D01*
X27442886Y-40669627D01*
X28292360Y-40690132D01*
X28624461Y-40696229D01*
X28895730Y-40697558D01*
X29077667Y-40694233D01*
X29141833Y-40686667D01*
X29107762Y-40582539D01*
X29020000Y-40404830D01*
X28900223Y-40190039D01*
X28770109Y-39974664D01*
X28651333Y-39795204D01*
X28565572Y-39688158D01*
X28540071Y-39673439D01*
X28433841Y-39742078D01*
X28337333Y-39837193D01*
X28208106Y-39946073D01*
X28098432Y-39976851D01*
X28050203Y-39918243D01*
X28050143Y-39914541D01*
X27987542Y-39856278D01*
X27845570Y-39809945D01*
X27644610Y-39700225D01*
X27515896Y-39475057D01*
X27468025Y-39149898D01*
X27467908Y-39130870D01*
X27500443Y-38906161D01*
X27582831Y-38687590D01*
X27692247Y-38520448D01*
X27805868Y-38450026D01*
X27811107Y-38449856D01*
X27895234Y-38420342D01*
X27868033Y-38327170D01*
X27725857Y-38163394D01*
X27595272Y-38038814D01*
X27208769Y-37725800D01*
X26799015Y-37485227D01*
X26340525Y-37308721D01*
X25807813Y-37187908D01*
X25175393Y-37114411D01*
X24702292Y-37088178D01*
X24258989Y-37075678D01*
X23916610Y-37078527D01*
X23631034Y-37099841D01*
X23358140Y-37142740D01*
X23087216Y-37202307D01*
X22227868Y-37475691D01*
X21449070Y-37862722D01*
X20759381Y-38356376D01*
X20167354Y-38949631D01*
X19681548Y-39635463D01*
X19372994Y-40251146D01*
X19181956Y-40706017D01*
X18485237Y-40706017D01*
X18534392Y-40544052D01*
X18670791Y-40143780D01*
X18804906Y-39791520D01*
X18912700Y-39548758D01*
X19367171Y-38797324D01*
X19928031Y-38139173D01*
X20598447Y-37571758D01*
X21381588Y-37092532D01*
X22280621Y-36698951D01*
X22591690Y-36591204D01*
X23164414Y-36451070D01*
X23825674Y-36366725D01*
X24528918Y-36339746D01*
X25227597Y-36371711D01*
X25227597Y-36371711D01*
G37*
X25227597Y-36371711D02*
X25875160Y-36464197D01*
X25939541Y-36477755D01*
X26761725Y-36717479D01*
X27475693Y-37054386D01*
X28081341Y-37488400D01*
X28578564Y-38019448D01*
X28967261Y-38647453D01*
X28988439Y-38690943D01*
X29321199Y-39389138D01*
X29594009Y-39975592D01*
X29812495Y-40468513D01*
X29982282Y-40886112D01*
X30108996Y-41246597D01*
X30198261Y-41568178D01*
X30255704Y-41869065D01*
X30286950Y-42167467D01*
X30297623Y-42481593D01*
X30293350Y-42829653D01*
X30291111Y-42907751D01*
X30282493Y-43175451D01*
X30271404Y-43404261D01*
X30253115Y-43612344D01*
X30222895Y-43817862D01*
X30176013Y-44038976D01*
X30107738Y-44293848D01*
X30013339Y-44600641D01*
X29888086Y-44977517D01*
X29727248Y-45442637D01*
X29526094Y-46014163D01*
X29358647Y-46487602D01*
X29199015Y-46969373D01*
X29094547Y-47366316D01*
X29034623Y-47723449D01*
X29015270Y-47943190D01*
X29015542Y-48437454D01*
X29068048Y-48966573D01*
X29164744Y-49496303D01*
X29297588Y-49992397D01*
X29458537Y-50420613D01*
X29639548Y-50746704D01*
X29688607Y-50810179D01*
X29821088Y-51005985D01*
X29906972Y-51200950D01*
X29909181Y-51209331D01*
X29958186Y-51404584D01*
X12019540Y-51404584D01*
X12054014Y-50876934D01*
X12081846Y-50611323D01*
X12815825Y-50611323D01*
X12822619Y-50635895D01*
X12899390Y-50641359D01*
X13112342Y-50646608D01*
X13452096Y-50651595D01*
X13909276Y-50656272D01*
X14474502Y-50660592D01*
X15138398Y-50664505D01*
X15891585Y-50667965D01*
X16724685Y-50670923D01*
X17628320Y-50673332D01*
X18593113Y-50675143D01*
X19609686Y-50676309D01*
X20668661Y-50676782D01*
X20828512Y-50676790D01*
X22120081Y-50676492D01*
X23272893Y-50675544D01*
X24293753Y-50673868D01*
X25189460Y-50671388D01*
X25966818Y-50668024D01*
X26632628Y-50663698D01*
X27193692Y-50658333D01*
X27656813Y-50651850D01*
X28028792Y-50644172D01*
X28316431Y-50635221D01*
X28526532Y-50624918D01*
X28665897Y-50613185D01*
X28741328Y-50599945D01*
X28759934Y-50585816D01*
X28720441Y-50467213D01*
X28656677Y-50264832D01*
X28615519Y-50130945D01*
X28526064Y-49837286D01*
X28433638Y-49533917D01*
X28404882Y-49439541D01*
X28363191Y-49221563D01*
X28331718Y-48900714D01*
X28311531Y-48519396D01*
X28303703Y-48120009D01*
X28309304Y-47744954D01*
X28329405Y-47436632D01*
X28350657Y-47292550D01*
X28407677Y-47076130D01*
X28508555Y-46750828D01*
X28644313Y-46343392D01*
X28805975Y-45880569D01*
X28984563Y-45389107D01*
X29034611Y-45254727D01*
X29227717Y-44729572D01*
X29371807Y-44308808D01*
X29473839Y-43962462D01*
X29540772Y-43660558D01*
X29579566Y-43373122D01*
X29597180Y-43070182D01*
X29600674Y-42816619D01*
X29598038Y-42488258D01*
X29589786Y-42207893D01*
X29577320Y-42011589D01*
X29566758Y-41943266D01*
X29528864Y-41819074D01*
X29465401Y-41604424D01*
X29399810Y-41379226D01*
X29268211Y-40924355D01*
X27484868Y-40924355D01*
X27478508Y-41597564D01*
X27471822Y-41916760D01*
X27459358Y-42197461D01*
X27443333Y-42395627D01*
X27435883Y-42444570D01*
X27258871Y-43083181D01*
X27016171Y-43639949D01*
X26904868Y-43829569D01*
X26763080Y-44062621D01*
X26580508Y-44379953D01*
X26382782Y-44736318D01*
X26228709Y-45023286D01*
X25813294Y-45810756D01*
X25308011Y-45132455D01*
X24947308Y-44640862D01*
X24666998Y-44240102D01*
X24454140Y-43909309D01*
X24295796Y-43627617D01*
X24179026Y-43374163D01*
X24119999Y-43216737D01*
X24009298Y-42842345D01*
X23905971Y-42400060D01*
X23820424Y-41944051D01*
X23763066Y-41528484D01*
X23744483Y-41262309D01*
X23742252Y-41151145D01*
X24483954Y-41151145D01*
X24530731Y-41942847D01*
X24676434Y-42647249D01*
X24929119Y-43290762D01*
X25296841Y-43899795D01*
X25341001Y-43960841D01*
X25497873Y-44176188D01*
X25608302Y-44304746D01*
X25697304Y-44340186D01*
X25789896Y-44276181D01*
X25911093Y-44106403D01*
X26085912Y-43824526D01*
X26124162Y-43762750D01*
X26362487Y-43360373D01*
X26526779Y-43028502D01*
X26633472Y-42723613D01*
X26699000Y-42402181D01*
X26727104Y-42165827D01*
X26756186Y-41482240D01*
X26709796Y-40854837D01*
X26591994Y-40303105D01*
X26406837Y-39846531D01*
X26176751Y-39523352D01*
X26045491Y-39407165D01*
X25902927Y-39346835D01*
X25695276Y-39325054D01*
X25554838Y-39323209D01*
X25300310Y-39331515D01*
X25135839Y-39369358D01*
X25006278Y-39456123D01*
X24914223Y-39548406D01*
X24694818Y-39885755D01*
X24552894Y-40345352D01*
X24488316Y-40927699D01*
X24483954Y-41151145D01*
X23742252Y-41151145D01*
X23737700Y-40924355D01*
X19124895Y-40924355D01*
X19000041Y-41452005D01*
X18909204Y-41777757D01*
X18781808Y-42162224D01*
X18642486Y-42532048D01*
X18615156Y-42598280D01*
X18408386Y-43224583D01*
X18308907Y-43848242D01*
X18320706Y-44435535D01*
X18367315Y-44695662D01*
X18492029Y-45050161D01*
X18696722Y-45455648D01*
X18952937Y-45866008D01*
X19232219Y-46235123D01*
X19473465Y-46488304D01*
X19991511Y-46886165D01*
X20559035Y-47203157D01*
X21142466Y-47424788D01*
X21708237Y-47536566D01*
X21926593Y-47547278D01*
X22197349Y-47559400D01*
X22353853Y-47612842D01*
X22426564Y-47733213D01*
X22445941Y-47946123D01*
X22446131Y-47984124D01*
X22416821Y-48143736D01*
X22299995Y-48218081D01*
X22245988Y-48230835D01*
X22013762Y-48243879D01*
X21694644Y-48219158D01*
X21340120Y-48164074D01*
X21001673Y-48086028D01*
X20808596Y-48024220D01*
X20647479Y-47963975D01*
X20429067Y-47882394D01*
X20371919Y-47861060D01*
X20017521Y-47691513D01*
X19617866Y-47440961D01*
X19218614Y-47142072D01*
X18865425Y-46827513D01*
X18732205Y-46687901D01*
X18501633Y-46401143D01*
X18265549Y-46059334D01*
X18047703Y-45701944D01*
X17871840Y-45368440D01*
X17761710Y-45098294D01*
X17749473Y-45054584D01*
X17682731Y-44909685D01*
X17601263Y-44854441D01*
X17521189Y-44911746D01*
X17386309Y-45065803D01*
X17218787Y-45289821D01*
X17114196Y-45443081D01*
X16904332Y-45741132D01*
X16637170Y-46084298D01*
X16304666Y-46481710D01*
X15898777Y-46942493D01*
X15411457Y-47475778D01*
X14834664Y-48090691D01*
X14160354Y-48796362D01*
X14146550Y-48810703D01*
X13702267Y-49279838D01*
X13360208Y-49658600D01*
X13114435Y-49954026D01*
X12959013Y-50173154D01*
X12898730Y-50290193D01*
X12836645Y-50481762D01*
X12815825Y-50611323D01*
X12081846Y-50611323D01*
X12088577Y-50547095D01*
X12154466Y-50254562D01*
X12264711Y-49977555D01*
X12432342Y-49694296D01*
X12670389Y-49383006D01*
X12991882Y-49021907D01*
X13409851Y-48589221D01*
X13442431Y-48556323D01*
X13764259Y-48227798D01*
X14065067Y-47913485D01*
X14323685Y-47636056D01*
X14518946Y-47418181D01*
X14622423Y-47292550D01*
X14757080Y-47125096D01*
X14964100Y-46884670D01*
X15215212Y-46603465D01*
X15480814Y-46315094D01*
X16287211Y-45359301D01*
X16985618Y-44326362D01*
X17581837Y-43205649D01*
X18081667Y-41986536D01*
X18412967Y-40944146D01*
X18485237Y-40706017D01*
X19181956Y-40706017D01*
X23745840Y-40706017D01*
X23831584Y-40287535D01*
X23954076Y-39844274D01*
X24124294Y-39442731D01*
X24324215Y-39119104D01*
X24507676Y-38929557D01*
X24902055Y-38714928D01*
X25345498Y-38610437D01*
X25801853Y-38615328D01*
X26234966Y-38728845D01*
X26608686Y-38950232D01*
X26636652Y-38974086D01*
X26830570Y-39168868D01*
X26985001Y-39390561D01*
X27119787Y-39675396D01*
X27254768Y-40059603D01*
X27286187Y-40160172D01*
X27442886Y-40669627D01*
X28292360Y-40690132D01*
X28624461Y-40696229D01*
X28895730Y-40697558D01*
X29077667Y-40694233D01*
X29141833Y-40686667D01*
X29107762Y-40582539D01*
X29020000Y-40404830D01*
X28900223Y-40190039D01*
X28770109Y-39974664D01*
X28651333Y-39795204D01*
X28565572Y-39688158D01*
X28540071Y-39673439D01*
X28433841Y-39742078D01*
X28337333Y-39837193D01*
X28208106Y-39946073D01*
X28098432Y-39976851D01*
X28050203Y-39918243D01*
X28050143Y-39914541D01*
X27987542Y-39856278D01*
X27845570Y-39809945D01*
X27644610Y-39700225D01*
X27515896Y-39475057D01*
X27468025Y-39149898D01*
X27467908Y-39130870D01*
X27500443Y-38906161D01*
X27582831Y-38687590D01*
X27692247Y-38520448D01*
X27805868Y-38450026D01*
X27811107Y-38449856D01*
X27895234Y-38420342D01*
X27868033Y-38327170D01*
X27725857Y-38163394D01*
X27595272Y-38038814D01*
X27208769Y-37725800D01*
X26799015Y-37485227D01*
X26340525Y-37308721D01*
X25807813Y-37187908D01*
X25175393Y-37114411D01*
X24702292Y-37088178D01*
X24258989Y-37075678D01*
X23916610Y-37078527D01*
X23631034Y-37099841D01*
X23358140Y-37142740D01*
X23087216Y-37202307D01*
X22227868Y-37475691D01*
X21449070Y-37862722D01*
X20759381Y-38356376D01*
X20167354Y-38949631D01*
X19681548Y-39635463D01*
X19372994Y-40251146D01*
X19181956Y-40706017D01*
X18485237Y-40706017D01*
X18534392Y-40544052D01*
X18670791Y-40143780D01*
X18804906Y-39791520D01*
X18912700Y-39548758D01*
X19367171Y-38797324D01*
X19928031Y-38139173D01*
X20598447Y-37571758D01*
X21381588Y-37092532D01*
X22280621Y-36698951D01*
X22591690Y-36591204D01*
X23164414Y-36451070D01*
X23825674Y-36366725D01*
X24528918Y-36339746D01*
X25227597Y-36371711D01*
D11*
G36*
X87724549Y-50371116D02*
G01*
X87835734Y-50393232D01*
X88045203Y-50479997D01*
X88233720Y-50605960D01*
X88394040Y-50766280D01*
X88520003Y-50954797D01*
X88606768Y-51164266D01*
X88651000Y-51386636D01*
X88651000Y-51613364D01*
X88606768Y-51835734D01*
X88520003Y-52045203D01*
X88394040Y-52233720D01*
X88233720Y-52394040D01*
X88045203Y-52520003D01*
X87835734Y-52606768D01*
X87724549Y-52628884D01*
X87613365Y-52651000D01*
X87386635Y-52651000D01*
X87275451Y-52628884D01*
X87164266Y-52606768D01*
X86954797Y-52520003D01*
X86766280Y-52394040D01*
X86605960Y-52233720D01*
X86479997Y-52045203D01*
X86393232Y-51835734D01*
X86349000Y-51613364D01*
X86349000Y-51386636D01*
X86393232Y-51164266D01*
X86479997Y-50954797D01*
X86605960Y-50766280D01*
X86766280Y-50605960D01*
X86954797Y-50479997D01*
X87164266Y-50393232D01*
X87275451Y-50371116D01*
X87386635Y-50349000D01*
X87613365Y-50349000D01*
X87724549Y-50371116D01*
X87724549Y-50371116D01*
G37*
G36*
X3724549Y-50371116D02*
G01*
X3835734Y-50393232D01*
X4045203Y-50479997D01*
X4233720Y-50605960D01*
X4394040Y-50766280D01*
X4520003Y-50954797D01*
X4606768Y-51164266D01*
X4651000Y-51386636D01*
X4651000Y-51613364D01*
X4606768Y-51835734D01*
X4520003Y-52045203D01*
X4394040Y-52233720D01*
X4233720Y-52394040D01*
X4045203Y-52520003D01*
X3835734Y-52606768D01*
X3724549Y-52628884D01*
X3613365Y-52651000D01*
X3386635Y-52651000D01*
X3275451Y-52628884D01*
X3164266Y-52606768D01*
X2954797Y-52520003D01*
X2766280Y-52394040D01*
X2605960Y-52233720D01*
X2479997Y-52045203D01*
X2393232Y-51835734D01*
X2349000Y-51613364D01*
X2349000Y-51386636D01*
X2393232Y-51164266D01*
X2479997Y-50954797D01*
X2605960Y-50766280D01*
X2766280Y-50605960D01*
X2954797Y-50479997D01*
X3164266Y-50393232D01*
X3275451Y-50371116D01*
X3386635Y-50349000D01*
X3613365Y-50349000D01*
X3724549Y-50371116D01*
X3724549Y-50371116D01*
G37*
G36*
X53904425Y-50254599D02*
G01*
X54028621Y-50279302D01*
X54165022Y-50335801D01*
X54287779Y-50417825D01*
X54392175Y-50522221D01*
X54474199Y-50644978D01*
X54530698Y-50781379D01*
X54559500Y-50926181D01*
X54559500Y-51073819D01*
X54530698Y-51218621D01*
X54474199Y-51355022D01*
X54392175Y-51477779D01*
X54287779Y-51582175D01*
X54165022Y-51664199D01*
X54028621Y-51720698D01*
X53904425Y-51745401D01*
X53883820Y-51749500D01*
X53736180Y-51749500D01*
X53715575Y-51745401D01*
X53591379Y-51720698D01*
X53454978Y-51664199D01*
X53332221Y-51582175D01*
X53227825Y-51477779D01*
X53145801Y-51355022D01*
X53089302Y-51218621D01*
X53060500Y-51073819D01*
X53060500Y-50926181D01*
X53089302Y-50781379D01*
X53145801Y-50644978D01*
X53227825Y-50522221D01*
X53332221Y-50417825D01*
X53454978Y-50335801D01*
X53591379Y-50279302D01*
X53715575Y-50254599D01*
X53736180Y-50250500D01*
X53883820Y-50250500D01*
X53904425Y-50254599D01*
X53904425Y-50254599D01*
G37*
G36*
X46939500Y-51749500D02*
G01*
X45440500Y-51749500D01*
X45440500Y-50250500D01*
X46939500Y-50250500D01*
X46939500Y-51749500D01*
X46939500Y-51749500D01*
G37*
G36*
X75939500Y-51749500D02*
G01*
X74440500Y-51749500D01*
X74440500Y-50250500D01*
X75939500Y-50250500D01*
X75939500Y-51749500D01*
X75939500Y-51749500D01*
G37*
G36*
X82904425Y-50254599D02*
G01*
X83028621Y-50279302D01*
X83165022Y-50335801D01*
X83287779Y-50417825D01*
X83392175Y-50522221D01*
X83474199Y-50644978D01*
X83530698Y-50781379D01*
X83559500Y-50926181D01*
X83559500Y-51073819D01*
X83530698Y-51218621D01*
X83474199Y-51355022D01*
X83392175Y-51477779D01*
X83287779Y-51582175D01*
X83165022Y-51664199D01*
X83028621Y-51720698D01*
X82904425Y-51745401D01*
X82883820Y-51749500D01*
X82736180Y-51749500D01*
X82715575Y-51745401D01*
X82591379Y-51720698D01*
X82454978Y-51664199D01*
X82332221Y-51582175D01*
X82227825Y-51477779D01*
X82145801Y-51355022D01*
X82089302Y-51218621D01*
X82060500Y-51073819D01*
X82060500Y-50926181D01*
X82089302Y-50781379D01*
X82145801Y-50644978D01*
X82227825Y-50522221D01*
X82332221Y-50417825D01*
X82454978Y-50335801D01*
X82591379Y-50279302D01*
X82715575Y-50254599D01*
X82736180Y-50250500D01*
X82883820Y-50250500D01*
X82904425Y-50254599D01*
X82904425Y-50254599D01*
G37*
G36*
X81476000Y-51526000D02*
G01*
X80074000Y-51526000D01*
X80074000Y-50474000D01*
X81476000Y-50474000D01*
X81476000Y-51526000D01*
X81476000Y-51526000D01*
G37*
G36*
X77926000Y-51526000D02*
G01*
X76524000Y-51526000D01*
X76524000Y-50474000D01*
X77926000Y-50474000D01*
X77926000Y-51526000D01*
X77926000Y-51526000D01*
G37*
G36*
X52476000Y-51526000D02*
G01*
X51074000Y-51526000D01*
X51074000Y-50474000D01*
X52476000Y-50474000D01*
X52476000Y-51526000D01*
X52476000Y-51526000D01*
G37*
G36*
X48926000Y-51526000D02*
G01*
X47524000Y-51526000D01*
X47524000Y-50474000D01*
X48926000Y-50474000D01*
X48926000Y-51526000D01*
X48926000Y-51526000D01*
G37*
G36*
X84664465Y-42905774D02*
G01*
X84792041Y-42958618D01*
X84906851Y-43035331D01*
X85004497Y-43132977D01*
X85081210Y-43247787D01*
X85134054Y-43375363D01*
X85160992Y-43510792D01*
X85160992Y-43648880D01*
X85134054Y-43784309D01*
X85081210Y-43911885D01*
X85004497Y-44026695D01*
X84906851Y-44124341D01*
X84792041Y-44201054D01*
X84664465Y-44253898D01*
X84529036Y-44280836D01*
X84390948Y-44280836D01*
X84255519Y-44253898D01*
X84127943Y-44201054D01*
X84013133Y-44124341D01*
X83915487Y-44026695D01*
X83838774Y-43911885D01*
X83785930Y-43784309D01*
X83758992Y-43648880D01*
X83758992Y-43510792D01*
X83785930Y-43375363D01*
X83838774Y-43247787D01*
X83915487Y-43132977D01*
X84013133Y-43035331D01*
X84127943Y-42958618D01*
X84255519Y-42905774D01*
X84390948Y-42878836D01*
X84529036Y-42878836D01*
X84664465Y-42905774D01*
X84664465Y-42905774D01*
G37*
G36*
X73929890Y-41654017D02*
G01*
X74048364Y-41703091D01*
X74154988Y-41774335D01*
X74245665Y-41865012D01*
X74316909Y-41971636D01*
X74365983Y-42090110D01*
X74391000Y-42215882D01*
X74391000Y-42344118D01*
X74365983Y-42469890D01*
X74316909Y-42588364D01*
X74245665Y-42694988D01*
X74154988Y-42785665D01*
X74048364Y-42856909D01*
X74048363Y-42856910D01*
X74048362Y-42856910D01*
X73929890Y-42905983D01*
X73804119Y-42931000D01*
X73675881Y-42931000D01*
X73550110Y-42905983D01*
X73431638Y-42856910D01*
X73431637Y-42856910D01*
X73431636Y-42856909D01*
X73325012Y-42785665D01*
X73234335Y-42694988D01*
X73163091Y-42588364D01*
X73114017Y-42469890D01*
X73089000Y-42344118D01*
X73089000Y-42215882D01*
X73114017Y-42090110D01*
X73163091Y-41971636D01*
X73234335Y-41865012D01*
X73325012Y-41774335D01*
X73431636Y-41703091D01*
X73550110Y-41654017D01*
X73675881Y-41629000D01*
X73804119Y-41629000D01*
X73929890Y-41654017D01*
X73929890Y-41654017D01*
G37*
G36*
X79556474Y-36113684D02*
G01*
X79774474Y-36203983D01*
X79928623Y-36267833D01*
X80263548Y-36491623D01*
X80548377Y-36776452D01*
X80548379Y-36776455D01*
X80548381Y-36776457D01*
X80579779Y-36823447D01*
X80595324Y-36842389D01*
X80614266Y-36857934D01*
X80635877Y-36869485D01*
X80659326Y-36876598D01*
X80683711Y-36879000D01*
X80835546Y-36879000D01*
X80847798Y-36878398D01*
X80865000Y-36876704D01*
X80882202Y-36878398D01*
X80894454Y-36879000D01*
X81239074Y-36879000D01*
X81251326Y-36878398D01*
X81260000Y-36877544D01*
X81268673Y-36878398D01*
X81268675Y-36878398D01*
X81319004Y-36883355D01*
X81347376Y-36891962D01*
X81375745Y-36900567D01*
X81375747Y-36900568D01*
X81428031Y-36928514D01*
X81428032Y-36928515D01*
X81428036Y-36928517D01*
X81473869Y-36966131D01*
X81511483Y-37011964D01*
X81511485Y-37011968D01*
X81511486Y-37011969D01*
X81539432Y-37064253D01*
X81556645Y-37120996D01*
X81562456Y-37180000D01*
X81561602Y-37188674D01*
X81561000Y-37200926D01*
X81561000Y-39834514D01*
X81561602Y-39846766D01*
X81564875Y-39880000D01*
X81561602Y-39913234D01*
X81561000Y-39925486D01*
X81561000Y-40759074D01*
X81561602Y-40771326D01*
X81562456Y-40780000D01*
X81561602Y-40788674D01*
X81556645Y-40839004D01*
X81556644Y-40839006D01*
X81539433Y-40895745D01*
X81511483Y-40948036D01*
X81473869Y-40993869D01*
X81428036Y-41031483D01*
X81428032Y-41031485D01*
X81428031Y-41031486D01*
X81391522Y-41051000D01*
X81375745Y-41059433D01*
X81347375Y-41068039D01*
X81319004Y-41076645D01*
X81260000Y-41082456D01*
X81251327Y-41081602D01*
X81239075Y-41081000D01*
X80877397Y-41081000D01*
X80865145Y-41081602D01*
X80865000Y-41081616D01*
X80864855Y-41081602D01*
X80852603Y-41081000D01*
X77080926Y-41081000D01*
X77068674Y-41081602D01*
X77060000Y-41082456D01*
X77051327Y-41081602D01*
X77039075Y-41081000D01*
X76680926Y-41081000D01*
X76668674Y-41081602D01*
X76660000Y-41082456D01*
X76651327Y-41081602D01*
X76651325Y-41081602D01*
X76600996Y-41076645D01*
X76572625Y-41068039D01*
X76544255Y-41059433D01*
X76528478Y-41051000D01*
X76491969Y-41031486D01*
X76491968Y-41031485D01*
X76491964Y-41031483D01*
X76446131Y-40993869D01*
X76408517Y-40948036D01*
X76380567Y-40895745D01*
X76363356Y-40839006D01*
X76363355Y-40839004D01*
X76357544Y-40780000D01*
X76358399Y-40771316D01*
X76359001Y-40759064D01*
X76359001Y-40557869D01*
X76356599Y-40533483D01*
X76349486Y-40510034D01*
X76337935Y-40488423D01*
X76322390Y-40469481D01*
X76303448Y-40453936D01*
X76281837Y-40442385D01*
X76258388Y-40435272D01*
X76234002Y-40432870D01*
X76209616Y-40435272D01*
X76186167Y-40442385D01*
X76164556Y-40453936D01*
X76145614Y-40469481D01*
X76130069Y-40488423D01*
X76104495Y-40526697D01*
X76006851Y-40624341D01*
X75892041Y-40701054D01*
X75764465Y-40753898D01*
X75629036Y-40780836D01*
X75490948Y-40780836D01*
X75355519Y-40753898D01*
X75227943Y-40701054D01*
X75113133Y-40624341D01*
X75015487Y-40526695D01*
X74938774Y-40411885D01*
X74885930Y-40284309D01*
X74858992Y-40148880D01*
X74858992Y-40010792D01*
X74885930Y-39875363D01*
X74938774Y-39747787D01*
X75015487Y-39632977D01*
X75113133Y-39535331D01*
X75227943Y-39458618D01*
X75355519Y-39405774D01*
X75490948Y-39378836D01*
X75629036Y-39378836D01*
X75764465Y-39405774D01*
X75892041Y-39458618D01*
X76006851Y-39535331D01*
X76104495Y-39632975D01*
X76130069Y-39671249D01*
X76145614Y-39690191D01*
X76164556Y-39705736D01*
X76186167Y-39717287D01*
X76209616Y-39724400D01*
X76234002Y-39726802D01*
X76258388Y-39724400D01*
X76281837Y-39717287D01*
X76303448Y-39705736D01*
X76322390Y-39690191D01*
X76337935Y-39671249D01*
X76349486Y-39649638D01*
X76356599Y-39626189D01*
X76359001Y-39601803D01*
X76359001Y-38974475D01*
X76359000Y-37200926D01*
X76358398Y-37188674D01*
X76357544Y-37180000D01*
X76363355Y-37120996D01*
X76380568Y-37064253D01*
X76408514Y-37011969D01*
X76408515Y-37011968D01*
X76408517Y-37011964D01*
X76446131Y-36966131D01*
X76491964Y-36928517D01*
X76491968Y-36928515D01*
X76491969Y-36928514D01*
X76544253Y-36900568D01*
X76544255Y-36900567D01*
X76572624Y-36891962D01*
X76600996Y-36883355D01*
X76651326Y-36878398D01*
X76660000Y-36877544D01*
X76668673Y-36878398D01*
X76680925Y-36879000D01*
X77039074Y-36879000D01*
X77051326Y-36878398D01*
X77060000Y-36877544D01*
X77068673Y-36878398D01*
X77080925Y-36879000D01*
X77236289Y-36879000D01*
X77260675Y-36876598D01*
X77284124Y-36869485D01*
X77305735Y-36857934D01*
X77324677Y-36842389D01*
X77340221Y-36823447D01*
X77371619Y-36776457D01*
X77371621Y-36776455D01*
X77371623Y-36776452D01*
X77656452Y-36491623D01*
X77991377Y-36267833D01*
X78145526Y-36203983D01*
X78363526Y-36113684D01*
X78758594Y-36035100D01*
X79161406Y-36035100D01*
X79556474Y-36113684D01*
X79556474Y-36113684D01*
G37*
G36*
X8056564Y-38989389D02*
G01*
X8247833Y-39068615D01*
X8247835Y-39068616D01*
X8419973Y-39183635D01*
X8566365Y-39330027D01*
X8616978Y-39405774D01*
X8681385Y-39502167D01*
X8760611Y-39693436D01*
X8801000Y-39896484D01*
X8801000Y-40103516D01*
X8760611Y-40306564D01*
X8685283Y-40488423D01*
X8681384Y-40497835D01*
X8566365Y-40669973D01*
X8419973Y-40816365D01*
X8247835Y-40931384D01*
X8247834Y-40931385D01*
X8247833Y-40931385D01*
X8056564Y-41010611D01*
X7853516Y-41051000D01*
X7646484Y-41051000D01*
X7443436Y-41010611D01*
X7252167Y-40931385D01*
X7252166Y-40931385D01*
X7252165Y-40931384D01*
X7080027Y-40816365D01*
X6933635Y-40669973D01*
X6818616Y-40497835D01*
X6814717Y-40488423D01*
X6739389Y-40306564D01*
X6699000Y-40103516D01*
X6699000Y-39896484D01*
X6739389Y-39693436D01*
X6818615Y-39502167D01*
X6883023Y-39405774D01*
X6933635Y-39330027D01*
X7080027Y-39183635D01*
X7252165Y-39068616D01*
X7252167Y-39068615D01*
X7443436Y-38989389D01*
X7646484Y-38949000D01*
X7853516Y-38949000D01*
X8056564Y-38989389D01*
X8056564Y-38989389D01*
G37*
G36*
X14556564Y-38989389D02*
G01*
X14747833Y-39068615D01*
X14747835Y-39068616D01*
X14919973Y-39183635D01*
X15066365Y-39330027D01*
X15116978Y-39405774D01*
X15181385Y-39502167D01*
X15260611Y-39693436D01*
X15301000Y-39896484D01*
X15301000Y-40103516D01*
X15260611Y-40306564D01*
X15185283Y-40488423D01*
X15181384Y-40497835D01*
X15066365Y-40669973D01*
X14919973Y-40816365D01*
X14747835Y-40931384D01*
X14747834Y-40931385D01*
X14747833Y-40931385D01*
X14556564Y-41010611D01*
X14353516Y-41051000D01*
X14146484Y-41051000D01*
X13943436Y-41010611D01*
X13752167Y-40931385D01*
X13752166Y-40931385D01*
X13752165Y-40931384D01*
X13580027Y-40816365D01*
X13433635Y-40669973D01*
X13318616Y-40497835D01*
X13314717Y-40488423D01*
X13239389Y-40306564D01*
X13199000Y-40103516D01*
X13199000Y-39896484D01*
X13239389Y-39693436D01*
X13318615Y-39502167D01*
X13383023Y-39405774D01*
X13433635Y-39330027D01*
X13580027Y-39183635D01*
X13752165Y-39068616D01*
X13752167Y-39068615D01*
X13943436Y-38989389D01*
X14146484Y-38949000D01*
X14353516Y-38949000D01*
X14556564Y-38989389D01*
X14556564Y-38989389D01*
G37*
G36*
X74150104Y-37189585D02*
G01*
X74318626Y-37259389D01*
X74470291Y-37360728D01*
X74599272Y-37489709D01*
X74700611Y-37641374D01*
X74770415Y-37809896D01*
X74806000Y-37988797D01*
X74806000Y-38171203D01*
X74770415Y-38350104D01*
X74700611Y-38518626D01*
X74599272Y-38670291D01*
X74470291Y-38799272D01*
X74318626Y-38900611D01*
X74150104Y-38970415D01*
X73971203Y-39006000D01*
X73788797Y-39006000D01*
X73630300Y-38974474D01*
X73605929Y-38972073D01*
X73581550Y-38974474D01*
X73548741Y-38981000D01*
X73371258Y-38981000D01*
X73338455Y-38974475D01*
X73197188Y-38946376D01*
X73033216Y-38878456D01*
X72885646Y-38779853D01*
X72760147Y-38654354D01*
X72661544Y-38506784D01*
X72593624Y-38342812D01*
X72559000Y-38168741D01*
X72559000Y-37991259D01*
X72593624Y-37817188D01*
X72661544Y-37653216D01*
X72760147Y-37505646D01*
X72885646Y-37380147D01*
X73033216Y-37281544D01*
X73197188Y-37213624D01*
X73346488Y-37183927D01*
X73371258Y-37179000D01*
X73548741Y-37179000D01*
X73581550Y-37185526D01*
X73605926Y-37187927D01*
X73630300Y-37185526D01*
X73788797Y-37154000D01*
X73971203Y-37154000D01*
X74150104Y-37189585D01*
X74150104Y-37189585D01*
G37*
G36*
X84289700Y-37185526D02*
G01*
X84314071Y-37187927D01*
X84338450Y-37185526D01*
X84371259Y-37179000D01*
X84548742Y-37179000D01*
X84573512Y-37183927D01*
X84722812Y-37213624D01*
X84886784Y-37281544D01*
X85034354Y-37380147D01*
X85159853Y-37505646D01*
X85258456Y-37653216D01*
X85326376Y-37817188D01*
X85361000Y-37991259D01*
X85361000Y-38168741D01*
X85326376Y-38342812D01*
X85258456Y-38506784D01*
X85159853Y-38654354D01*
X85034354Y-38779853D01*
X84886784Y-38878456D01*
X84722812Y-38946376D01*
X84581545Y-38974475D01*
X84548742Y-38981000D01*
X84371259Y-38981000D01*
X84338450Y-38974474D01*
X84314074Y-38972073D01*
X84289700Y-38974474D01*
X84131203Y-39006000D01*
X83948797Y-39006000D01*
X83769896Y-38970415D01*
X83601374Y-38900611D01*
X83449709Y-38799272D01*
X83320728Y-38670291D01*
X83219389Y-38518626D01*
X83149585Y-38350104D01*
X83114000Y-38171203D01*
X83114000Y-37988797D01*
X83149585Y-37809896D01*
X83219389Y-37641374D01*
X83320728Y-37489709D01*
X83449709Y-37360728D01*
X83601374Y-37259389D01*
X83769896Y-37189585D01*
X83948797Y-37154000D01*
X84131203Y-37154000D01*
X84289700Y-37185526D01*
X84289700Y-37185526D01*
G37*
G36*
X46899575Y-32801286D02*
G01*
X47150086Y-32855333D01*
X47229724Y-32889837D01*
X47385239Y-32957215D01*
X47489249Y-33029168D01*
X47595996Y-33103014D01*
X47595998Y-33103016D01*
X47774262Y-33287130D01*
X47913180Y-33502483D01*
X48007419Y-33740804D01*
X48036052Y-33897975D01*
X48053351Y-33992928D01*
X48049213Y-34249169D01*
X47995166Y-34499680D01*
X47918813Y-34675911D01*
X47045846Y-36247549D01*
X46936579Y-36405497D01*
X46936577Y-36405499D01*
X46752463Y-36583763D01*
X46537110Y-36722681D01*
X46537108Y-36722682D01*
X46514546Y-36731603D01*
X46298789Y-36816920D01*
X46119840Y-36849520D01*
X46046665Y-36862852D01*
X45790425Y-36858714D01*
X45539914Y-36804667D01*
X45406643Y-36746926D01*
X45304761Y-36702785D01*
X45193312Y-36625686D01*
X45094004Y-36556986D01*
X45030718Y-36491623D01*
X44915738Y-36372870D01*
X44776820Y-36157517D01*
X44682581Y-35919196D01*
X44646714Y-35722317D01*
X44636649Y-35667072D01*
X44640787Y-35410832D01*
X44694834Y-35160321D01*
X44771187Y-34984090D01*
X45644154Y-33412451D01*
X45753421Y-33254503D01*
X45763355Y-33244885D01*
X45937537Y-33076237D01*
X46152889Y-32937318D01*
X46391210Y-32843080D01*
X46570159Y-32810480D01*
X46643334Y-32797148D01*
X46899575Y-32801286D01*
X46899575Y-32801286D01*
G37*
G36*
X76526167Y-32907147D02*
G01*
X76603432Y-32914042D01*
X76607798Y-32914829D01*
X76609034Y-32914917D01*
X76611891Y-32914840D01*
X76612429Y-32914891D01*
X76624259Y-32916659D01*
X76681992Y-32928405D01*
X76683702Y-32928740D01*
X76741852Y-32939728D01*
X76752717Y-32942337D01*
X76829262Y-32964721D01*
X76829293Y-32964616D01*
X76829642Y-32964748D01*
X76829619Y-32964825D01*
X76830698Y-32965149D01*
X76834062Y-32966424D01*
X76835264Y-32966723D01*
X76836388Y-32966888D01*
X76847109Y-32970726D01*
X76901435Y-32993452D01*
X76903049Y-32994114D01*
X76957983Y-33016198D01*
X76968115Y-33020859D01*
X77038683Y-33057595D01*
X77039374Y-33057957D01*
X77044923Y-33060895D01*
X77055200Y-33067045D01*
X77104113Y-33099914D01*
X77105568Y-33100878D01*
X77155126Y-33133185D01*
X77164158Y-33139723D01*
X77215332Y-33180721D01*
X77220383Y-33185542D01*
X77226016Y-33190055D01*
X77225742Y-33190398D01*
X77226033Y-33190620D01*
X77226304Y-33190287D01*
X77233884Y-33196446D01*
X77234080Y-33196623D01*
X77236129Y-33197891D01*
X77240606Y-33201936D01*
X77282179Y-33243656D01*
X77283421Y-33244885D01*
X77325786Y-33286227D01*
X77333384Y-33294404D01*
X77378588Y-33348085D01*
X77381834Y-33352878D01*
X77384286Y-33355790D01*
X77384123Y-33355928D01*
X77384386Y-33356192D01*
X77384525Y-33356076D01*
X77385772Y-33357578D01*
X77389900Y-33361708D01*
X77396296Y-33370290D01*
X77428962Y-33419270D01*
X77429940Y-33420715D01*
X77463476Y-33469511D01*
X77469338Y-33479003D01*
X77507801Y-33548678D01*
X77508202Y-33549409D01*
X77511155Y-33554847D01*
X77516313Y-33565662D01*
X77538851Y-33620075D01*
X77539530Y-33621684D01*
X77562945Y-33676052D01*
X77566855Y-33686512D01*
X77591096Y-33762470D01*
X77591113Y-33762465D01*
X77591198Y-33762816D01*
X77591383Y-33763390D01*
X77593144Y-33769042D01*
X77596096Y-33780625D01*
X77607643Y-33838413D01*
X77607997Y-33840124D01*
X77620400Y-33897975D01*
X77622203Y-33908986D01*
X77631183Y-33987794D01*
X77631270Y-33988577D01*
X77631961Y-33995042D01*
X77632609Y-34006992D01*
X77632712Y-34065949D01*
X77632727Y-34067691D01*
X77633655Y-34126842D01*
X77633286Y-34137978D01*
X77626751Y-34217457D01*
X77627156Y-34217490D01*
X77627097Y-34217863D01*
X77626720Y-34217829D01*
X77626142Y-34224306D01*
X77624457Y-34236142D01*
X77613107Y-34293996D01*
X77612783Y-34295710D01*
X77602207Y-34353904D01*
X77599679Y-34364767D01*
X77577920Y-34441154D01*
X77577616Y-34442207D01*
X77575909Y-34448046D01*
X77571950Y-34459352D01*
X77549607Y-34513829D01*
X77548956Y-34515448D01*
X77527255Y-34570537D01*
X77522656Y-34580722D01*
X77486524Y-34651330D01*
X77486026Y-34652294D01*
X77483165Y-34657792D01*
X77477090Y-34668104D01*
X77444591Y-34717204D01*
X77443637Y-34718667D01*
X77411646Y-34768498D01*
X77405165Y-34777584D01*
X77355827Y-34840056D01*
X77355394Y-34840601D01*
X77351452Y-34845521D01*
X77343486Y-34854463D01*
X77337308Y-34860705D01*
X77325410Y-34874635D01*
X77324599Y-34875739D01*
X77317580Y-34884375D01*
X76059265Y-36286772D01*
X76059299Y-36286802D01*
X76055303Y-36290626D01*
X76051036Y-36295826D01*
X76050729Y-36296286D01*
X76009698Y-36342015D01*
X76009134Y-36342639D01*
X76005002Y-36347181D01*
X75996484Y-36355611D01*
X75949341Y-36397612D01*
X75944105Y-36402554D01*
X75904699Y-36441960D01*
X75887390Y-36456164D01*
X75714238Y-36571860D01*
X75694488Y-36582417D01*
X75502083Y-36662114D01*
X75480664Y-36668612D01*
X75276409Y-36709241D01*
X75254129Y-36711435D01*
X75045871Y-36711435D01*
X75023591Y-36709241D01*
X74819336Y-36668612D01*
X74797917Y-36662114D01*
X74605512Y-36582417D01*
X74585762Y-36571860D01*
X74412610Y-36456164D01*
X74395301Y-36441960D01*
X74248040Y-36294699D01*
X74233836Y-36277390D01*
X74118140Y-36104238D01*
X74107583Y-36084488D01*
X74027886Y-35892083D01*
X74021388Y-35870664D01*
X73980759Y-35666409D01*
X73978565Y-35644129D01*
X73978565Y-35435871D01*
X73980759Y-35413591D01*
X74021388Y-35209336D01*
X74027886Y-35187917D01*
X74107583Y-34995512D01*
X74118137Y-34975767D01*
X74139219Y-34944216D01*
X74148405Y-34927957D01*
X74159097Y-34905217D01*
X74170506Y-34886066D01*
X74246111Y-34783453D01*
X74253157Y-34774809D01*
X75598761Y-33279477D01*
X75599524Y-33278636D01*
X75603652Y-33274113D01*
X75612183Y-33265695D01*
X75639788Y-33241172D01*
X75645620Y-33235646D01*
X75672289Y-33208697D01*
X75680534Y-33201142D01*
X75734805Y-33156086D01*
X75739754Y-33152763D01*
X75742254Y-33150687D01*
X75742412Y-33150877D01*
X75742706Y-33150636D01*
X75742549Y-33150444D01*
X75744583Y-33148779D01*
X75748375Y-33144993D01*
X75756837Y-33138776D01*
X75806070Y-33106436D01*
X75807520Y-33105469D01*
X75856529Y-33072289D01*
X75866066Y-33066490D01*
X75929444Y-33032078D01*
X75935091Y-33029700D01*
X75936439Y-33028968D01*
X75936504Y-33029087D01*
X75936830Y-33028911D01*
X75936766Y-33028792D01*
X75938490Y-33027872D01*
X75942972Y-33024842D01*
X75953025Y-33020133D01*
X76007627Y-32997961D01*
X76009237Y-32997294D01*
X76063753Y-32974266D01*
X76074266Y-32970419D01*
X76141711Y-32949412D01*
X76149237Y-32947703D01*
X76150553Y-32947293D01*
X76150585Y-32947397D01*
X76150949Y-32947314D01*
X76150909Y-32947183D01*
X76159024Y-32944717D01*
X76161346Y-32943627D01*
X76168569Y-32941839D01*
X76226428Y-32930698D01*
X76228139Y-32930356D01*
X76286069Y-32918360D01*
X76297112Y-32916631D01*
X76364243Y-32909456D01*
X76370948Y-32909349D01*
X76376457Y-32908760D01*
X76376497Y-32909135D01*
X76376857Y-32909091D01*
X76376820Y-32908722D01*
X76384900Y-32907915D01*
X76387838Y-32907257D01*
X76395190Y-32906910D01*
X76454161Y-32907219D01*
X76455908Y-32907216D01*
X76515015Y-32906700D01*
X76526167Y-32907147D01*
X76526167Y-32907147D01*
G37*
G36*
X81775585Y-31851118D02*
G01*
X81994517Y-31926823D01*
X82194473Y-32043785D01*
X82367769Y-32197509D01*
X82507745Y-32382087D01*
X82609022Y-32590427D01*
X82667708Y-32814522D01*
X82678079Y-32987813D01*
X82678079Y-32987822D01*
X82655988Y-33562863D01*
X82632186Y-34182473D01*
X82608551Y-34354458D01*
X82532846Y-34573390D01*
X82415884Y-34773346D01*
X82262160Y-34946642D01*
X82077582Y-35086618D01*
X81869242Y-35187895D01*
X81645147Y-35246581D01*
X81413910Y-35260421D01*
X81184415Y-35228882D01*
X80965483Y-35153177D01*
X80765527Y-35036215D01*
X80592231Y-34882491D01*
X80452255Y-34697913D01*
X80350978Y-34489573D01*
X80292292Y-34265478D01*
X80281921Y-34092187D01*
X80285194Y-34006992D01*
X80316193Y-33200046D01*
X80327814Y-32897527D01*
X80351449Y-32725542D01*
X80427154Y-32506610D01*
X80544116Y-32306654D01*
X80697840Y-32133358D01*
X80882418Y-31993382D01*
X81090758Y-31892105D01*
X81314853Y-31833419D01*
X81546090Y-31819579D01*
X81775585Y-31851118D01*
X81775585Y-31851118D01*
G37*
G36*
X84237395Y-33365546D02*
G01*
X84410466Y-33437234D01*
X84410467Y-33437235D01*
X84566227Y-33541310D01*
X84698690Y-33673773D01*
X84702245Y-33679094D01*
X84802766Y-33829534D01*
X84874454Y-34002605D01*
X84911000Y-34186333D01*
X84911000Y-34373667D01*
X84874454Y-34557395D01*
X84802766Y-34730466D01*
X84802765Y-34730467D01*
X84698690Y-34886227D01*
X84566227Y-35018690D01*
X84540000Y-35036214D01*
X84410466Y-35122766D01*
X84237395Y-35194454D01*
X84053667Y-35231000D01*
X83866333Y-35231000D01*
X83682605Y-35194454D01*
X83509534Y-35122766D01*
X83380000Y-35036214D01*
X83353773Y-35018690D01*
X83221310Y-34886227D01*
X83117235Y-34730467D01*
X83117234Y-34730466D01*
X83045546Y-34557395D01*
X83009000Y-34373667D01*
X83009000Y-34186333D01*
X83045546Y-34002605D01*
X83117234Y-33829534D01*
X83217755Y-33679094D01*
X83221310Y-33673773D01*
X83353773Y-33541310D01*
X83509533Y-33437235D01*
X83509534Y-33437234D01*
X83682605Y-33365546D01*
X83866333Y-33329000D01*
X84053667Y-33329000D01*
X84237395Y-33365546D01*
X84237395Y-33365546D01*
G37*
G36*
X52631379Y-31758813D02*
G01*
X52870991Y-31849713D01*
X53025503Y-31946357D01*
X53088265Y-31985613D01*
X53274852Y-32161288D01*
X53344408Y-32258893D01*
X53423580Y-32369990D01*
X53528735Y-32603697D01*
X53528736Y-32603701D01*
X53586276Y-32853428D01*
X53592058Y-33045394D01*
X53577843Y-33253898D01*
X53543916Y-33751571D01*
X53512135Y-33940983D01*
X53421235Y-34180595D01*
X53300474Y-34373665D01*
X53285335Y-34397869D01*
X53109660Y-34584456D01*
X52953398Y-34695813D01*
X52900958Y-34733184D01*
X52667251Y-34838339D01*
X52667247Y-34838340D01*
X52417521Y-34895880D01*
X52161366Y-34903594D01*
X52161362Y-34903594D01*
X51908621Y-34861187D01*
X51669009Y-34770287D01*
X51451735Y-34634387D01*
X51398703Y-34584456D01*
X51265148Y-34458712D01*
X51147766Y-34293996D01*
X51116420Y-34250010D01*
X51011265Y-34016303D01*
X50956251Y-33777538D01*
X50953724Y-33766572D01*
X50947942Y-33574608D01*
X50996084Y-32868428D01*
X51005129Y-32814522D01*
X51027865Y-32679017D01*
X51118765Y-32439405D01*
X51254665Y-32222131D01*
X51311950Y-32161288D01*
X51430340Y-32035544D01*
X51586602Y-31924187D01*
X51639042Y-31886816D01*
X51872749Y-31781661D01*
X51872753Y-31781660D01*
X52122479Y-31724120D01*
X52378634Y-31716406D01*
X52378638Y-31716406D01*
X52631379Y-31758813D01*
X52631379Y-31758813D01*
G37*
G36*
X73664465Y-31905774D02*
G01*
X73792041Y-31958618D01*
X73906851Y-32035331D01*
X74004497Y-32132977D01*
X74081210Y-32247787D01*
X74134054Y-32375363D01*
X74160992Y-32510792D01*
X74160992Y-32648880D01*
X74134054Y-32784309D01*
X74081210Y-32911885D01*
X74004497Y-33026695D01*
X73906851Y-33124341D01*
X73792041Y-33201054D01*
X73664465Y-33253898D01*
X73529036Y-33280836D01*
X73390948Y-33280836D01*
X73255519Y-33253898D01*
X73127943Y-33201054D01*
X73013133Y-33124341D01*
X72915487Y-33026695D01*
X72838774Y-32911885D01*
X72785930Y-32784309D01*
X72758992Y-32648880D01*
X72758992Y-32510792D01*
X72785930Y-32375363D01*
X72838774Y-32247787D01*
X72915487Y-32132977D01*
X73013133Y-32035331D01*
X73127943Y-31958618D01*
X73255519Y-31905774D01*
X73390948Y-31878836D01*
X73529036Y-31878836D01*
X73664465Y-31905774D01*
X73664465Y-31905774D01*
G37*
G36*
X79193642Y-31409781D02*
G01*
X79339414Y-31470162D01*
X79339416Y-31470163D01*
X79470608Y-31557822D01*
X79582178Y-31669392D01*
X79641927Y-31758814D01*
X79669838Y-31800586D01*
X79730219Y-31946358D01*
X79761000Y-32101107D01*
X79761000Y-32258893D01*
X79730219Y-32413642D01*
X79691711Y-32506608D01*
X79669837Y-32559416D01*
X79582178Y-32690608D01*
X79470608Y-32802178D01*
X79339416Y-32889837D01*
X79339415Y-32889838D01*
X79339414Y-32889838D01*
X79193642Y-32950219D01*
X79038893Y-32981000D01*
X78881107Y-32981000D01*
X78726358Y-32950219D01*
X78580586Y-32889838D01*
X78580585Y-32889838D01*
X78580584Y-32889837D01*
X78449392Y-32802178D01*
X78337822Y-32690608D01*
X78250163Y-32559416D01*
X78228289Y-32506608D01*
X78189781Y-32413642D01*
X78159000Y-32258893D01*
X78159000Y-32101107D01*
X78189781Y-31946358D01*
X78250162Y-31800586D01*
X78278073Y-31758814D01*
X78337822Y-31669392D01*
X78449392Y-31557822D01*
X78580584Y-31470163D01*
X78580586Y-31470162D01*
X78726358Y-31409781D01*
X78881107Y-31379000D01*
X79038893Y-31379000D01*
X79193642Y-31409781D01*
X79193642Y-31409781D01*
G37*
G36*
X24661883Y-31078335D02*
G01*
X24830640Y-31148236D01*
X24982518Y-31249718D01*
X25111682Y-31378882D01*
X25213164Y-31530760D01*
X25283065Y-31699517D01*
X25318700Y-31878668D01*
X25318700Y-32061332D01*
X25283065Y-32240483D01*
X25213164Y-32409240D01*
X25111682Y-32561118D01*
X24982518Y-32690282D01*
X24830640Y-32791764D01*
X24661883Y-32861665D01*
X24482732Y-32897300D01*
X24300068Y-32897300D01*
X24120917Y-32861665D01*
X23952160Y-32791764D01*
X23800282Y-32690282D01*
X23671118Y-32561118D01*
X23569636Y-32409240D01*
X23499735Y-32240483D01*
X23464100Y-32061332D01*
X23464100Y-31878668D01*
X23499735Y-31699517D01*
X23569636Y-31530760D01*
X23671118Y-31378882D01*
X23800282Y-31249718D01*
X23952160Y-31148236D01*
X24120917Y-31078335D01*
X24300068Y-31042700D01*
X24482732Y-31042700D01*
X24661883Y-31078335D01*
X24661883Y-31078335D01*
G37*
G36*
X9879083Y-31078335D02*
G01*
X10047840Y-31148236D01*
X10199718Y-31249718D01*
X10328882Y-31378882D01*
X10430364Y-31530760D01*
X10500265Y-31699517D01*
X10535900Y-31878668D01*
X10535900Y-32061332D01*
X10500265Y-32240483D01*
X10430364Y-32409240D01*
X10328882Y-32561118D01*
X10199718Y-32690282D01*
X10047840Y-32791764D01*
X9879083Y-32861665D01*
X9699932Y-32897300D01*
X9517268Y-32897300D01*
X9338117Y-32861665D01*
X9169360Y-32791764D01*
X9017482Y-32690282D01*
X8888318Y-32561118D01*
X8786836Y-32409240D01*
X8716935Y-32240483D01*
X8681300Y-32061332D01*
X8681300Y-31878668D01*
X8716935Y-31699517D01*
X8786836Y-31530760D01*
X8888318Y-31378882D01*
X9017482Y-31249718D01*
X9169360Y-31148236D01*
X9338117Y-31078335D01*
X9517268Y-31042700D01*
X9699932Y-31042700D01*
X9879083Y-31078335D01*
X9879083Y-31078335D01*
G37*
G36*
X9421883Y-28538335D02*
G01*
X9590640Y-28608236D01*
X9742518Y-28709718D01*
X9871682Y-28838882D01*
X9973164Y-28990760D01*
X10043065Y-29159517D01*
X10078700Y-29338668D01*
X10078700Y-29521332D01*
X10043065Y-29700483D01*
X9973164Y-29869240D01*
X9871682Y-30021118D01*
X9742518Y-30150282D01*
X9590640Y-30251764D01*
X9421883Y-30321665D01*
X9242732Y-30357300D01*
X9060068Y-30357300D01*
X8880917Y-30321665D01*
X8712160Y-30251764D01*
X8560282Y-30150282D01*
X8431118Y-30021118D01*
X8329636Y-29869240D01*
X8259735Y-29700483D01*
X8224100Y-29521332D01*
X8224100Y-29338668D01*
X8259735Y-29159517D01*
X8329636Y-28990760D01*
X8431118Y-28838882D01*
X8560282Y-28709718D01*
X8712160Y-28608236D01*
X8880917Y-28538335D01*
X9060068Y-28502700D01*
X9242732Y-28502700D01*
X9421883Y-28538335D01*
X9421883Y-28538335D01*
G37*
G36*
X25119083Y-28538335D02*
G01*
X25287840Y-28608236D01*
X25439718Y-28709718D01*
X25568882Y-28838882D01*
X25670364Y-28990760D01*
X25740265Y-29159517D01*
X25775900Y-29338668D01*
X25775900Y-29521332D01*
X25740265Y-29700483D01*
X25670364Y-29869240D01*
X25568882Y-30021118D01*
X25439718Y-30150282D01*
X25287840Y-30251764D01*
X25119083Y-30321665D01*
X24939932Y-30357300D01*
X24757268Y-30357300D01*
X24578117Y-30321665D01*
X24409360Y-30251764D01*
X24257482Y-30150282D01*
X24128318Y-30021118D01*
X24026836Y-29869240D01*
X23956935Y-29700483D01*
X23921300Y-29521332D01*
X23921300Y-29338668D01*
X23956935Y-29159517D01*
X24026836Y-28990760D01*
X24128318Y-28838882D01*
X24257482Y-28709718D01*
X24409360Y-28608236D01*
X24578117Y-28538335D01*
X24757268Y-28502700D01*
X24939932Y-28502700D01*
X25119083Y-28538335D01*
X25119083Y-28538335D01*
G37*
G36*
X24661883Y-25998335D02*
G01*
X24830640Y-26068236D01*
X24982518Y-26169718D01*
X25111682Y-26298882D01*
X25213164Y-26450760D01*
X25283065Y-26619517D01*
X25318700Y-26798668D01*
X25318700Y-26981332D01*
X25283065Y-27160483D01*
X25213164Y-27329240D01*
X25111682Y-27481118D01*
X24982518Y-27610282D01*
X24830640Y-27711764D01*
X24661883Y-27781665D01*
X24482732Y-27817300D01*
X24300068Y-27817300D01*
X24120917Y-27781665D01*
X23952160Y-27711764D01*
X23800282Y-27610282D01*
X23671118Y-27481118D01*
X23569636Y-27329240D01*
X23499735Y-27160483D01*
X23464100Y-26981332D01*
X23464100Y-26798668D01*
X23499735Y-26619517D01*
X23569636Y-26450760D01*
X23671118Y-26298882D01*
X23800282Y-26169718D01*
X23952160Y-26068236D01*
X24120917Y-25998335D01*
X24300068Y-25962700D01*
X24482732Y-25962700D01*
X24661883Y-25998335D01*
X24661883Y-25998335D01*
G37*
G36*
X9879083Y-25998335D02*
G01*
X10047840Y-26068236D01*
X10199718Y-26169718D01*
X10328882Y-26298882D01*
X10430364Y-26450760D01*
X10500265Y-26619517D01*
X10535900Y-26798668D01*
X10535900Y-26981332D01*
X10500265Y-27160483D01*
X10430364Y-27329240D01*
X10328882Y-27481118D01*
X10199718Y-27610282D01*
X10047840Y-27711764D01*
X9879083Y-27781665D01*
X9699932Y-27817300D01*
X9517268Y-27817300D01*
X9338117Y-27781665D01*
X9169360Y-27711764D01*
X9017482Y-27610282D01*
X8888318Y-27481118D01*
X8786836Y-27329240D01*
X8716935Y-27160483D01*
X8681300Y-26981332D01*
X8681300Y-26798668D01*
X8716935Y-26619517D01*
X8786836Y-26450760D01*
X8888318Y-26298882D01*
X9017482Y-26169718D01*
X9169360Y-26068236D01*
X9338117Y-25998335D01*
X9517268Y-25962700D01*
X9699932Y-25962700D01*
X9879083Y-25998335D01*
X9879083Y-25998335D01*
G37*
G36*
X9421883Y-23458335D02*
G01*
X9590640Y-23528236D01*
X9742518Y-23629718D01*
X9871682Y-23758882D01*
X9973164Y-23910760D01*
X10043065Y-24079517D01*
X10078700Y-24258668D01*
X10078700Y-24441332D01*
X10043065Y-24620483D01*
X9973164Y-24789240D01*
X9871682Y-24941118D01*
X9742518Y-25070282D01*
X9590640Y-25171764D01*
X9421883Y-25241665D01*
X9242732Y-25277300D01*
X9060068Y-25277300D01*
X8880917Y-25241665D01*
X8712160Y-25171764D01*
X8560282Y-25070282D01*
X8431118Y-24941118D01*
X8329636Y-24789240D01*
X8259735Y-24620483D01*
X8224100Y-24441332D01*
X8224100Y-24258668D01*
X8259735Y-24079517D01*
X8329636Y-23910760D01*
X8431118Y-23758882D01*
X8560282Y-23629718D01*
X8712160Y-23528236D01*
X8880917Y-23458335D01*
X9060068Y-23422700D01*
X9242732Y-23422700D01*
X9421883Y-23458335D01*
X9421883Y-23458335D01*
G37*
G36*
X25119083Y-23458335D02*
G01*
X25287840Y-23528236D01*
X25439718Y-23629718D01*
X25568882Y-23758882D01*
X25670364Y-23910760D01*
X25740265Y-24079517D01*
X25775900Y-24258668D01*
X25775900Y-24441332D01*
X25740265Y-24620483D01*
X25670364Y-24789240D01*
X25568882Y-24941118D01*
X25439718Y-25070282D01*
X25287840Y-25171764D01*
X25119083Y-25241665D01*
X24939932Y-25277300D01*
X24757268Y-25277300D01*
X24578117Y-25241665D01*
X24409360Y-25171764D01*
X24257482Y-25070282D01*
X24128318Y-24941118D01*
X24026836Y-24789240D01*
X23956935Y-24620483D01*
X23921300Y-24441332D01*
X23921300Y-24258668D01*
X23956935Y-24079517D01*
X24026836Y-23910760D01*
X24128318Y-23758882D01*
X24257482Y-23629718D01*
X24409360Y-23528236D01*
X24578117Y-23458335D01*
X24757268Y-23422700D01*
X24939932Y-23422700D01*
X25119083Y-23458335D01*
X25119083Y-23458335D01*
G37*
G36*
X45664465Y-23405774D02*
G01*
X45792041Y-23458618D01*
X45906851Y-23535331D01*
X46004497Y-23632977D01*
X46081210Y-23747787D01*
X46134054Y-23875363D01*
X46160992Y-24010792D01*
X46160992Y-24148880D01*
X46134054Y-24284309D01*
X46081210Y-24411885D01*
X46004497Y-24526695D01*
X45906851Y-24624341D01*
X45792041Y-24701054D01*
X45664465Y-24753898D01*
X45529036Y-24780836D01*
X45390948Y-24780836D01*
X45255519Y-24753898D01*
X45127943Y-24701054D01*
X45013133Y-24624341D01*
X44915487Y-24526695D01*
X44838774Y-24411885D01*
X44785930Y-24284309D01*
X44758992Y-24148880D01*
X44758992Y-24010792D01*
X44785930Y-23875363D01*
X44838774Y-23747787D01*
X44915487Y-23632977D01*
X45013133Y-23535331D01*
X45127943Y-23458618D01*
X45255519Y-23405774D01*
X45390948Y-23378836D01*
X45529036Y-23378836D01*
X45664465Y-23405774D01*
X45664465Y-23405774D01*
G37*
G36*
X65164465Y-23405774D02*
G01*
X65292041Y-23458618D01*
X65406851Y-23535331D01*
X65504497Y-23632977D01*
X65581210Y-23747787D01*
X65634054Y-23875363D01*
X65660992Y-24010792D01*
X65660992Y-24148880D01*
X65634054Y-24284309D01*
X65581210Y-24411885D01*
X65504497Y-24526695D01*
X65406851Y-24624341D01*
X65292041Y-24701054D01*
X65164465Y-24753898D01*
X65029036Y-24780836D01*
X64890948Y-24780836D01*
X64755519Y-24753898D01*
X64627943Y-24701054D01*
X64513133Y-24624341D01*
X64415487Y-24526695D01*
X64338774Y-24411885D01*
X64285930Y-24284309D01*
X64258992Y-24148880D01*
X64258992Y-24010792D01*
X64285930Y-23875363D01*
X64338774Y-23747787D01*
X64415487Y-23632977D01*
X64513133Y-23535331D01*
X64627943Y-23458618D01*
X64755519Y-23405774D01*
X64890948Y-23378836D01*
X65029036Y-23378836D01*
X65164465Y-23405774D01*
X65164465Y-23405774D01*
G37*
G36*
X84664465Y-23405774D02*
G01*
X84792041Y-23458618D01*
X84906851Y-23535331D01*
X85004497Y-23632977D01*
X85081210Y-23747787D01*
X85134054Y-23875363D01*
X85160992Y-24010792D01*
X85160992Y-24148880D01*
X85134054Y-24284309D01*
X85081210Y-24411885D01*
X85004497Y-24526695D01*
X84906851Y-24624341D01*
X84792041Y-24701054D01*
X84664465Y-24753898D01*
X84529036Y-24780836D01*
X84390948Y-24780836D01*
X84255519Y-24753898D01*
X84127943Y-24701054D01*
X84013133Y-24624341D01*
X83915487Y-24526695D01*
X83838774Y-24411885D01*
X83785930Y-24284309D01*
X83758992Y-24148880D01*
X83758992Y-24010792D01*
X83785930Y-23875363D01*
X83838774Y-23747787D01*
X83915487Y-23632977D01*
X84013133Y-23535331D01*
X84127943Y-23458618D01*
X84255519Y-23405774D01*
X84390948Y-23378836D01*
X84529036Y-23378836D01*
X84664465Y-23405774D01*
X84664465Y-23405774D01*
G37*
G36*
X34929890Y-22154017D02*
G01*
X35048364Y-22203091D01*
X35154988Y-22274335D01*
X35245665Y-22365012D01*
X35316909Y-22471636D01*
X35365983Y-22590110D01*
X35391000Y-22715882D01*
X35391000Y-22844118D01*
X35365983Y-22969890D01*
X35316909Y-23088364D01*
X35245665Y-23194988D01*
X35154988Y-23285665D01*
X35048364Y-23356909D01*
X35048363Y-23356910D01*
X35048362Y-23356910D01*
X34929890Y-23405983D01*
X34804119Y-23431000D01*
X34675881Y-23431000D01*
X34550110Y-23405983D01*
X34431638Y-23356910D01*
X34431637Y-23356910D01*
X34431636Y-23356909D01*
X34325012Y-23285665D01*
X34234335Y-23194988D01*
X34163091Y-23088364D01*
X34114017Y-22969890D01*
X34089000Y-22844118D01*
X34089000Y-22715882D01*
X34114017Y-22590110D01*
X34163091Y-22471636D01*
X34234335Y-22365012D01*
X34325012Y-22274335D01*
X34431636Y-22203091D01*
X34550110Y-22154017D01*
X34675881Y-22129000D01*
X34804119Y-22129000D01*
X34929890Y-22154017D01*
X34929890Y-22154017D01*
G37*
G36*
X54429890Y-22154017D02*
G01*
X54548364Y-22203091D01*
X54654988Y-22274335D01*
X54745665Y-22365012D01*
X54816909Y-22471636D01*
X54865983Y-22590110D01*
X54891000Y-22715882D01*
X54891000Y-22844118D01*
X54865983Y-22969890D01*
X54816909Y-23088364D01*
X54745665Y-23194988D01*
X54654988Y-23285665D01*
X54548364Y-23356909D01*
X54548363Y-23356910D01*
X54548362Y-23356910D01*
X54429890Y-23405983D01*
X54304119Y-23431000D01*
X54175881Y-23431000D01*
X54050110Y-23405983D01*
X53931638Y-23356910D01*
X53931637Y-23356910D01*
X53931636Y-23356909D01*
X53825012Y-23285665D01*
X53734335Y-23194988D01*
X53663091Y-23088364D01*
X53614017Y-22969890D01*
X53589000Y-22844118D01*
X53589000Y-22715882D01*
X53614017Y-22590110D01*
X53663091Y-22471636D01*
X53734335Y-22365012D01*
X53825012Y-22274335D01*
X53931636Y-22203091D01*
X54050110Y-22154017D01*
X54175881Y-22129000D01*
X54304119Y-22129000D01*
X54429890Y-22154017D01*
X54429890Y-22154017D01*
G37*
G36*
X73929890Y-22154017D02*
G01*
X74048364Y-22203091D01*
X74154988Y-22274335D01*
X74245665Y-22365012D01*
X74316909Y-22471636D01*
X74365983Y-22590110D01*
X74391000Y-22715882D01*
X74391000Y-22844118D01*
X74365983Y-22969890D01*
X74316909Y-23088364D01*
X74245665Y-23194988D01*
X74154988Y-23285665D01*
X74048364Y-23356909D01*
X74048363Y-23356910D01*
X74048362Y-23356910D01*
X73929890Y-23405983D01*
X73804119Y-23431000D01*
X73675881Y-23431000D01*
X73550110Y-23405983D01*
X73431638Y-23356910D01*
X73431637Y-23356910D01*
X73431636Y-23356909D01*
X73325012Y-23285665D01*
X73234335Y-23194988D01*
X73163091Y-23088364D01*
X73114017Y-22969890D01*
X73089000Y-22844118D01*
X73089000Y-22715882D01*
X73114017Y-22590110D01*
X73163091Y-22471636D01*
X73234335Y-22365012D01*
X73325012Y-22274335D01*
X73431636Y-22203091D01*
X73550110Y-22154017D01*
X73675881Y-22129000D01*
X73804119Y-22129000D01*
X73929890Y-22154017D01*
X73929890Y-22154017D01*
G37*
G36*
X24661883Y-20918335D02*
G01*
X24830640Y-20988236D01*
X24982518Y-21089718D01*
X25111682Y-21218882D01*
X25213164Y-21370760D01*
X25283065Y-21539517D01*
X25318700Y-21718668D01*
X25318700Y-21901332D01*
X25283065Y-22080483D01*
X25213164Y-22249240D01*
X25111682Y-22401118D01*
X24982518Y-22530282D01*
X24830640Y-22631764D01*
X24661883Y-22701665D01*
X24482732Y-22737300D01*
X24300068Y-22737300D01*
X24120917Y-22701665D01*
X23952160Y-22631764D01*
X23800282Y-22530282D01*
X23671118Y-22401118D01*
X23569636Y-22249240D01*
X23499735Y-22080483D01*
X23464100Y-21901332D01*
X23464100Y-21718668D01*
X23499735Y-21539517D01*
X23569636Y-21370760D01*
X23671118Y-21218882D01*
X23800282Y-21089718D01*
X23952160Y-20988236D01*
X24120917Y-20918335D01*
X24300068Y-20882700D01*
X24482732Y-20882700D01*
X24661883Y-20918335D01*
X24661883Y-20918335D01*
G37*
G36*
X9879083Y-20918335D02*
G01*
X10047840Y-20988236D01*
X10199718Y-21089718D01*
X10328882Y-21218882D01*
X10430364Y-21370760D01*
X10500265Y-21539517D01*
X10535900Y-21718668D01*
X10535900Y-21901332D01*
X10500265Y-22080483D01*
X10430364Y-22249240D01*
X10328882Y-22401118D01*
X10199718Y-22530282D01*
X10047840Y-22631764D01*
X9879083Y-22701665D01*
X9699932Y-22737300D01*
X9517268Y-22737300D01*
X9338117Y-22701665D01*
X9169360Y-22631764D01*
X9017482Y-22530282D01*
X8888318Y-22401118D01*
X8786836Y-22249240D01*
X8716935Y-22080483D01*
X8681300Y-21901332D01*
X8681300Y-21718668D01*
X8716935Y-21539517D01*
X8786836Y-21370760D01*
X8888318Y-21218882D01*
X9017482Y-21089718D01*
X9169360Y-20988236D01*
X9338117Y-20918335D01*
X9517268Y-20882700D01*
X9699932Y-20882700D01*
X9879083Y-20918335D01*
X9879083Y-20918335D01*
G37*
G36*
X79556474Y-16613684D02*
G01*
X79774474Y-16703983D01*
X79928623Y-16767833D01*
X80263548Y-16991623D01*
X80548377Y-17276452D01*
X80548379Y-17276455D01*
X80548381Y-17276457D01*
X80579779Y-17323447D01*
X80595324Y-17342389D01*
X80614266Y-17357934D01*
X80635877Y-17369485D01*
X80659326Y-17376598D01*
X80683711Y-17379000D01*
X80835546Y-17379000D01*
X80847798Y-17378398D01*
X80865000Y-17376704D01*
X80882202Y-17378398D01*
X80894454Y-17379000D01*
X81239074Y-17379000D01*
X81251326Y-17378398D01*
X81260000Y-17377544D01*
X81268673Y-17378398D01*
X81268675Y-17378398D01*
X81319004Y-17383355D01*
X81347375Y-17391961D01*
X81375745Y-17400567D01*
X81375747Y-17400568D01*
X81428031Y-17428514D01*
X81428032Y-17428515D01*
X81428036Y-17428517D01*
X81473869Y-17466131D01*
X81511483Y-17511964D01*
X81511485Y-17511968D01*
X81511486Y-17511969D01*
X81539432Y-17564253D01*
X81556645Y-17620996D01*
X81562456Y-17680000D01*
X81561602Y-17688674D01*
X81561000Y-17700926D01*
X81561000Y-20334514D01*
X81561602Y-20346766D01*
X81564875Y-20380000D01*
X81561602Y-20413234D01*
X81561000Y-20425486D01*
X81561000Y-21259074D01*
X81561602Y-21271326D01*
X81562456Y-21280000D01*
X81561602Y-21288674D01*
X81556645Y-21339004D01*
X81556644Y-21339006D01*
X81539433Y-21395745D01*
X81511483Y-21448036D01*
X81473869Y-21493869D01*
X81428036Y-21531483D01*
X81428032Y-21531485D01*
X81428031Y-21531486D01*
X81377317Y-21558593D01*
X81375745Y-21559433D01*
X81347375Y-21568039D01*
X81319004Y-21576645D01*
X81260000Y-21582456D01*
X81251327Y-21581602D01*
X81239075Y-21581000D01*
X80877397Y-21581000D01*
X80865145Y-21581602D01*
X80865000Y-21581616D01*
X80864855Y-21581602D01*
X80852603Y-21581000D01*
X77080926Y-21581000D01*
X77068674Y-21581602D01*
X77060000Y-21582456D01*
X77051327Y-21581602D01*
X77039075Y-21581000D01*
X76680926Y-21581000D01*
X76668674Y-21581602D01*
X76660000Y-21582456D01*
X76651327Y-21581602D01*
X76651325Y-21581602D01*
X76600996Y-21576645D01*
X76572624Y-21568038D01*
X76544255Y-21559433D01*
X76542683Y-21558593D01*
X76491969Y-21531486D01*
X76491968Y-21531485D01*
X76491964Y-21531483D01*
X76446131Y-21493869D01*
X76408517Y-21448036D01*
X76380567Y-21395745D01*
X76363356Y-21339006D01*
X76363355Y-21339004D01*
X76357544Y-21280000D01*
X76358399Y-21271316D01*
X76359001Y-21259064D01*
X76359001Y-21057869D01*
X76356599Y-21033483D01*
X76349486Y-21010034D01*
X76337935Y-20988423D01*
X76322390Y-20969481D01*
X76303448Y-20953936D01*
X76281837Y-20942385D01*
X76258388Y-20935272D01*
X76234002Y-20932870D01*
X76209616Y-20935272D01*
X76186167Y-20942385D01*
X76164556Y-20953936D01*
X76145614Y-20969481D01*
X76130069Y-20988423D01*
X76104495Y-21026697D01*
X76006851Y-21124341D01*
X75892041Y-21201054D01*
X75764465Y-21253898D01*
X75629036Y-21280836D01*
X75490948Y-21280836D01*
X75355519Y-21253898D01*
X75227943Y-21201054D01*
X75113133Y-21124341D01*
X75015487Y-21026695D01*
X74938774Y-20911885D01*
X74885930Y-20784309D01*
X74858992Y-20648880D01*
X74858992Y-20510792D01*
X74885930Y-20375363D01*
X74938774Y-20247787D01*
X75015487Y-20132977D01*
X75113133Y-20035331D01*
X75227943Y-19958618D01*
X75355519Y-19905774D01*
X75490948Y-19878836D01*
X75629036Y-19878836D01*
X75764465Y-19905774D01*
X75892041Y-19958618D01*
X76006851Y-20035331D01*
X76104495Y-20132975D01*
X76130069Y-20171249D01*
X76145614Y-20190191D01*
X76164556Y-20205736D01*
X76186167Y-20217287D01*
X76209616Y-20224400D01*
X76234002Y-20226802D01*
X76258388Y-20224400D01*
X76281837Y-20217287D01*
X76303448Y-20205736D01*
X76322390Y-20190191D01*
X76337935Y-20171249D01*
X76349486Y-20149638D01*
X76356599Y-20126189D01*
X76359001Y-20101803D01*
X76359001Y-19474475D01*
X76359000Y-17700926D01*
X76358398Y-17688674D01*
X76357544Y-17680000D01*
X76363355Y-17620996D01*
X76380568Y-17564253D01*
X76408514Y-17511969D01*
X76408515Y-17511968D01*
X76408517Y-17511964D01*
X76446131Y-17466131D01*
X76491964Y-17428517D01*
X76491968Y-17428515D01*
X76491969Y-17428514D01*
X76544253Y-17400568D01*
X76544255Y-17400567D01*
X76572625Y-17391961D01*
X76600996Y-17383355D01*
X76651326Y-17378398D01*
X76660000Y-17377544D01*
X76668673Y-17378398D01*
X76680925Y-17379000D01*
X77039074Y-17379000D01*
X77051326Y-17378398D01*
X77060000Y-17377544D01*
X77068673Y-17378398D01*
X77080925Y-17379000D01*
X77236289Y-17379000D01*
X77260675Y-17376598D01*
X77284124Y-17369485D01*
X77305735Y-17357934D01*
X77324677Y-17342389D01*
X77340221Y-17323447D01*
X77371619Y-17276457D01*
X77371621Y-17276455D01*
X77371623Y-17276452D01*
X77656452Y-16991623D01*
X77991377Y-16767833D01*
X78145526Y-16703983D01*
X78363526Y-16613684D01*
X78758594Y-16535100D01*
X79161406Y-16535100D01*
X79556474Y-16613684D01*
X79556474Y-16613684D01*
G37*
G36*
X60056474Y-16613684D02*
G01*
X60274474Y-16703983D01*
X60428623Y-16767833D01*
X60763548Y-16991623D01*
X61048377Y-17276452D01*
X61048379Y-17276455D01*
X61048381Y-17276457D01*
X61079779Y-17323447D01*
X61095324Y-17342389D01*
X61114266Y-17357934D01*
X61135877Y-17369485D01*
X61159326Y-17376598D01*
X61183711Y-17379000D01*
X61335546Y-17379000D01*
X61347798Y-17378398D01*
X61365000Y-17376704D01*
X61382202Y-17378398D01*
X61394454Y-17379000D01*
X61739074Y-17379000D01*
X61751326Y-17378398D01*
X61760000Y-17377544D01*
X61768673Y-17378398D01*
X61768675Y-17378398D01*
X61819004Y-17383355D01*
X61847375Y-17391961D01*
X61875745Y-17400567D01*
X61875747Y-17400568D01*
X61928031Y-17428514D01*
X61928032Y-17428515D01*
X61928036Y-17428517D01*
X61973869Y-17466131D01*
X62011483Y-17511964D01*
X62011485Y-17511968D01*
X62011486Y-17511969D01*
X62039432Y-17564253D01*
X62056645Y-17620996D01*
X62062456Y-17680000D01*
X62061602Y-17688674D01*
X62061000Y-17700926D01*
X62061000Y-20334514D01*
X62061602Y-20346766D01*
X62064875Y-20380000D01*
X62061602Y-20413234D01*
X62061000Y-20425486D01*
X62061000Y-21259074D01*
X62061602Y-21271326D01*
X62062456Y-21280000D01*
X62061602Y-21288674D01*
X62056645Y-21339004D01*
X62056644Y-21339006D01*
X62039433Y-21395745D01*
X62011483Y-21448036D01*
X61973869Y-21493869D01*
X61928036Y-21531483D01*
X61928032Y-21531485D01*
X61928031Y-21531486D01*
X61877317Y-21558593D01*
X61875745Y-21559433D01*
X61847376Y-21568038D01*
X61819004Y-21576645D01*
X61760000Y-21582456D01*
X61751327Y-21581602D01*
X61739075Y-21581000D01*
X61377397Y-21581000D01*
X61365145Y-21581602D01*
X61365000Y-21581616D01*
X61364855Y-21581602D01*
X61352603Y-21581000D01*
X57580926Y-21581000D01*
X57568674Y-21581602D01*
X57560000Y-21582456D01*
X57551327Y-21581602D01*
X57539075Y-21581000D01*
X57180926Y-21581000D01*
X57168674Y-21581602D01*
X57160000Y-21582456D01*
X57151327Y-21581602D01*
X57151325Y-21581602D01*
X57100996Y-21576645D01*
X57072624Y-21568038D01*
X57044255Y-21559433D01*
X57042683Y-21558593D01*
X56991969Y-21531486D01*
X56991968Y-21531485D01*
X56991964Y-21531483D01*
X56946131Y-21493869D01*
X56908517Y-21448036D01*
X56880567Y-21395745D01*
X56863356Y-21339006D01*
X56863355Y-21339004D01*
X56857544Y-21280000D01*
X56858399Y-21271316D01*
X56859001Y-21259064D01*
X56859001Y-21057869D01*
X56856599Y-21033483D01*
X56849486Y-21010034D01*
X56837935Y-20988423D01*
X56822390Y-20969481D01*
X56803448Y-20953936D01*
X56781837Y-20942385D01*
X56758388Y-20935272D01*
X56734002Y-20932870D01*
X56709616Y-20935272D01*
X56686167Y-20942385D01*
X56664556Y-20953936D01*
X56645614Y-20969481D01*
X56630069Y-20988423D01*
X56604495Y-21026697D01*
X56506851Y-21124341D01*
X56392041Y-21201054D01*
X56264465Y-21253898D01*
X56129036Y-21280836D01*
X55990948Y-21280836D01*
X55855519Y-21253898D01*
X55727943Y-21201054D01*
X55613133Y-21124341D01*
X55515487Y-21026695D01*
X55438774Y-20911885D01*
X55385930Y-20784309D01*
X55358992Y-20648880D01*
X55358992Y-20510792D01*
X55385930Y-20375363D01*
X55438774Y-20247787D01*
X55515487Y-20132977D01*
X55613133Y-20035331D01*
X55727943Y-19958618D01*
X55855519Y-19905774D01*
X55990948Y-19878836D01*
X56129036Y-19878836D01*
X56264465Y-19905774D01*
X56392041Y-19958618D01*
X56506851Y-20035331D01*
X56604495Y-20132975D01*
X56630069Y-20171249D01*
X56645614Y-20190191D01*
X56664556Y-20205736D01*
X56686167Y-20217287D01*
X56709616Y-20224400D01*
X56734002Y-20226802D01*
X56758388Y-20224400D01*
X56781837Y-20217287D01*
X56803448Y-20205736D01*
X56822390Y-20190191D01*
X56837935Y-20171249D01*
X56849486Y-20149638D01*
X56856599Y-20126189D01*
X56859001Y-20101803D01*
X56859001Y-19474475D01*
X56859000Y-17700926D01*
X56858398Y-17688674D01*
X56857544Y-17680000D01*
X56863355Y-17620996D01*
X56880568Y-17564253D01*
X56908514Y-17511969D01*
X56908515Y-17511968D01*
X56908517Y-17511964D01*
X56946131Y-17466131D01*
X56991964Y-17428517D01*
X56991968Y-17428515D01*
X56991969Y-17428514D01*
X57044253Y-17400568D01*
X57044255Y-17400567D01*
X57072625Y-17391961D01*
X57100996Y-17383355D01*
X57151326Y-17378398D01*
X57160000Y-17377544D01*
X57168673Y-17378398D01*
X57180925Y-17379000D01*
X57539074Y-17379000D01*
X57551326Y-17378398D01*
X57560000Y-17377544D01*
X57568673Y-17378398D01*
X57580925Y-17379000D01*
X57736289Y-17379000D01*
X57760675Y-17376598D01*
X57784124Y-17369485D01*
X57805735Y-17357934D01*
X57824677Y-17342389D01*
X57840221Y-17323447D01*
X57871619Y-17276457D01*
X57871621Y-17276455D01*
X57871623Y-17276452D01*
X58156452Y-16991623D01*
X58491377Y-16767833D01*
X58645526Y-16703983D01*
X58863526Y-16613684D01*
X59258594Y-16535100D01*
X59661406Y-16535100D01*
X60056474Y-16613684D01*
X60056474Y-16613684D01*
G37*
G36*
X40556474Y-16613684D02*
G01*
X40774474Y-16703983D01*
X40928623Y-16767833D01*
X41263548Y-16991623D01*
X41548377Y-17276452D01*
X41548379Y-17276455D01*
X41548381Y-17276457D01*
X41579779Y-17323447D01*
X41595324Y-17342389D01*
X41614266Y-17357934D01*
X41635877Y-17369485D01*
X41659326Y-17376598D01*
X41683711Y-17379000D01*
X41835546Y-17379000D01*
X41847798Y-17378398D01*
X41865000Y-17376704D01*
X41882202Y-17378398D01*
X41894454Y-17379000D01*
X42239074Y-17379000D01*
X42251326Y-17378398D01*
X42260000Y-17377544D01*
X42268673Y-17378398D01*
X42268675Y-17378398D01*
X42319004Y-17383355D01*
X42347375Y-17391961D01*
X42375745Y-17400567D01*
X42375747Y-17400568D01*
X42428031Y-17428514D01*
X42428032Y-17428515D01*
X42428036Y-17428517D01*
X42473869Y-17466131D01*
X42511483Y-17511964D01*
X42511485Y-17511968D01*
X42511486Y-17511969D01*
X42539432Y-17564253D01*
X42556645Y-17620996D01*
X42562456Y-17680000D01*
X42561602Y-17688674D01*
X42561000Y-17700926D01*
X42561000Y-20334514D01*
X42561602Y-20346766D01*
X42564875Y-20380000D01*
X42561602Y-20413234D01*
X42561000Y-20425486D01*
X42561000Y-21259074D01*
X42561602Y-21271326D01*
X42562456Y-21280000D01*
X42561602Y-21288674D01*
X42556645Y-21339004D01*
X42556644Y-21339006D01*
X42539433Y-21395745D01*
X42511483Y-21448036D01*
X42473869Y-21493869D01*
X42428036Y-21531483D01*
X42428032Y-21531485D01*
X42428031Y-21531486D01*
X42377317Y-21558593D01*
X42375745Y-21559433D01*
X42347376Y-21568038D01*
X42319004Y-21576645D01*
X42260000Y-21582456D01*
X42251327Y-21581602D01*
X42239075Y-21581000D01*
X41877397Y-21581000D01*
X41865145Y-21581602D01*
X41865000Y-21581616D01*
X41864855Y-21581602D01*
X41852603Y-21581000D01*
X38080926Y-21581000D01*
X38068674Y-21581602D01*
X38060000Y-21582456D01*
X38051327Y-21581602D01*
X38039075Y-21581000D01*
X37680926Y-21581000D01*
X37668674Y-21581602D01*
X37660000Y-21582456D01*
X37651327Y-21581602D01*
X37651325Y-21581602D01*
X37600996Y-21576645D01*
X37572624Y-21568038D01*
X37544255Y-21559433D01*
X37542683Y-21558593D01*
X37491969Y-21531486D01*
X37491968Y-21531485D01*
X37491964Y-21531483D01*
X37446131Y-21493869D01*
X37408517Y-21448036D01*
X37380567Y-21395745D01*
X37363356Y-21339006D01*
X37363355Y-21339004D01*
X37357544Y-21280000D01*
X37358399Y-21271316D01*
X37359001Y-21259064D01*
X37359001Y-21057869D01*
X37356599Y-21033483D01*
X37349486Y-21010034D01*
X37337935Y-20988423D01*
X37322390Y-20969481D01*
X37303448Y-20953936D01*
X37281837Y-20942385D01*
X37258388Y-20935272D01*
X37234002Y-20932870D01*
X37209616Y-20935272D01*
X37186167Y-20942385D01*
X37164556Y-20953936D01*
X37145614Y-20969481D01*
X37130069Y-20988423D01*
X37104495Y-21026697D01*
X37006851Y-21124341D01*
X36892041Y-21201054D01*
X36764465Y-21253898D01*
X36629036Y-21280836D01*
X36490948Y-21280836D01*
X36355519Y-21253898D01*
X36227943Y-21201054D01*
X36113133Y-21124341D01*
X36015487Y-21026695D01*
X35938774Y-20911885D01*
X35885930Y-20784309D01*
X35858992Y-20648880D01*
X35858992Y-20510792D01*
X35885930Y-20375363D01*
X35938774Y-20247787D01*
X36015487Y-20132977D01*
X36113133Y-20035331D01*
X36227943Y-19958618D01*
X36355519Y-19905774D01*
X36490948Y-19878836D01*
X36629036Y-19878836D01*
X36764465Y-19905774D01*
X36892041Y-19958618D01*
X37006851Y-20035331D01*
X37104495Y-20132975D01*
X37130069Y-20171249D01*
X37145614Y-20190191D01*
X37164556Y-20205736D01*
X37186167Y-20217287D01*
X37209616Y-20224400D01*
X37234002Y-20226802D01*
X37258388Y-20224400D01*
X37281837Y-20217287D01*
X37303448Y-20205736D01*
X37322390Y-20190191D01*
X37337935Y-20171249D01*
X37349486Y-20149638D01*
X37356599Y-20126189D01*
X37359001Y-20101803D01*
X37359001Y-19474475D01*
X37359000Y-17700926D01*
X37358398Y-17688674D01*
X37357544Y-17680000D01*
X37363355Y-17620996D01*
X37380568Y-17564253D01*
X37408514Y-17511969D01*
X37408515Y-17511968D01*
X37408517Y-17511964D01*
X37446131Y-17466131D01*
X37491964Y-17428517D01*
X37491968Y-17428515D01*
X37491969Y-17428514D01*
X37544253Y-17400568D01*
X37544255Y-17400567D01*
X37572625Y-17391961D01*
X37600996Y-17383355D01*
X37651326Y-17378398D01*
X37660000Y-17377544D01*
X37668673Y-17378398D01*
X37680925Y-17379000D01*
X38039074Y-17379000D01*
X38051326Y-17378398D01*
X38060000Y-17377544D01*
X38068673Y-17378398D01*
X38080925Y-17379000D01*
X38236289Y-17379000D01*
X38260675Y-17376598D01*
X38284124Y-17369485D01*
X38305735Y-17357934D01*
X38324677Y-17342389D01*
X38340221Y-17323447D01*
X38371619Y-17276457D01*
X38371621Y-17276455D01*
X38371623Y-17276452D01*
X38656452Y-16991623D01*
X38991377Y-16767833D01*
X39145526Y-16703983D01*
X39363526Y-16613684D01*
X39758594Y-16535100D01*
X40161406Y-16535100D01*
X40556474Y-16613684D01*
X40556474Y-16613684D01*
G37*
G36*
X9421883Y-18378335D02*
G01*
X9590640Y-18448236D01*
X9742518Y-18549718D01*
X9871682Y-18678882D01*
X9973164Y-18830760D01*
X10043065Y-18999517D01*
X10078700Y-19178668D01*
X10078700Y-19361332D01*
X10043065Y-19540483D01*
X9973164Y-19709240D01*
X9871682Y-19861118D01*
X9742518Y-19990282D01*
X9590640Y-20091764D01*
X9421883Y-20161665D01*
X9242732Y-20197300D01*
X9060068Y-20197300D01*
X8880917Y-20161665D01*
X8712160Y-20091764D01*
X8560282Y-19990282D01*
X8431118Y-19861118D01*
X8329636Y-19709240D01*
X8259735Y-19540483D01*
X8224100Y-19361332D01*
X8224100Y-19178668D01*
X8259735Y-18999517D01*
X8329636Y-18830760D01*
X8431118Y-18678882D01*
X8560282Y-18549718D01*
X8712160Y-18448236D01*
X8880917Y-18378335D01*
X9060068Y-18342700D01*
X9242732Y-18342700D01*
X9421883Y-18378335D01*
X9421883Y-18378335D01*
G37*
G36*
X25119083Y-18378335D02*
G01*
X25287840Y-18448236D01*
X25439718Y-18549718D01*
X25568882Y-18678882D01*
X25670364Y-18830760D01*
X25740265Y-18999517D01*
X25775900Y-19178668D01*
X25775900Y-19361332D01*
X25740265Y-19540483D01*
X25670364Y-19709240D01*
X25568882Y-19861118D01*
X25439718Y-19990282D01*
X25287840Y-20091764D01*
X25119083Y-20161665D01*
X24939932Y-20197300D01*
X24757268Y-20197300D01*
X24578117Y-20161665D01*
X24409360Y-20091764D01*
X24257482Y-19990282D01*
X24128318Y-19861118D01*
X24026836Y-19709240D01*
X23956935Y-19540483D01*
X23921300Y-19361332D01*
X23921300Y-19178668D01*
X23956935Y-18999517D01*
X24026836Y-18830760D01*
X24128318Y-18678882D01*
X24257482Y-18549718D01*
X24409360Y-18448236D01*
X24578117Y-18378335D01*
X24757268Y-18342700D01*
X24939932Y-18342700D01*
X25119083Y-18378335D01*
X25119083Y-18378335D01*
G37*
G36*
X35150104Y-17689585D02*
G01*
X35318626Y-17759389D01*
X35470291Y-17860728D01*
X35599272Y-17989709D01*
X35700611Y-18141374D01*
X35770415Y-18309896D01*
X35806000Y-18488797D01*
X35806000Y-18671203D01*
X35770415Y-18850104D01*
X35700611Y-19018626D01*
X35599272Y-19170291D01*
X35470291Y-19299272D01*
X35318626Y-19400611D01*
X35150104Y-19470415D01*
X34971203Y-19506000D01*
X34788797Y-19506000D01*
X34630300Y-19474474D01*
X34605929Y-19472073D01*
X34581550Y-19474474D01*
X34548741Y-19481000D01*
X34371258Y-19481000D01*
X34338455Y-19474475D01*
X34197188Y-19446376D01*
X34033216Y-19378456D01*
X33885646Y-19279853D01*
X33760147Y-19154354D01*
X33661544Y-19006784D01*
X33593624Y-18842812D01*
X33559000Y-18668741D01*
X33559000Y-18491259D01*
X33593624Y-18317188D01*
X33661544Y-18153216D01*
X33760147Y-18005646D01*
X33885646Y-17880147D01*
X34033216Y-17781544D01*
X34197188Y-17713624D01*
X34346488Y-17683927D01*
X34371258Y-17679000D01*
X34548741Y-17679000D01*
X34581550Y-17685526D01*
X34605926Y-17687927D01*
X34630300Y-17685526D01*
X34788797Y-17654000D01*
X34971203Y-17654000D01*
X35150104Y-17689585D01*
X35150104Y-17689585D01*
G37*
G36*
X84289700Y-17685526D02*
G01*
X84314071Y-17687927D01*
X84338450Y-17685526D01*
X84371259Y-17679000D01*
X84548742Y-17679000D01*
X84573512Y-17683927D01*
X84722812Y-17713624D01*
X84886784Y-17781544D01*
X85034354Y-17880147D01*
X85159853Y-18005646D01*
X85258456Y-18153216D01*
X85326376Y-18317188D01*
X85361000Y-18491259D01*
X85361000Y-18668741D01*
X85326376Y-18842812D01*
X85258456Y-19006784D01*
X85159853Y-19154354D01*
X85034354Y-19279853D01*
X84886784Y-19378456D01*
X84722812Y-19446376D01*
X84581545Y-19474475D01*
X84548742Y-19481000D01*
X84371259Y-19481000D01*
X84338450Y-19474474D01*
X84314074Y-19472073D01*
X84289700Y-19474474D01*
X84131203Y-19506000D01*
X83948797Y-19506000D01*
X83769896Y-19470415D01*
X83601374Y-19400611D01*
X83449709Y-19299272D01*
X83320728Y-19170291D01*
X83219389Y-19018626D01*
X83149585Y-18850104D01*
X83114000Y-18671203D01*
X83114000Y-18488797D01*
X83149585Y-18309896D01*
X83219389Y-18141374D01*
X83320728Y-17989709D01*
X83449709Y-17860728D01*
X83601374Y-17759389D01*
X83769896Y-17689585D01*
X83948797Y-17654000D01*
X84131203Y-17654000D01*
X84289700Y-17685526D01*
X84289700Y-17685526D01*
G37*
G36*
X54650104Y-17689585D02*
G01*
X54818626Y-17759389D01*
X54970291Y-17860728D01*
X55099272Y-17989709D01*
X55200611Y-18141374D01*
X55270415Y-18309896D01*
X55306000Y-18488797D01*
X55306000Y-18671203D01*
X55270415Y-18850104D01*
X55200611Y-19018626D01*
X55099272Y-19170291D01*
X54970291Y-19299272D01*
X54818626Y-19400611D01*
X54650104Y-19470415D01*
X54471203Y-19506000D01*
X54288797Y-19506000D01*
X54130300Y-19474474D01*
X54105929Y-19472073D01*
X54081550Y-19474474D01*
X54048741Y-19481000D01*
X53871258Y-19481000D01*
X53838455Y-19474475D01*
X53697188Y-19446376D01*
X53533216Y-19378456D01*
X53385646Y-19279853D01*
X53260147Y-19154354D01*
X53161544Y-19006784D01*
X53093624Y-18842812D01*
X53059000Y-18668741D01*
X53059000Y-18491259D01*
X53093624Y-18317188D01*
X53161544Y-18153216D01*
X53260147Y-18005646D01*
X53385646Y-17880147D01*
X53533216Y-17781544D01*
X53697188Y-17713624D01*
X53846488Y-17683927D01*
X53871258Y-17679000D01*
X54048741Y-17679000D01*
X54081550Y-17685526D01*
X54105926Y-17687927D01*
X54130300Y-17685526D01*
X54288797Y-17654000D01*
X54471203Y-17654000D01*
X54650104Y-17689585D01*
X54650104Y-17689585D01*
G37*
G36*
X74150104Y-17689585D02*
G01*
X74318626Y-17759389D01*
X74470291Y-17860728D01*
X74599272Y-17989709D01*
X74700611Y-18141374D01*
X74770415Y-18309896D01*
X74806000Y-18488797D01*
X74806000Y-18671203D01*
X74770415Y-18850104D01*
X74700611Y-19018626D01*
X74599272Y-19170291D01*
X74470291Y-19299272D01*
X74318626Y-19400611D01*
X74150104Y-19470415D01*
X73971203Y-19506000D01*
X73788797Y-19506000D01*
X73630300Y-19474474D01*
X73605929Y-19472073D01*
X73581550Y-19474474D01*
X73548741Y-19481000D01*
X73371258Y-19481000D01*
X73338455Y-19474475D01*
X73197188Y-19446376D01*
X73033216Y-19378456D01*
X72885646Y-19279853D01*
X72760147Y-19154354D01*
X72661544Y-19006784D01*
X72593624Y-18842812D01*
X72559000Y-18668741D01*
X72559000Y-18491259D01*
X72593624Y-18317188D01*
X72661544Y-18153216D01*
X72760147Y-18005646D01*
X72885646Y-17880147D01*
X73033216Y-17781544D01*
X73197188Y-17713624D01*
X73346488Y-17683927D01*
X73371258Y-17679000D01*
X73548741Y-17679000D01*
X73581550Y-17685526D01*
X73605926Y-17687927D01*
X73630300Y-17685526D01*
X73788797Y-17654000D01*
X73971203Y-17654000D01*
X74150104Y-17689585D01*
X74150104Y-17689585D01*
G37*
G36*
X45289700Y-17685526D02*
G01*
X45314071Y-17687927D01*
X45338450Y-17685526D01*
X45371259Y-17679000D01*
X45548742Y-17679000D01*
X45573512Y-17683927D01*
X45722812Y-17713624D01*
X45886784Y-17781544D01*
X46034354Y-17880147D01*
X46159853Y-18005646D01*
X46258456Y-18153216D01*
X46326376Y-18317188D01*
X46361000Y-18491259D01*
X46361000Y-18668741D01*
X46326376Y-18842812D01*
X46258456Y-19006784D01*
X46159853Y-19154354D01*
X46034354Y-19279853D01*
X45886784Y-19378456D01*
X45722812Y-19446376D01*
X45581545Y-19474475D01*
X45548742Y-19481000D01*
X45371259Y-19481000D01*
X45338450Y-19474474D01*
X45314074Y-19472073D01*
X45289700Y-19474474D01*
X45131203Y-19506000D01*
X44948797Y-19506000D01*
X44769896Y-19470415D01*
X44601374Y-19400611D01*
X44449709Y-19299272D01*
X44320728Y-19170291D01*
X44219389Y-19018626D01*
X44149585Y-18850104D01*
X44114000Y-18671203D01*
X44114000Y-18488797D01*
X44149585Y-18309896D01*
X44219389Y-18141374D01*
X44320728Y-17989709D01*
X44449709Y-17860728D01*
X44601374Y-17759389D01*
X44769896Y-17689585D01*
X44948797Y-17654000D01*
X45131203Y-17654000D01*
X45289700Y-17685526D01*
X45289700Y-17685526D01*
G37*
G36*
X64789700Y-17685526D02*
G01*
X64814071Y-17687927D01*
X64838450Y-17685526D01*
X64871259Y-17679000D01*
X65048742Y-17679000D01*
X65073512Y-17683927D01*
X65222812Y-17713624D01*
X65386784Y-17781544D01*
X65534354Y-17880147D01*
X65659853Y-18005646D01*
X65758456Y-18153216D01*
X65826376Y-18317188D01*
X65861000Y-18491259D01*
X65861000Y-18668741D01*
X65826376Y-18842812D01*
X65758456Y-19006784D01*
X65659853Y-19154354D01*
X65534354Y-19279853D01*
X65386784Y-19378456D01*
X65222812Y-19446376D01*
X65081545Y-19474475D01*
X65048742Y-19481000D01*
X64871259Y-19481000D01*
X64838450Y-19474474D01*
X64814074Y-19472073D01*
X64789700Y-19474474D01*
X64631203Y-19506000D01*
X64448797Y-19506000D01*
X64269896Y-19470415D01*
X64101374Y-19400611D01*
X63949709Y-19299272D01*
X63820728Y-19170291D01*
X63719389Y-19018626D01*
X63649585Y-18850104D01*
X63614000Y-18671203D01*
X63614000Y-18488797D01*
X63649585Y-18309896D01*
X63719389Y-18141374D01*
X63820728Y-17989709D01*
X63949709Y-17860728D01*
X64101374Y-17759389D01*
X64269896Y-17689585D01*
X64448797Y-17654000D01*
X64631203Y-17654000D01*
X64789700Y-17685526D01*
X64789700Y-17685526D01*
G37*
G36*
X24661883Y-15838335D02*
G01*
X24830640Y-15908236D01*
X24982518Y-16009718D01*
X25111682Y-16138882D01*
X25213164Y-16290760D01*
X25283065Y-16459517D01*
X25318700Y-16638668D01*
X25318700Y-16821332D01*
X25283065Y-17000483D01*
X25213164Y-17169240D01*
X25111682Y-17321118D01*
X24982518Y-17450282D01*
X24830640Y-17551764D01*
X24661883Y-17621665D01*
X24482732Y-17657300D01*
X24300068Y-17657300D01*
X24120917Y-17621665D01*
X23952160Y-17551764D01*
X23800282Y-17450282D01*
X23671118Y-17321118D01*
X23569636Y-17169240D01*
X23499735Y-17000483D01*
X23464100Y-16821332D01*
X23464100Y-16638668D01*
X23499735Y-16459517D01*
X23569636Y-16290760D01*
X23671118Y-16138882D01*
X23800282Y-16009718D01*
X23952160Y-15908236D01*
X24120917Y-15838335D01*
X24300068Y-15802700D01*
X24482732Y-15802700D01*
X24661883Y-15838335D01*
X24661883Y-15838335D01*
G37*
G36*
X9879083Y-15838335D02*
G01*
X10047840Y-15908236D01*
X10199718Y-16009718D01*
X10328882Y-16138882D01*
X10430364Y-16290760D01*
X10500265Y-16459517D01*
X10535900Y-16638668D01*
X10535900Y-16821332D01*
X10500265Y-17000483D01*
X10430364Y-17169240D01*
X10328882Y-17321118D01*
X10199718Y-17450282D01*
X10047840Y-17551764D01*
X9879083Y-17621665D01*
X9699932Y-17657300D01*
X9517268Y-17657300D01*
X9338117Y-17621665D01*
X9169360Y-17551764D01*
X9017482Y-17450282D01*
X8888318Y-17321118D01*
X8786836Y-17169240D01*
X8716935Y-17000483D01*
X8681300Y-16821332D01*
X8681300Y-16638668D01*
X8716935Y-16459517D01*
X8786836Y-16290760D01*
X8888318Y-16138882D01*
X9017482Y-16009718D01*
X9169360Y-15908236D01*
X9338117Y-15838335D01*
X9517268Y-15802700D01*
X9699932Y-15802700D01*
X9879083Y-15838335D01*
X9879083Y-15838335D01*
G37*
G36*
X37526167Y-13407147D02*
G01*
X37603432Y-13414042D01*
X37607798Y-13414829D01*
X37609034Y-13414917D01*
X37611891Y-13414840D01*
X37612429Y-13414891D01*
X37624259Y-13416659D01*
X37681992Y-13428405D01*
X37683702Y-13428740D01*
X37741852Y-13439728D01*
X37752717Y-13442337D01*
X37829262Y-13464721D01*
X37829293Y-13464616D01*
X37829642Y-13464748D01*
X37829619Y-13464825D01*
X37830698Y-13465149D01*
X37834062Y-13466424D01*
X37835264Y-13466723D01*
X37836388Y-13466888D01*
X37847109Y-13470726D01*
X37901435Y-13493452D01*
X37903049Y-13494114D01*
X37957983Y-13516198D01*
X37968115Y-13520859D01*
X38038683Y-13557595D01*
X38039374Y-13557957D01*
X38044923Y-13560895D01*
X38055200Y-13567045D01*
X38104113Y-13599914D01*
X38105568Y-13600878D01*
X38155126Y-13633185D01*
X38164158Y-13639723D01*
X38215332Y-13680721D01*
X38220383Y-13685542D01*
X38226016Y-13690055D01*
X38225742Y-13690398D01*
X38226033Y-13690620D01*
X38226304Y-13690287D01*
X38233884Y-13696446D01*
X38234080Y-13696623D01*
X38236129Y-13697891D01*
X38240606Y-13701936D01*
X38282179Y-13743656D01*
X38283421Y-13744885D01*
X38325786Y-13786227D01*
X38333384Y-13794404D01*
X38378588Y-13848085D01*
X38381834Y-13852878D01*
X38384286Y-13855790D01*
X38384123Y-13855928D01*
X38384386Y-13856192D01*
X38384525Y-13856076D01*
X38385772Y-13857578D01*
X38389900Y-13861708D01*
X38396296Y-13870290D01*
X38428962Y-13919270D01*
X38429940Y-13920715D01*
X38463476Y-13969511D01*
X38469338Y-13979003D01*
X38507801Y-14048678D01*
X38508202Y-14049409D01*
X38511155Y-14054847D01*
X38516313Y-14065662D01*
X38538851Y-14120075D01*
X38539530Y-14121684D01*
X38562945Y-14176052D01*
X38566855Y-14186512D01*
X38591096Y-14262470D01*
X38591113Y-14262465D01*
X38591198Y-14262816D01*
X38591383Y-14263390D01*
X38593144Y-14269042D01*
X38596096Y-14280625D01*
X38607643Y-14338413D01*
X38607997Y-14340124D01*
X38620400Y-14397975D01*
X38622203Y-14408986D01*
X38631183Y-14487794D01*
X38631270Y-14488577D01*
X38631961Y-14495042D01*
X38632609Y-14506992D01*
X38632712Y-14565949D01*
X38632727Y-14567691D01*
X38633655Y-14626842D01*
X38633286Y-14637978D01*
X38626751Y-14717457D01*
X38627156Y-14717490D01*
X38627097Y-14717863D01*
X38626720Y-14717829D01*
X38626142Y-14724306D01*
X38624457Y-14736142D01*
X38613107Y-14793996D01*
X38612783Y-14795710D01*
X38602207Y-14853904D01*
X38599679Y-14864767D01*
X38577920Y-14941154D01*
X38577616Y-14942207D01*
X38575909Y-14948046D01*
X38571950Y-14959352D01*
X38549607Y-15013829D01*
X38548956Y-15015448D01*
X38527255Y-15070537D01*
X38522656Y-15080722D01*
X38486524Y-15151330D01*
X38486026Y-15152294D01*
X38483165Y-15157792D01*
X38477090Y-15168104D01*
X38444591Y-15217204D01*
X38443637Y-15218667D01*
X38411646Y-15268498D01*
X38405165Y-15277584D01*
X38355827Y-15340056D01*
X38355394Y-15340601D01*
X38351452Y-15345521D01*
X38343486Y-15354463D01*
X38337308Y-15360705D01*
X38325410Y-15374635D01*
X38324599Y-15375739D01*
X38317580Y-15384375D01*
X37059265Y-16786772D01*
X37059299Y-16786802D01*
X37055303Y-16790626D01*
X37051036Y-16795826D01*
X37050729Y-16796286D01*
X37009698Y-16842015D01*
X37009134Y-16842639D01*
X37005002Y-16847181D01*
X36996484Y-16855611D01*
X36949341Y-16897612D01*
X36944105Y-16902554D01*
X36904699Y-16941960D01*
X36887390Y-16956164D01*
X36714238Y-17071860D01*
X36694488Y-17082417D01*
X36502083Y-17162114D01*
X36480664Y-17168612D01*
X36276409Y-17209241D01*
X36254129Y-17211435D01*
X36045871Y-17211435D01*
X36023591Y-17209241D01*
X35819336Y-17168612D01*
X35797917Y-17162114D01*
X35605512Y-17082417D01*
X35585762Y-17071860D01*
X35412610Y-16956164D01*
X35395301Y-16941960D01*
X35248040Y-16794699D01*
X35233836Y-16777390D01*
X35118140Y-16604238D01*
X35107583Y-16584488D01*
X35027886Y-16392083D01*
X35021388Y-16370664D01*
X34980759Y-16166409D01*
X34978565Y-16144129D01*
X34978565Y-15935871D01*
X34980759Y-15913591D01*
X35021388Y-15709336D01*
X35027886Y-15687917D01*
X35107583Y-15495512D01*
X35118137Y-15475767D01*
X35139219Y-15444216D01*
X35148405Y-15427957D01*
X35159097Y-15405217D01*
X35170506Y-15386066D01*
X35246111Y-15283453D01*
X35253157Y-15274809D01*
X36598761Y-13779477D01*
X36599524Y-13778636D01*
X36603652Y-13774113D01*
X36612183Y-13765695D01*
X36639788Y-13741172D01*
X36645620Y-13735646D01*
X36672289Y-13708697D01*
X36680534Y-13701142D01*
X36734805Y-13656086D01*
X36739754Y-13652763D01*
X36742254Y-13650687D01*
X36742412Y-13650877D01*
X36742706Y-13650636D01*
X36742549Y-13650444D01*
X36744583Y-13648779D01*
X36748375Y-13644993D01*
X36756837Y-13638776D01*
X36806070Y-13606436D01*
X36807520Y-13605469D01*
X36856529Y-13572289D01*
X36866066Y-13566490D01*
X36929444Y-13532078D01*
X36935091Y-13529700D01*
X36936439Y-13528968D01*
X36936504Y-13529087D01*
X36936830Y-13528911D01*
X36936766Y-13528792D01*
X36938490Y-13527872D01*
X36942972Y-13524842D01*
X36953025Y-13520133D01*
X37007627Y-13497961D01*
X37009237Y-13497294D01*
X37063753Y-13474266D01*
X37074266Y-13470419D01*
X37141711Y-13449412D01*
X37149237Y-13447703D01*
X37150553Y-13447293D01*
X37150585Y-13447397D01*
X37150949Y-13447314D01*
X37150909Y-13447183D01*
X37159024Y-13444717D01*
X37161346Y-13443627D01*
X37168569Y-13441839D01*
X37226428Y-13430698D01*
X37228139Y-13430356D01*
X37286069Y-13418360D01*
X37297112Y-13416631D01*
X37364243Y-13409456D01*
X37370948Y-13409349D01*
X37376457Y-13408760D01*
X37376497Y-13409135D01*
X37376857Y-13409091D01*
X37376820Y-13408722D01*
X37384900Y-13407915D01*
X37387838Y-13407257D01*
X37395190Y-13406910D01*
X37454161Y-13407219D01*
X37455908Y-13407216D01*
X37515015Y-13406700D01*
X37526167Y-13407147D01*
X37526167Y-13407147D01*
G37*
G36*
X57026167Y-13407147D02*
G01*
X57103432Y-13414042D01*
X57107798Y-13414829D01*
X57109034Y-13414917D01*
X57111891Y-13414840D01*
X57112429Y-13414891D01*
X57124259Y-13416659D01*
X57181992Y-13428405D01*
X57183702Y-13428740D01*
X57241852Y-13439728D01*
X57252717Y-13442337D01*
X57329262Y-13464721D01*
X57329293Y-13464616D01*
X57329642Y-13464748D01*
X57329619Y-13464825D01*
X57330698Y-13465149D01*
X57334062Y-13466424D01*
X57335264Y-13466723D01*
X57336388Y-13466888D01*
X57347109Y-13470726D01*
X57401435Y-13493452D01*
X57403049Y-13494114D01*
X57457983Y-13516198D01*
X57468115Y-13520859D01*
X57538683Y-13557595D01*
X57539374Y-13557957D01*
X57544923Y-13560895D01*
X57555200Y-13567045D01*
X57604113Y-13599914D01*
X57605568Y-13600878D01*
X57655126Y-13633185D01*
X57664158Y-13639723D01*
X57715332Y-13680721D01*
X57720383Y-13685542D01*
X57726016Y-13690055D01*
X57725742Y-13690398D01*
X57726033Y-13690620D01*
X57726304Y-13690287D01*
X57733884Y-13696446D01*
X57734080Y-13696623D01*
X57736129Y-13697891D01*
X57740606Y-13701936D01*
X57782179Y-13743656D01*
X57783421Y-13744885D01*
X57825786Y-13786227D01*
X57833384Y-13794404D01*
X57878588Y-13848085D01*
X57881834Y-13852878D01*
X57884286Y-13855790D01*
X57884123Y-13855928D01*
X57884386Y-13856192D01*
X57884525Y-13856076D01*
X57885772Y-13857578D01*
X57889900Y-13861708D01*
X57896296Y-13870290D01*
X57928962Y-13919270D01*
X57929940Y-13920715D01*
X57963476Y-13969511D01*
X57969338Y-13979003D01*
X58007801Y-14048678D01*
X58008202Y-14049409D01*
X58011155Y-14054847D01*
X58016313Y-14065662D01*
X58038851Y-14120075D01*
X58039530Y-14121684D01*
X58062945Y-14176052D01*
X58066855Y-14186512D01*
X58091096Y-14262470D01*
X58091113Y-14262465D01*
X58091198Y-14262816D01*
X58091383Y-14263390D01*
X58093144Y-14269042D01*
X58096096Y-14280625D01*
X58107643Y-14338413D01*
X58107997Y-14340124D01*
X58120400Y-14397975D01*
X58122203Y-14408986D01*
X58131183Y-14487794D01*
X58131270Y-14488577D01*
X58131961Y-14495042D01*
X58132609Y-14506992D01*
X58132712Y-14565949D01*
X58132727Y-14567691D01*
X58133655Y-14626842D01*
X58133286Y-14637978D01*
X58126751Y-14717457D01*
X58127156Y-14717490D01*
X58127097Y-14717863D01*
X58126720Y-14717829D01*
X58126142Y-14724306D01*
X58124457Y-14736142D01*
X58113107Y-14793996D01*
X58112783Y-14795710D01*
X58102207Y-14853904D01*
X58099679Y-14864767D01*
X58077920Y-14941154D01*
X58077616Y-14942207D01*
X58075909Y-14948046D01*
X58071950Y-14959352D01*
X58049607Y-15013829D01*
X58048956Y-15015448D01*
X58027255Y-15070537D01*
X58022656Y-15080722D01*
X57986524Y-15151330D01*
X57986026Y-15152294D01*
X57983165Y-15157792D01*
X57977090Y-15168104D01*
X57944591Y-15217204D01*
X57943637Y-15218667D01*
X57911646Y-15268498D01*
X57905165Y-15277584D01*
X57855827Y-15340056D01*
X57855394Y-15340601D01*
X57851452Y-15345521D01*
X57843486Y-15354463D01*
X57837308Y-15360705D01*
X57825410Y-15374635D01*
X57824599Y-15375739D01*
X57817580Y-15384375D01*
X56559265Y-16786772D01*
X56559299Y-16786802D01*
X56555303Y-16790626D01*
X56551036Y-16795826D01*
X56550729Y-16796286D01*
X56509698Y-16842015D01*
X56509134Y-16842639D01*
X56505002Y-16847181D01*
X56496484Y-16855611D01*
X56449341Y-16897612D01*
X56444105Y-16902554D01*
X56404699Y-16941960D01*
X56387390Y-16956164D01*
X56214238Y-17071860D01*
X56194488Y-17082417D01*
X56002083Y-17162114D01*
X55980664Y-17168612D01*
X55776409Y-17209241D01*
X55754129Y-17211435D01*
X55545871Y-17211435D01*
X55523591Y-17209241D01*
X55319336Y-17168612D01*
X55297917Y-17162114D01*
X55105512Y-17082417D01*
X55085762Y-17071860D01*
X54912610Y-16956164D01*
X54895301Y-16941960D01*
X54748040Y-16794699D01*
X54733836Y-16777390D01*
X54618140Y-16604238D01*
X54607583Y-16584488D01*
X54527886Y-16392083D01*
X54521388Y-16370664D01*
X54480759Y-16166409D01*
X54478565Y-16144129D01*
X54478565Y-15935871D01*
X54480759Y-15913591D01*
X54521388Y-15709336D01*
X54527886Y-15687917D01*
X54607583Y-15495512D01*
X54618137Y-15475767D01*
X54639219Y-15444216D01*
X54648405Y-15427957D01*
X54659097Y-15405217D01*
X54670506Y-15386066D01*
X54746111Y-15283453D01*
X54753157Y-15274809D01*
X56098761Y-13779477D01*
X56099524Y-13778636D01*
X56103652Y-13774113D01*
X56112183Y-13765695D01*
X56139788Y-13741172D01*
X56145620Y-13735646D01*
X56172289Y-13708697D01*
X56180534Y-13701142D01*
X56234805Y-13656086D01*
X56239754Y-13652763D01*
X56242254Y-13650687D01*
X56242412Y-13650877D01*
X56242706Y-13650636D01*
X56242549Y-13650444D01*
X56244583Y-13648779D01*
X56248375Y-13644993D01*
X56256837Y-13638776D01*
X56306070Y-13606436D01*
X56307520Y-13605469D01*
X56356529Y-13572289D01*
X56366066Y-13566490D01*
X56429444Y-13532078D01*
X56435091Y-13529700D01*
X56436439Y-13528968D01*
X56436504Y-13529087D01*
X56436830Y-13528911D01*
X56436766Y-13528792D01*
X56438490Y-13527872D01*
X56442972Y-13524842D01*
X56453025Y-13520133D01*
X56507627Y-13497961D01*
X56509237Y-13497294D01*
X56563753Y-13474266D01*
X56574266Y-13470419D01*
X56641711Y-13449412D01*
X56649237Y-13447703D01*
X56650553Y-13447293D01*
X56650585Y-13447397D01*
X56650949Y-13447314D01*
X56650909Y-13447183D01*
X56659024Y-13444717D01*
X56661346Y-13443627D01*
X56668569Y-13441839D01*
X56726428Y-13430698D01*
X56728139Y-13430356D01*
X56786069Y-13418360D01*
X56797112Y-13416631D01*
X56864243Y-13409456D01*
X56870948Y-13409349D01*
X56876457Y-13408760D01*
X56876497Y-13409135D01*
X56876857Y-13409091D01*
X56876820Y-13408722D01*
X56884900Y-13407915D01*
X56887838Y-13407257D01*
X56895190Y-13406910D01*
X56954161Y-13407219D01*
X56955908Y-13407216D01*
X57015015Y-13406700D01*
X57026167Y-13407147D01*
X57026167Y-13407147D01*
G37*
G36*
X76526167Y-13407147D02*
G01*
X76603432Y-13414042D01*
X76607798Y-13414829D01*
X76609034Y-13414917D01*
X76611891Y-13414840D01*
X76612429Y-13414891D01*
X76624259Y-13416659D01*
X76681992Y-13428405D01*
X76683702Y-13428740D01*
X76741852Y-13439728D01*
X76752717Y-13442337D01*
X76829262Y-13464721D01*
X76829293Y-13464616D01*
X76829642Y-13464748D01*
X76829619Y-13464825D01*
X76830698Y-13465149D01*
X76834062Y-13466424D01*
X76835264Y-13466723D01*
X76836388Y-13466888D01*
X76847109Y-13470726D01*
X76901435Y-13493452D01*
X76903049Y-13494114D01*
X76957983Y-13516198D01*
X76968115Y-13520859D01*
X77038683Y-13557595D01*
X77039374Y-13557957D01*
X77044923Y-13560895D01*
X77055200Y-13567045D01*
X77104113Y-13599914D01*
X77105568Y-13600878D01*
X77155126Y-13633185D01*
X77164158Y-13639723D01*
X77215332Y-13680721D01*
X77220383Y-13685542D01*
X77226016Y-13690055D01*
X77225742Y-13690398D01*
X77226033Y-13690620D01*
X77226304Y-13690287D01*
X77233884Y-13696446D01*
X77234080Y-13696623D01*
X77236129Y-13697891D01*
X77240606Y-13701936D01*
X77282179Y-13743656D01*
X77283421Y-13744885D01*
X77325786Y-13786227D01*
X77333384Y-13794404D01*
X77378588Y-13848085D01*
X77381834Y-13852878D01*
X77384286Y-13855790D01*
X77384123Y-13855928D01*
X77384386Y-13856192D01*
X77384525Y-13856076D01*
X77385772Y-13857578D01*
X77389900Y-13861708D01*
X77396296Y-13870290D01*
X77428962Y-13919270D01*
X77429940Y-13920715D01*
X77463476Y-13969511D01*
X77469338Y-13979003D01*
X77507801Y-14048678D01*
X77508202Y-14049409D01*
X77511155Y-14054847D01*
X77516313Y-14065662D01*
X77538851Y-14120075D01*
X77539530Y-14121684D01*
X77562945Y-14176052D01*
X77566855Y-14186512D01*
X77591096Y-14262470D01*
X77591113Y-14262465D01*
X77591198Y-14262816D01*
X77591383Y-14263390D01*
X77593144Y-14269042D01*
X77596096Y-14280625D01*
X77607643Y-14338413D01*
X77607997Y-14340124D01*
X77620400Y-14397975D01*
X77622203Y-14408986D01*
X77631183Y-14487794D01*
X77631270Y-14488577D01*
X77631961Y-14495042D01*
X77632609Y-14506992D01*
X77632712Y-14565949D01*
X77632727Y-14567691D01*
X77633655Y-14626842D01*
X77633286Y-14637978D01*
X77626751Y-14717457D01*
X77627156Y-14717490D01*
X77627097Y-14717863D01*
X77626720Y-14717829D01*
X77626142Y-14724306D01*
X77624457Y-14736142D01*
X77613107Y-14793996D01*
X77612783Y-14795710D01*
X77602207Y-14853904D01*
X77599679Y-14864767D01*
X77577920Y-14941154D01*
X77577616Y-14942207D01*
X77575909Y-14948046D01*
X77571950Y-14959352D01*
X77549607Y-15013829D01*
X77548956Y-15015448D01*
X77527255Y-15070537D01*
X77522656Y-15080722D01*
X77486524Y-15151330D01*
X77486026Y-15152294D01*
X77483165Y-15157792D01*
X77477090Y-15168104D01*
X77444591Y-15217204D01*
X77443637Y-15218667D01*
X77411646Y-15268498D01*
X77405165Y-15277584D01*
X77355827Y-15340056D01*
X77355394Y-15340601D01*
X77351452Y-15345521D01*
X77343486Y-15354463D01*
X77337308Y-15360705D01*
X77325410Y-15374635D01*
X77324599Y-15375739D01*
X77317580Y-15384375D01*
X76059265Y-16786772D01*
X76059299Y-16786802D01*
X76055303Y-16790626D01*
X76051036Y-16795826D01*
X76050729Y-16796286D01*
X76009698Y-16842015D01*
X76009134Y-16842639D01*
X76005002Y-16847181D01*
X75996484Y-16855611D01*
X75949341Y-16897612D01*
X75944105Y-16902554D01*
X75904699Y-16941960D01*
X75887390Y-16956164D01*
X75714238Y-17071860D01*
X75694488Y-17082417D01*
X75502083Y-17162114D01*
X75480664Y-17168612D01*
X75276409Y-17209241D01*
X75254129Y-17211435D01*
X75045871Y-17211435D01*
X75023591Y-17209241D01*
X74819336Y-17168612D01*
X74797917Y-17162114D01*
X74605512Y-17082417D01*
X74585762Y-17071860D01*
X74412610Y-16956164D01*
X74395301Y-16941960D01*
X74248040Y-16794699D01*
X74233836Y-16777390D01*
X74118140Y-16604238D01*
X74107583Y-16584488D01*
X74027886Y-16392083D01*
X74021388Y-16370664D01*
X73980759Y-16166409D01*
X73978565Y-16144129D01*
X73978565Y-15935871D01*
X73980759Y-15913591D01*
X74021388Y-15709336D01*
X74027886Y-15687917D01*
X74107583Y-15495512D01*
X74118137Y-15475767D01*
X74139219Y-15444216D01*
X74148405Y-15427957D01*
X74159097Y-15405217D01*
X74170506Y-15386066D01*
X74246111Y-15283453D01*
X74253157Y-15274809D01*
X75598761Y-13779477D01*
X75599524Y-13778636D01*
X75603652Y-13774113D01*
X75612183Y-13765695D01*
X75639788Y-13741172D01*
X75645620Y-13735646D01*
X75672289Y-13708697D01*
X75680534Y-13701142D01*
X75734805Y-13656086D01*
X75739754Y-13652763D01*
X75742254Y-13650687D01*
X75742412Y-13650877D01*
X75742706Y-13650636D01*
X75742549Y-13650444D01*
X75744583Y-13648779D01*
X75748375Y-13644993D01*
X75756837Y-13638776D01*
X75806070Y-13606436D01*
X75807520Y-13605469D01*
X75856529Y-13572289D01*
X75866066Y-13566490D01*
X75929444Y-13532078D01*
X75935091Y-13529700D01*
X75936439Y-13528968D01*
X75936504Y-13529087D01*
X75936830Y-13528911D01*
X75936766Y-13528792D01*
X75938490Y-13527872D01*
X75942972Y-13524842D01*
X75953025Y-13520133D01*
X76007627Y-13497961D01*
X76009237Y-13497294D01*
X76063753Y-13474266D01*
X76074266Y-13470419D01*
X76141711Y-13449412D01*
X76149237Y-13447703D01*
X76150553Y-13447293D01*
X76150585Y-13447397D01*
X76150949Y-13447314D01*
X76150909Y-13447183D01*
X76159024Y-13444717D01*
X76161346Y-13443627D01*
X76168569Y-13441839D01*
X76226428Y-13430698D01*
X76228139Y-13430356D01*
X76286069Y-13418360D01*
X76297112Y-13416631D01*
X76364243Y-13409456D01*
X76370948Y-13409349D01*
X76376457Y-13408760D01*
X76376497Y-13409135D01*
X76376857Y-13409091D01*
X76376820Y-13408722D01*
X76384900Y-13407915D01*
X76387838Y-13407257D01*
X76395190Y-13406910D01*
X76454161Y-13407219D01*
X76455908Y-13407216D01*
X76515015Y-13406700D01*
X76526167Y-13407147D01*
X76526167Y-13407147D01*
G37*
G36*
X62275585Y-12351118D02*
G01*
X62494517Y-12426823D01*
X62694473Y-12543785D01*
X62867769Y-12697509D01*
X63007745Y-12882087D01*
X63109022Y-13090427D01*
X63167708Y-13314522D01*
X63178079Y-13487813D01*
X63178079Y-13487822D01*
X63155988Y-14062863D01*
X63132186Y-14682473D01*
X63108551Y-14854458D01*
X63032846Y-15073390D01*
X62915884Y-15273346D01*
X62762160Y-15446642D01*
X62577582Y-15586618D01*
X62369242Y-15687895D01*
X62145147Y-15746581D01*
X61913910Y-15760421D01*
X61684415Y-15728882D01*
X61465483Y-15653177D01*
X61265527Y-15536215D01*
X61092231Y-15382491D01*
X60952255Y-15197913D01*
X60850978Y-14989573D01*
X60792292Y-14765478D01*
X60781921Y-14592187D01*
X60785194Y-14506992D01*
X60816193Y-13700046D01*
X60827814Y-13397527D01*
X60851449Y-13225542D01*
X60927154Y-13006610D01*
X61044116Y-12806654D01*
X61197840Y-12633358D01*
X61382418Y-12493382D01*
X61590758Y-12392105D01*
X61814853Y-12333419D01*
X62046090Y-12319579D01*
X62275585Y-12351118D01*
X62275585Y-12351118D01*
G37*
G36*
X42775585Y-12351118D02*
G01*
X42994517Y-12426823D01*
X43194473Y-12543785D01*
X43367769Y-12697509D01*
X43507745Y-12882087D01*
X43609022Y-13090427D01*
X43667708Y-13314522D01*
X43678079Y-13487813D01*
X43678079Y-13487822D01*
X43655988Y-14062863D01*
X43632186Y-14682473D01*
X43608551Y-14854458D01*
X43532846Y-15073390D01*
X43415884Y-15273346D01*
X43262160Y-15446642D01*
X43077582Y-15586618D01*
X42869242Y-15687895D01*
X42645147Y-15746581D01*
X42413910Y-15760421D01*
X42184415Y-15728882D01*
X41965483Y-15653177D01*
X41765527Y-15536215D01*
X41592231Y-15382491D01*
X41452255Y-15197913D01*
X41350978Y-14989573D01*
X41292292Y-14765478D01*
X41281921Y-14592187D01*
X41285194Y-14506992D01*
X41316193Y-13700046D01*
X41327814Y-13397527D01*
X41351449Y-13225542D01*
X41427154Y-13006610D01*
X41544116Y-12806654D01*
X41697840Y-12633358D01*
X41882418Y-12493382D01*
X42090758Y-12392105D01*
X42314853Y-12333419D01*
X42546090Y-12319579D01*
X42775585Y-12351118D01*
X42775585Y-12351118D01*
G37*
G36*
X81775585Y-12351118D02*
G01*
X81994517Y-12426823D01*
X82194473Y-12543785D01*
X82367769Y-12697509D01*
X82507745Y-12882087D01*
X82609022Y-13090427D01*
X82667708Y-13314522D01*
X82678079Y-13487813D01*
X82678079Y-13487822D01*
X82655988Y-14062863D01*
X82632186Y-14682473D01*
X82608551Y-14854458D01*
X82532846Y-15073390D01*
X82415884Y-15273346D01*
X82262160Y-15446642D01*
X82077582Y-15586618D01*
X81869242Y-15687895D01*
X81645147Y-15746581D01*
X81413910Y-15760421D01*
X81184415Y-15728882D01*
X80965483Y-15653177D01*
X80765527Y-15536215D01*
X80592231Y-15382491D01*
X80452255Y-15197913D01*
X80350978Y-14989573D01*
X80292292Y-14765478D01*
X80281921Y-14592187D01*
X80285194Y-14506992D01*
X80316193Y-13700046D01*
X80327814Y-13397527D01*
X80351449Y-13225542D01*
X80427154Y-13006610D01*
X80544116Y-12806654D01*
X80697840Y-12633358D01*
X80882418Y-12493382D01*
X81090758Y-12392105D01*
X81314853Y-12333419D01*
X81546090Y-12319579D01*
X81775585Y-12351118D01*
X81775585Y-12351118D01*
G37*
G36*
X84237395Y-13865546D02*
G01*
X84410466Y-13937234D01*
X84410467Y-13937235D01*
X84566227Y-14041310D01*
X84698690Y-14173773D01*
X84702245Y-14179094D01*
X84802766Y-14329534D01*
X84874454Y-14502605D01*
X84911000Y-14686333D01*
X84911000Y-14873667D01*
X84874454Y-15057395D01*
X84802766Y-15230466D01*
X84802765Y-15230467D01*
X84698690Y-15386227D01*
X84566227Y-15518690D01*
X84540000Y-15536214D01*
X84410466Y-15622766D01*
X84237395Y-15694454D01*
X84053667Y-15731000D01*
X83866333Y-15731000D01*
X83682605Y-15694454D01*
X83509534Y-15622766D01*
X83380000Y-15536214D01*
X83353773Y-15518690D01*
X83221310Y-15386227D01*
X83117235Y-15230467D01*
X83117234Y-15230466D01*
X83045546Y-15057395D01*
X83009000Y-14873667D01*
X83009000Y-14686333D01*
X83045546Y-14502605D01*
X83117234Y-14329534D01*
X83217755Y-14179094D01*
X83221310Y-14173773D01*
X83353773Y-14041310D01*
X83509533Y-13937235D01*
X83509534Y-13937234D01*
X83682605Y-13865546D01*
X83866333Y-13829000D01*
X84053667Y-13829000D01*
X84237395Y-13865546D01*
X84237395Y-13865546D01*
G37*
G36*
X45237395Y-13865546D02*
G01*
X45410466Y-13937234D01*
X45410467Y-13937235D01*
X45566227Y-14041310D01*
X45698690Y-14173773D01*
X45702245Y-14179094D01*
X45802766Y-14329534D01*
X45874454Y-14502605D01*
X45911000Y-14686333D01*
X45911000Y-14873667D01*
X45874454Y-15057395D01*
X45802766Y-15230466D01*
X45802765Y-15230467D01*
X45698690Y-15386227D01*
X45566227Y-15518690D01*
X45540000Y-15536214D01*
X45410466Y-15622766D01*
X45237395Y-15694454D01*
X45053667Y-15731000D01*
X44866333Y-15731000D01*
X44682605Y-15694454D01*
X44509534Y-15622766D01*
X44380000Y-15536214D01*
X44353773Y-15518690D01*
X44221310Y-15386227D01*
X44117235Y-15230467D01*
X44117234Y-15230466D01*
X44045546Y-15057395D01*
X44009000Y-14873667D01*
X44009000Y-14686333D01*
X44045546Y-14502605D01*
X44117234Y-14329534D01*
X44217755Y-14179094D01*
X44221310Y-14173773D01*
X44353773Y-14041310D01*
X44509533Y-13937235D01*
X44509534Y-13937234D01*
X44682605Y-13865546D01*
X44866333Y-13829000D01*
X45053667Y-13829000D01*
X45237395Y-13865546D01*
X45237395Y-13865546D01*
G37*
G36*
X64737395Y-13865546D02*
G01*
X64910466Y-13937234D01*
X64910467Y-13937235D01*
X65066227Y-14041310D01*
X65198690Y-14173773D01*
X65202245Y-14179094D01*
X65302766Y-14329534D01*
X65374454Y-14502605D01*
X65411000Y-14686333D01*
X65411000Y-14873667D01*
X65374454Y-15057395D01*
X65302766Y-15230466D01*
X65302765Y-15230467D01*
X65198690Y-15386227D01*
X65066227Y-15518690D01*
X65040000Y-15536214D01*
X64910466Y-15622766D01*
X64737395Y-15694454D01*
X64553667Y-15731000D01*
X64366333Y-15731000D01*
X64182605Y-15694454D01*
X64009534Y-15622766D01*
X63880000Y-15536214D01*
X63853773Y-15518690D01*
X63721310Y-15386227D01*
X63617235Y-15230467D01*
X63617234Y-15230466D01*
X63545546Y-15057395D01*
X63509000Y-14873667D01*
X63509000Y-14686333D01*
X63545546Y-14502605D01*
X63617234Y-14329534D01*
X63717755Y-14179094D01*
X63721310Y-14173773D01*
X63853773Y-14041310D01*
X64009533Y-13937235D01*
X64009534Y-13937234D01*
X64182605Y-13865546D01*
X64366333Y-13829000D01*
X64553667Y-13829000D01*
X64737395Y-13865546D01*
X64737395Y-13865546D01*
G37*
G36*
X25119083Y-13298335D02*
G01*
X25287840Y-13368236D01*
X25439718Y-13469718D01*
X25568882Y-13598882D01*
X25670364Y-13750760D01*
X25740265Y-13919517D01*
X25775900Y-14098668D01*
X25775900Y-14281332D01*
X25740265Y-14460483D01*
X25670364Y-14629240D01*
X25568882Y-14781118D01*
X25439718Y-14910282D01*
X25287840Y-15011764D01*
X25119083Y-15081665D01*
X24939932Y-15117300D01*
X24757268Y-15117300D01*
X24578117Y-15081665D01*
X24409360Y-15011764D01*
X24257482Y-14910282D01*
X24128318Y-14781118D01*
X24026836Y-14629240D01*
X23956935Y-14460483D01*
X23921300Y-14281332D01*
X23921300Y-14098668D01*
X23956935Y-13919517D01*
X24026836Y-13750760D01*
X24128318Y-13598882D01*
X24257482Y-13469718D01*
X24409360Y-13368236D01*
X24578117Y-13298335D01*
X24757268Y-13262700D01*
X24939932Y-13262700D01*
X25119083Y-13298335D01*
X25119083Y-13298335D01*
G37*
G36*
X9421883Y-13298335D02*
G01*
X9590640Y-13368236D01*
X9742518Y-13469718D01*
X9871682Y-13598882D01*
X9973164Y-13750760D01*
X10043065Y-13919517D01*
X10078700Y-14098668D01*
X10078700Y-14281332D01*
X10043065Y-14460483D01*
X9973164Y-14629240D01*
X9871682Y-14781118D01*
X9742518Y-14910282D01*
X9590640Y-15011764D01*
X9421883Y-15081665D01*
X9242732Y-15117300D01*
X9060068Y-15117300D01*
X8880917Y-15081665D01*
X8712160Y-15011764D01*
X8560282Y-14910282D01*
X8431118Y-14781118D01*
X8329636Y-14629240D01*
X8259735Y-14460483D01*
X8224100Y-14281332D01*
X8224100Y-14098668D01*
X8259735Y-13919517D01*
X8329636Y-13750760D01*
X8431118Y-13598882D01*
X8560282Y-13469718D01*
X8712160Y-13368236D01*
X8880917Y-13298335D01*
X9060068Y-13262700D01*
X9242732Y-13262700D01*
X9421883Y-13298335D01*
X9421883Y-13298335D01*
G37*
G36*
X73664465Y-12405774D02*
G01*
X73792041Y-12458618D01*
X73906851Y-12535331D01*
X74004497Y-12632977D01*
X74081210Y-12747787D01*
X74134054Y-12875363D01*
X74160992Y-13010792D01*
X74160992Y-13148880D01*
X74134054Y-13284309D01*
X74081210Y-13411885D01*
X74004497Y-13526695D01*
X73906851Y-13624341D01*
X73792041Y-13701054D01*
X73664465Y-13753898D01*
X73529036Y-13780836D01*
X73390948Y-13780836D01*
X73255519Y-13753898D01*
X73127943Y-13701054D01*
X73013133Y-13624341D01*
X72915487Y-13526695D01*
X72838774Y-13411885D01*
X72785930Y-13284309D01*
X72758992Y-13148880D01*
X72758992Y-13010792D01*
X72785930Y-12875363D01*
X72838774Y-12747787D01*
X72915487Y-12632977D01*
X73013133Y-12535331D01*
X73127943Y-12458618D01*
X73255519Y-12405774D01*
X73390948Y-12378836D01*
X73529036Y-12378836D01*
X73664465Y-12405774D01*
X73664465Y-12405774D01*
G37*
G36*
X54164465Y-12405774D02*
G01*
X54292041Y-12458618D01*
X54406851Y-12535331D01*
X54504497Y-12632977D01*
X54581210Y-12747787D01*
X54634054Y-12875363D01*
X54660992Y-13010792D01*
X54660992Y-13148880D01*
X54634054Y-13284309D01*
X54581210Y-13411885D01*
X54504497Y-13526695D01*
X54406851Y-13624341D01*
X54292041Y-13701054D01*
X54164465Y-13753898D01*
X54029036Y-13780836D01*
X53890948Y-13780836D01*
X53755519Y-13753898D01*
X53627943Y-13701054D01*
X53513133Y-13624341D01*
X53415487Y-13526695D01*
X53338774Y-13411885D01*
X53285930Y-13284309D01*
X53258992Y-13148880D01*
X53258992Y-13010792D01*
X53285930Y-12875363D01*
X53338774Y-12747787D01*
X53415487Y-12632977D01*
X53513133Y-12535331D01*
X53627943Y-12458618D01*
X53755519Y-12405774D01*
X53890948Y-12378836D01*
X54029036Y-12378836D01*
X54164465Y-12405774D01*
X54164465Y-12405774D01*
G37*
G36*
X34664465Y-12405774D02*
G01*
X34792041Y-12458618D01*
X34906851Y-12535331D01*
X35004497Y-12632977D01*
X35081210Y-12747787D01*
X35134054Y-12875363D01*
X35160992Y-13010792D01*
X35160992Y-13148880D01*
X35134054Y-13284309D01*
X35081210Y-13411885D01*
X35004497Y-13526695D01*
X34906851Y-13624341D01*
X34792041Y-13701054D01*
X34664465Y-13753898D01*
X34529036Y-13780836D01*
X34390948Y-13780836D01*
X34255519Y-13753898D01*
X34127943Y-13701054D01*
X34013133Y-13624341D01*
X33915487Y-13526695D01*
X33838774Y-13411885D01*
X33785930Y-13284309D01*
X33758992Y-13148880D01*
X33758992Y-13010792D01*
X33785930Y-12875363D01*
X33838774Y-12747787D01*
X33915487Y-12632977D01*
X34013133Y-12535331D01*
X34127943Y-12458618D01*
X34255519Y-12405774D01*
X34390948Y-12378836D01*
X34529036Y-12378836D01*
X34664465Y-12405774D01*
X34664465Y-12405774D01*
G37*
G36*
X59693642Y-11909781D02*
G01*
X59839414Y-11970162D01*
X59839416Y-11970163D01*
X59970608Y-12057822D01*
X60082178Y-12169392D01*
X60130103Y-12241118D01*
X60169838Y-12300586D01*
X60230219Y-12446358D01*
X60261000Y-12601107D01*
X60261000Y-12758893D01*
X60230219Y-12913642D01*
X60191711Y-13006608D01*
X60169837Y-13059416D01*
X60082178Y-13190608D01*
X59970608Y-13302178D01*
X59839416Y-13389837D01*
X59839415Y-13389838D01*
X59839414Y-13389838D01*
X59693642Y-13450219D01*
X59538893Y-13481000D01*
X59381107Y-13481000D01*
X59226358Y-13450219D01*
X59080586Y-13389838D01*
X59080585Y-13389838D01*
X59080584Y-13389837D01*
X58949392Y-13302178D01*
X58837822Y-13190608D01*
X58750163Y-13059416D01*
X58728289Y-13006608D01*
X58689781Y-12913642D01*
X58659000Y-12758893D01*
X58659000Y-12601107D01*
X58689781Y-12446358D01*
X58750162Y-12300586D01*
X58789897Y-12241118D01*
X58837822Y-12169392D01*
X58949392Y-12057822D01*
X59080584Y-11970163D01*
X59080586Y-11970162D01*
X59226358Y-11909781D01*
X59381107Y-11879000D01*
X59538893Y-11879000D01*
X59693642Y-11909781D01*
X59693642Y-11909781D01*
G37*
G36*
X79193642Y-11909781D02*
G01*
X79339414Y-11970162D01*
X79339416Y-11970163D01*
X79470608Y-12057822D01*
X79582178Y-12169392D01*
X79630103Y-12241118D01*
X79669838Y-12300586D01*
X79730219Y-12446358D01*
X79761000Y-12601107D01*
X79761000Y-12758893D01*
X79730219Y-12913642D01*
X79691711Y-13006608D01*
X79669837Y-13059416D01*
X79582178Y-13190608D01*
X79470608Y-13302178D01*
X79339416Y-13389837D01*
X79339415Y-13389838D01*
X79339414Y-13389838D01*
X79193642Y-13450219D01*
X79038893Y-13481000D01*
X78881107Y-13481000D01*
X78726358Y-13450219D01*
X78580586Y-13389838D01*
X78580585Y-13389838D01*
X78580584Y-13389837D01*
X78449392Y-13302178D01*
X78337822Y-13190608D01*
X78250163Y-13059416D01*
X78228289Y-13006608D01*
X78189781Y-12913642D01*
X78159000Y-12758893D01*
X78159000Y-12601107D01*
X78189781Y-12446358D01*
X78250162Y-12300586D01*
X78289897Y-12241118D01*
X78337822Y-12169392D01*
X78449392Y-12057822D01*
X78580584Y-11970163D01*
X78580586Y-11970162D01*
X78726358Y-11909781D01*
X78881107Y-11879000D01*
X79038893Y-11879000D01*
X79193642Y-11909781D01*
X79193642Y-11909781D01*
G37*
G36*
X40193642Y-11909781D02*
G01*
X40339414Y-11970162D01*
X40339416Y-11970163D01*
X40470608Y-12057822D01*
X40582178Y-12169392D01*
X40630103Y-12241118D01*
X40669838Y-12300586D01*
X40730219Y-12446358D01*
X40761000Y-12601107D01*
X40761000Y-12758893D01*
X40730219Y-12913642D01*
X40691711Y-13006608D01*
X40669837Y-13059416D01*
X40582178Y-13190608D01*
X40470608Y-13302178D01*
X40339416Y-13389837D01*
X40339415Y-13389838D01*
X40339414Y-13389838D01*
X40193642Y-13450219D01*
X40038893Y-13481000D01*
X39881107Y-13481000D01*
X39726358Y-13450219D01*
X39580586Y-13389838D01*
X39580585Y-13389838D01*
X39580584Y-13389837D01*
X39449392Y-13302178D01*
X39337822Y-13190608D01*
X39250163Y-13059416D01*
X39228289Y-13006608D01*
X39189781Y-12913642D01*
X39159000Y-12758893D01*
X39159000Y-12601107D01*
X39189781Y-12446358D01*
X39250162Y-12300586D01*
X39289897Y-12241118D01*
X39337822Y-12169392D01*
X39449392Y-12057822D01*
X39580584Y-11970163D01*
X39580586Y-11970162D01*
X39726358Y-11909781D01*
X39881107Y-11879000D01*
X40038893Y-11879000D01*
X40193642Y-11909781D01*
X40193642Y-11909781D01*
G37*
G36*
X24661883Y-10758335D02*
G01*
X24830640Y-10828236D01*
X24982518Y-10929718D01*
X25111682Y-11058882D01*
X25213164Y-11210760D01*
X25283065Y-11379517D01*
X25318700Y-11558668D01*
X25318700Y-11741332D01*
X25283065Y-11920483D01*
X25213164Y-12089240D01*
X25111682Y-12241118D01*
X24982518Y-12370282D01*
X24830640Y-12471764D01*
X24661883Y-12541665D01*
X24482732Y-12577300D01*
X24300068Y-12577300D01*
X24120917Y-12541665D01*
X23952160Y-12471764D01*
X23800282Y-12370282D01*
X23671118Y-12241118D01*
X23569636Y-12089240D01*
X23499735Y-11920483D01*
X23464100Y-11741332D01*
X23464100Y-11558668D01*
X23499735Y-11379517D01*
X23569636Y-11210760D01*
X23671118Y-11058882D01*
X23800282Y-10929718D01*
X23952160Y-10828236D01*
X24120917Y-10758335D01*
X24300068Y-10722700D01*
X24482732Y-10722700D01*
X24661883Y-10758335D01*
X24661883Y-10758335D01*
G37*
G36*
X9879083Y-10758335D02*
G01*
X10047840Y-10828236D01*
X10199718Y-10929718D01*
X10328882Y-11058882D01*
X10430364Y-11210760D01*
X10500265Y-11379517D01*
X10535900Y-11558668D01*
X10535900Y-11741332D01*
X10500265Y-11920483D01*
X10430364Y-12089240D01*
X10328882Y-12241118D01*
X10199718Y-12370282D01*
X10047840Y-12471764D01*
X9879083Y-12541665D01*
X9699932Y-12577300D01*
X9517268Y-12577300D01*
X9338117Y-12541665D01*
X9169360Y-12471764D01*
X9017482Y-12370282D01*
X8888318Y-12241118D01*
X8786836Y-12089240D01*
X8716935Y-11920483D01*
X8681300Y-11741332D01*
X8681300Y-11558668D01*
X8716935Y-11379517D01*
X8786836Y-11210760D01*
X8888318Y-11058882D01*
X9017482Y-10929718D01*
X9169360Y-10828236D01*
X9338117Y-10758335D01*
X9517268Y-10722700D01*
X9699932Y-10722700D01*
X9879083Y-10758335D01*
X9879083Y-10758335D01*
G37*
G36*
X9421883Y-8218335D02*
G01*
X9590640Y-8288236D01*
X9742518Y-8389718D01*
X9871682Y-8518882D01*
X9973164Y-8670760D01*
X10043065Y-8839517D01*
X10078700Y-9018668D01*
X10078700Y-9201332D01*
X10043065Y-9380483D01*
X9973164Y-9549240D01*
X9871682Y-9701118D01*
X9742518Y-9830282D01*
X9590640Y-9931764D01*
X9421883Y-10001665D01*
X9242732Y-10037300D01*
X9060068Y-10037300D01*
X8880917Y-10001665D01*
X8712160Y-9931764D01*
X8560282Y-9830282D01*
X8431118Y-9701118D01*
X8329636Y-9549240D01*
X8259735Y-9380483D01*
X8224100Y-9201332D01*
X8224100Y-9018668D01*
X8259735Y-8839517D01*
X8329636Y-8670760D01*
X8431118Y-8518882D01*
X8560282Y-8389718D01*
X8712160Y-8288236D01*
X8880917Y-8218335D01*
X9060068Y-8182700D01*
X9242732Y-8182700D01*
X9421883Y-8218335D01*
X9421883Y-8218335D01*
G37*
G36*
X25119083Y-8218335D02*
G01*
X25287840Y-8288236D01*
X25439718Y-8389718D01*
X25568882Y-8518882D01*
X25670364Y-8670760D01*
X25740265Y-8839517D01*
X25775900Y-9018668D01*
X25775900Y-9201332D01*
X25740265Y-9380483D01*
X25670364Y-9549240D01*
X25568882Y-9701118D01*
X25439718Y-9830282D01*
X25287840Y-9931764D01*
X25119083Y-10001665D01*
X24939932Y-10037300D01*
X24757268Y-10037300D01*
X24578117Y-10001665D01*
X24409360Y-9931764D01*
X24257482Y-9830282D01*
X24128318Y-9701118D01*
X24026836Y-9549240D01*
X23956935Y-9380483D01*
X23921300Y-9201332D01*
X23921300Y-9018668D01*
X23956935Y-8839517D01*
X24026836Y-8670760D01*
X24128318Y-8518882D01*
X24257482Y-8389718D01*
X24409360Y-8288236D01*
X24578117Y-8218335D01*
X24757268Y-8182700D01*
X24939932Y-8182700D01*
X25119083Y-8218335D01*
X25119083Y-8218335D01*
G37*
G36*
X75939500Y-7749500D02*
G01*
X74440500Y-7749500D01*
X74440500Y-6250500D01*
X75939500Y-6250500D01*
X75939500Y-7749500D01*
X75939500Y-7749500D01*
G37*
G36*
X36939500Y-7749500D02*
G01*
X35440500Y-7749500D01*
X35440500Y-6250500D01*
X36939500Y-6250500D01*
X36939500Y-7749500D01*
X36939500Y-7749500D01*
G37*
G36*
X43904425Y-6254599D02*
G01*
X44028621Y-6279302D01*
X44165022Y-6335801D01*
X44287779Y-6417825D01*
X44392175Y-6522221D01*
X44474199Y-6644978D01*
X44530698Y-6781379D01*
X44559500Y-6926181D01*
X44559500Y-7073819D01*
X44530698Y-7218621D01*
X44474199Y-7355022D01*
X44392175Y-7477779D01*
X44287779Y-7582175D01*
X44165022Y-7664199D01*
X44028621Y-7720698D01*
X43904425Y-7745401D01*
X43883820Y-7749500D01*
X43736180Y-7749500D01*
X43715575Y-7745401D01*
X43591379Y-7720698D01*
X43454978Y-7664199D01*
X43332221Y-7582175D01*
X43227825Y-7477779D01*
X43145801Y-7355022D01*
X43089302Y-7218621D01*
X43060500Y-7073819D01*
X43060500Y-6926181D01*
X43089302Y-6781379D01*
X43145801Y-6644978D01*
X43227825Y-6522221D01*
X43332221Y-6417825D01*
X43454978Y-6335801D01*
X43591379Y-6279302D01*
X43715575Y-6254599D01*
X43736180Y-6250500D01*
X43883820Y-6250500D01*
X43904425Y-6254599D01*
X43904425Y-6254599D01*
G37*
G36*
X82904425Y-6254599D02*
G01*
X83028621Y-6279302D01*
X83165022Y-6335801D01*
X83287779Y-6417825D01*
X83392175Y-6522221D01*
X83474199Y-6644978D01*
X83530698Y-6781379D01*
X83559500Y-6926181D01*
X83559500Y-7073819D01*
X83530698Y-7218621D01*
X83474199Y-7355022D01*
X83392175Y-7477779D01*
X83287779Y-7582175D01*
X83165022Y-7664199D01*
X83028621Y-7720698D01*
X82904425Y-7745401D01*
X82883820Y-7749500D01*
X82736180Y-7749500D01*
X82715575Y-7745401D01*
X82591379Y-7720698D01*
X82454978Y-7664199D01*
X82332221Y-7582175D01*
X82227825Y-7477779D01*
X82145801Y-7355022D01*
X82089302Y-7218621D01*
X82060500Y-7073819D01*
X82060500Y-6926181D01*
X82089302Y-6781379D01*
X82145801Y-6644978D01*
X82227825Y-6522221D01*
X82332221Y-6417825D01*
X82454978Y-6335801D01*
X82591379Y-6279302D01*
X82715575Y-6254599D01*
X82736180Y-6250500D01*
X82883820Y-6250500D01*
X82904425Y-6254599D01*
X82904425Y-6254599D01*
G37*
G36*
X63404425Y-6254599D02*
G01*
X63528621Y-6279302D01*
X63665022Y-6335801D01*
X63787779Y-6417825D01*
X63892175Y-6522221D01*
X63974199Y-6644978D01*
X64030698Y-6781379D01*
X64059500Y-6926181D01*
X64059500Y-7073819D01*
X64030698Y-7218621D01*
X63974199Y-7355022D01*
X63892175Y-7477779D01*
X63787779Y-7582175D01*
X63665022Y-7664199D01*
X63528621Y-7720698D01*
X63404425Y-7745401D01*
X63383820Y-7749500D01*
X63236180Y-7749500D01*
X63215575Y-7745401D01*
X63091379Y-7720698D01*
X62954978Y-7664199D01*
X62832221Y-7582175D01*
X62727825Y-7477779D01*
X62645801Y-7355022D01*
X62589302Y-7218621D01*
X62560500Y-7073819D01*
X62560500Y-6926181D01*
X62589302Y-6781379D01*
X62645801Y-6644978D01*
X62727825Y-6522221D01*
X62832221Y-6417825D01*
X62954978Y-6335801D01*
X63091379Y-6279302D01*
X63215575Y-6254599D01*
X63236180Y-6250500D01*
X63383820Y-6250500D01*
X63404425Y-6254599D01*
X63404425Y-6254599D01*
G37*
G36*
X56439500Y-7749500D02*
G01*
X54940500Y-7749500D01*
X54940500Y-6250500D01*
X56439500Y-6250500D01*
X56439500Y-7749500D01*
X56439500Y-7749500D01*
G37*
G36*
X42476000Y-7526000D02*
G01*
X41074000Y-7526000D01*
X41074000Y-6474000D01*
X42476000Y-6474000D01*
X42476000Y-7526000D01*
X42476000Y-7526000D01*
G37*
G36*
X81476000Y-7526000D02*
G01*
X80074000Y-7526000D01*
X80074000Y-6474000D01*
X81476000Y-6474000D01*
X81476000Y-7526000D01*
X81476000Y-7526000D01*
G37*
G36*
X77926000Y-7526000D02*
G01*
X76524000Y-7526000D01*
X76524000Y-6474000D01*
X77926000Y-6474000D01*
X77926000Y-7526000D01*
X77926000Y-7526000D01*
G37*
G36*
X61976000Y-7526000D02*
G01*
X60574000Y-7526000D01*
X60574000Y-6474000D01*
X61976000Y-6474000D01*
X61976000Y-7526000D01*
X61976000Y-7526000D01*
G37*
G36*
X58426000Y-7526000D02*
G01*
X57024000Y-7526000D01*
X57024000Y-6474000D01*
X58426000Y-6474000D01*
X58426000Y-7526000D01*
X58426000Y-7526000D01*
G37*
G36*
X38926000Y-7526000D02*
G01*
X37524000Y-7526000D01*
X37524000Y-6474000D01*
X38926000Y-6474000D01*
X38926000Y-7526000D01*
X38926000Y-7526000D01*
G37*
G36*
X24661883Y-5678335D02*
G01*
X24830640Y-5748236D01*
X24982518Y-5849718D01*
X25111682Y-5978882D01*
X25213164Y-6130760D01*
X25283065Y-6299517D01*
X25318700Y-6478668D01*
X25318700Y-6661332D01*
X25283065Y-6840483D01*
X25213164Y-7009240D01*
X25111682Y-7161118D01*
X24982518Y-7290282D01*
X24830640Y-7391764D01*
X24661883Y-7461665D01*
X24482732Y-7497300D01*
X24300068Y-7497300D01*
X24120917Y-7461665D01*
X23952160Y-7391764D01*
X23800282Y-7290282D01*
X23671118Y-7161118D01*
X23569636Y-7009240D01*
X23499735Y-6840483D01*
X23464100Y-6661332D01*
X23464100Y-6478668D01*
X23499735Y-6299517D01*
X23569636Y-6130760D01*
X23671118Y-5978882D01*
X23800282Y-5849718D01*
X23952160Y-5748236D01*
X24120917Y-5678335D01*
X24300068Y-5642700D01*
X24482732Y-5642700D01*
X24661883Y-5678335D01*
X24661883Y-5678335D01*
G37*
G36*
X9879083Y-5678335D02*
G01*
X10047840Y-5748236D01*
X10199718Y-5849718D01*
X10328882Y-5978882D01*
X10430364Y-6130760D01*
X10500265Y-6299517D01*
X10535900Y-6478668D01*
X10535900Y-6661332D01*
X10500265Y-6840483D01*
X10430364Y-7009240D01*
X10328882Y-7161118D01*
X10199718Y-7290282D01*
X10047840Y-7391764D01*
X9879083Y-7461665D01*
X9699932Y-7497300D01*
X9517268Y-7497300D01*
X9338117Y-7461665D01*
X9169360Y-7391764D01*
X9017482Y-7290282D01*
X8888318Y-7161118D01*
X8786836Y-7009240D01*
X8716935Y-6840483D01*
X8681300Y-6661332D01*
X8681300Y-6478668D01*
X8716935Y-6299517D01*
X8786836Y-6130760D01*
X8888318Y-5978882D01*
X9017482Y-5849718D01*
X9169360Y-5748236D01*
X9338117Y-5678335D01*
X9517268Y-5642700D01*
X9699932Y-5642700D01*
X9879083Y-5678335D01*
X9879083Y-5678335D01*
G37*
G36*
X25119083Y-3138335D02*
G01*
X25287840Y-3208236D01*
X25439718Y-3309718D01*
X25568882Y-3438882D01*
X25670364Y-3590760D01*
X25740265Y-3759517D01*
X25775900Y-3938668D01*
X25775900Y-4121332D01*
X25740265Y-4300483D01*
X25670364Y-4469240D01*
X25568882Y-4621118D01*
X25439718Y-4750282D01*
X25287840Y-4851764D01*
X25119083Y-4921665D01*
X24939932Y-4957300D01*
X24757268Y-4957300D01*
X24578117Y-4921665D01*
X24409360Y-4851764D01*
X24257482Y-4750282D01*
X24128318Y-4621118D01*
X24026836Y-4469240D01*
X23956935Y-4300483D01*
X23921300Y-4121332D01*
X23921300Y-3938668D01*
X23956935Y-3759517D01*
X24026836Y-3590760D01*
X24128318Y-3438882D01*
X24257482Y-3309718D01*
X24409360Y-3208236D01*
X24578117Y-3138335D01*
X24757268Y-3102700D01*
X24939932Y-3102700D01*
X25119083Y-3138335D01*
X25119083Y-3138335D01*
G37*
G36*
X10078700Y-4957300D02*
G01*
X8224100Y-4957300D01*
X8224100Y-3102700D01*
X10078700Y-3102700D01*
X10078700Y-4957300D01*
X10078700Y-4957300D01*
G37*
G36*
X3724549Y-2371116D02*
G01*
X3835734Y-2393232D01*
X4045203Y-2479997D01*
X4233720Y-2605960D01*
X4394040Y-2766280D01*
X4520003Y-2954797D01*
X4606768Y-3164266D01*
X4651000Y-3386636D01*
X4651000Y-3613364D01*
X4606768Y-3835734D01*
X4520003Y-4045203D01*
X4394040Y-4233720D01*
X4233720Y-4394040D01*
X4045203Y-4520003D01*
X3835734Y-4606768D01*
X3763591Y-4621118D01*
X3613365Y-4651000D01*
X3386635Y-4651000D01*
X3236409Y-4621118D01*
X3164266Y-4606768D01*
X2954797Y-4520003D01*
X2766280Y-4394040D01*
X2605960Y-4233720D01*
X2479997Y-4045203D01*
X2393232Y-3835734D01*
X2349000Y-3613364D01*
X2349000Y-3386636D01*
X2393232Y-3164266D01*
X2479997Y-2954797D01*
X2605960Y-2766280D01*
X2766280Y-2605960D01*
X2954797Y-2479997D01*
X3164266Y-2393232D01*
X3275451Y-2371116D01*
X3386635Y-2349000D01*
X3613365Y-2349000D01*
X3724549Y-2371116D01*
X3724549Y-2371116D01*
G37*
G36*
X87724549Y-2371116D02*
G01*
X87835734Y-2393232D01*
X88045203Y-2479997D01*
X88233720Y-2605960D01*
X88394040Y-2766280D01*
X88520003Y-2954797D01*
X88606768Y-3164266D01*
X88651000Y-3386636D01*
X88651000Y-3613364D01*
X88606768Y-3835734D01*
X88520003Y-4045203D01*
X88394040Y-4233720D01*
X88233720Y-4394040D01*
X88045203Y-4520003D01*
X87835734Y-4606768D01*
X87763591Y-4621118D01*
X87613365Y-4651000D01*
X87386635Y-4651000D01*
X87236409Y-4621118D01*
X87164266Y-4606768D01*
X86954797Y-4520003D01*
X86766280Y-4394040D01*
X86605960Y-4233720D01*
X86479997Y-4045203D01*
X86393232Y-3835734D01*
X86349000Y-3613364D01*
X86349000Y-3386636D01*
X86393232Y-3164266D01*
X86479997Y-2954797D01*
X86605960Y-2766280D01*
X86766280Y-2605960D01*
X86954797Y-2479997D01*
X87164266Y-2393232D01*
X87275451Y-2371116D01*
X87386635Y-2349000D01*
X87613365Y-2349000D01*
X87724549Y-2371116D01*
X87724549Y-2371116D01*
G37*
M02*
